<svg width="492" height="415" viewBox="0 0 492 415" fill="none" xmlns="http://www.w3.org/2000/svg">
<path d="M151.314 135.125H139.714V81.0547H98.2857V135.125H45.2571C61.2762 125.469 102.152 100.917 102.152 11.812H59.3428C59.3428 106.159 15.7048 127.952 3 135.125V174.022H98.2857V207.678H139.714V174.022H151.314V135.125Z" stroke="#251942" stroke-width="5" stroke-linejoin="round"/>
<path d="M489 135.125H477.4V81.0547H435.971V135.125H382.943C398.962 125.469 439.838 100.917 439.838 11.812H397.029C397.029 106.159 353.391 127.952 340.686 135.125V174.022H435.971V207.678H477.4V174.022H489V135.125Z" stroke="#251942" stroke-width="5" stroke-linejoin="round"/>
<path d="M314.023 71.9885C307.064 59.5958 296.653 48.9408 283.26 41.6204C245.244 20.8432 197.594 34.798 176.83 72.7892C156.066 110.78 170.051 158.422 208.066 179.199C246.082 199.976 293.732 186.021 314.496 148.03C321.498 135.217 324.549 121.307 324.058 107.7" stroke="#251942" stroke-width="5"/>
<path d="M268.184 187.132L279.884 226.988" stroke="#251942" stroke-width="16" stroke-linejoin="round"/>
<ellipse rx="8.31179" ry="8.30654" transform="matrix(0.877727 0.47916 -0.480024 0.877255 321.515 89.6686)" fill="#376AEF"/>
<path d="M302.148 222.119L279.326 226.45M274.726 258.218L245.672 263.038M245.672 263.038V263.038C242.491 263.565 239.437 261.573 238.64 258.452L236.66 250.691C234.532 242.347 239.891 233.934 248.36 232.327L279.326 226.45M245.672 263.038L248.977 276.89C250.786 284.473 257.948 289.534 265.708 288.713V288.713M288.321 286.32L265.708 288.713M265.708 288.713V288.713C267.592 299.999 276.773 308.643 288.16 309.852L288.627 309.901M308.358 311.996L288.627 309.901M288.627 309.901V309.901C290.311 321.918 299.977 331.235 312.057 332.485L357.933 337.232M396.006 255.374L335.387 199.513C326.779 191.58 314.636 188.742 303.395 192.034L300.229 192.961C285.759 197.199 276.767 211.606 279.326 226.45V226.45" stroke="#251942" stroke-width="5" stroke-linecap="round" stroke-linejoin="round"/>
<path d="M399.232 412L345.027 364.303L396.006 255.374L481.831 330.787" stroke="#251942" stroke-width="5" stroke-linecap="round" stroke-linejoin="round"/>
</svg>
