<svg width="634" height="362" viewBox="0 0 634 362" fill="none" xmlns="http://www.w3.org/2000/svg">
<circle r="3.5" transform="matrix(-1 0 0 1 22.4991 60.5)" fill="#376AEF"/>
<circle r="3.5" transform="matrix(-1 0 0 1 32.4991 60.5)" fill="#376AEF"/>
<circle r="3.5" transform="matrix(-1 0 0 1 12.4991 60.5)" fill="#376AEF"/>
<rect width="267" height="267" rx="5" transform="matrix(-1 0 0 1 268.999 50)" stroke="#251942" stroke-width="4"/>
<path d="M342.699 238.894C387.301 237.572 468.971 238.497 438.84 252.77C401.177 270.61 476.784 281.593 500.5 284.687C546.5 290.687 618.222 279.687 692 279.687H818.92C841.914 279.687 847.426 311.761 825.75 319.437V319.437C804.075 327.112 809.586 359.187 832.581 359.187L1057 359.187" stroke="#251942" stroke-width="4" stroke-linecap="round" stroke-linejoin="round"/>
<path d="M318.911 242.858L309 242.858" stroke="#251942" stroke-width="4" stroke-linecap="round"/>
<path d="M318.911 232.947L309 232.947" stroke="#251942" stroke-width="4" stroke-linecap="round"/>
<path d="M323.943 227C322.266 227 319.75 227 318.911 227C318.911 229.645 318.911 246.025 318.911 248.805C321.427 248.805 322.266 248.805 323.943 248.805C336.846 248.805 340.717 243.924 340.717 237.903C340.717 231.881 336.846 227 323.943 227Z" stroke="#251942" stroke-width="4" stroke-linejoin="round"/>
<line x1="71.3706" y1="127" x2="104.542" y2="160.172" stroke="black" stroke-width="4" stroke-linecap="round"/>
<line x1="102.654" y1="126.826" x2="70.8261" y2="161.289" stroke="black" stroke-width="4" stroke-linecap="round"/>
<line x1="168.371" y1="124" x2="201.542" y2="157.172" stroke="black" stroke-width="4" stroke-linecap="round"/>
<line x1="199.654" y1="123.826" x2="167.826" y2="158.289" stroke="black" stroke-width="4" stroke-linecap="round"/>
<line x1="1" y1="71" x2="269" y2="71" stroke="black" stroke-width="4"/>
<path d="M79.9999 266.5C85.8333 253.5 100.8 227 136 227C171.2 227 187.833 253.5 189 266.5" stroke="black" stroke-width="4" stroke-linecap="round" stroke-linejoin="round"/>
<circle cx="364.5" cy="128.5" r="4.5" stroke="#7492FF" stroke-width="4"/>
<path d="M379 39L398 58" stroke="#7492FF" stroke-width="4" stroke-linecap="square" stroke-linejoin="round"/>
<path d="M398 39L379 58" stroke="#7492FF" stroke-width="4" stroke-linecap="square" stroke-linejoin="round"/>
<g clip-path="url(#clip0_926_641)">
<path d="M278.156 4.15625L289.437 15.4375" stroke="#7492FF" stroke-width="4" stroke-linecap="square" stroke-linejoin="round"/>
<path d="M289.437 4.15625L278.156 15.4375" stroke="#7492FF" stroke-width="4" stroke-linecap="square" stroke-linejoin="round"/>
</g>
<defs>
<clipPath id="clip0_926_641">
<rect width="19" height="19" fill="white" transform="translate(274)"/>
</clipPath>
</defs>
</svg>
