<svg width="656" height="401" viewBox="0 0 656 401" fill="none" xmlns="http://www.w3.org/2000/svg">
<rect x="-2" y="2" width="225.946" height="59.4335" rx="3" transform="matrix(-1 0 0 1 565 0)" stroke="#251942" stroke-width="4"/>
<path d="M541.23 52.5574C541.23 52.0051 540.782 51.5574 540.23 51.5574H453.062C452.51 51.5574 452.062 52.0051 452.062 52.5574V61.4334H541.23V52.5574Z" stroke="#251942" stroke-width="4"/>
<rect x="549.159" y="69.3627" width="190.265" height="7.89377" transform="rotate(180 549.159 69.3627)" stroke="#251942" stroke-width="4"/>
<circle r="4.95574" transform="matrix(-1 0 0 1 546.204 32.7079)" fill="#376AEF"/>
<circle r="4.95574" transform="matrix(-1 0 0 1 532.328 32.7079)" fill="#376AEF"/>
<circle r="4.95574" transform="matrix(-1 0 0 1 518.451 32.7079)" fill="#376AEF"/>
<circle r="4.95574" transform="matrix(-1 0 0 1 357.886 32.7079)" fill="#376AEF"/>
<path d="M370.77 32.7079H443.124" stroke="#251942" stroke-width="4" stroke-linecap="round"/>
<rect x="-2" y="2" width="225.946" height="59.4335" rx="3" transform="matrix(-1 0 0 1 565 134.796)" stroke="#251942" stroke-width="4"/>
<path d="M541.23 187.354C541.23 186.801 540.782 186.354 540.23 186.354H453.062C452.51 186.354 452.062 186.801 452.062 187.354V196.23H541.23V187.354Z" stroke="#251942" stroke-width="4"/>
<rect x="549.159" y="204.159" width="190.265" height="7.89377" transform="rotate(180 549.159 204.159)" stroke="#251942" stroke-width="4"/>
<circle r="4.95574" transform="matrix(-1 0 0 1 546.204 167.504)" fill="#376AEF"/>
<circle r="4.95574" transform="matrix(-1 0 0 1 532.328 167.504)" fill="#376AEF"/>
<circle r="4.95574" transform="matrix(-1 0 0 1 518.451 167.504)" fill="#376AEF"/>
<circle r="4.95574" transform="matrix(-1 0 0 1 357.886 167.504)" fill="#376AEF"/>
<path d="M370.77 167.504H443.124" stroke="#251942" stroke-width="4" stroke-linecap="round"/>
<rect x="-2" y="2" width="225.946" height="59.4335" rx="3" transform="matrix(-1 0 0 1 565 67.3981)" stroke="#251942" stroke-width="4"/>
<path d="M541.23 119.955C541.23 119.403 540.782 118.955 540.23 118.955H453.062C452.51 118.955 452.062 119.403 452.062 119.955V128.832H541.23V119.955Z" stroke="#251942" stroke-width="4"/>
<rect x="549.159" y="136.761" width="190.265" height="7.89377" transform="rotate(180 549.159 136.761)" stroke="#251942" stroke-width="4"/>
<circle r="4.95574" transform="matrix(-1 0 0 1 546.204 100.106)" fill="#376AEF"/>
<circle r="4.95574" transform="matrix(-1 0 0 1 532.328 100.106)" fill="#376AEF"/>
<circle r="4.95574" transform="matrix(-1 0 0 1 518.451 100.106)" fill="#376AEF"/>
<circle r="4.95574" transform="matrix(-1 0 0 1 357.886 100.106)" fill="#376AEF"/>
<path d="M370.77 100.106H443.124" stroke="#251942" stroke-width="4" stroke-linecap="round"/>
<rect x="-2" y="2" width="225.946" height="59.4335" rx="3" transform="matrix(-1 0 0 1 565 202.194)" stroke="#251942" stroke-width="4"/>
<path d="M541.23 254.752C541.23 254.199 540.782 253.752 540.23 253.752H453.062C452.51 253.752 452.062 254.199 452.062 254.752V263.628H541.23V254.752Z" stroke="#251942" stroke-width="4"/>
<rect x="549.159" y="271.557" width="190.265" height="7.89377" transform="rotate(180 549.159 271.557)" stroke="#251942" stroke-width="4"/>
<circle r="4.95574" transform="matrix(-1 0 0 1 546.204 234.902)" fill="#376AEF"/>
<circle r="4.95574" transform="matrix(-1 0 0 1 532.328 234.902)" fill="#376AEF"/>
<circle r="4.95574" transform="matrix(-1 0 0 1 518.451 234.902)" fill="#376AEF"/>
<circle r="4.95574" transform="matrix(-1 0 0 1 357.886 234.902)" fill="#376AEF"/>
<path d="M370.77 234.902H443.124" stroke="#251942" stroke-width="4" stroke-linecap="round"/>
<rect x="-2" y="2" width="225.946" height="59.4335" rx="3" transform="matrix(-1 0 0 1 565 269.592)" stroke="#251942" stroke-width="4"/>
<path d="M541.23 322.15C541.23 321.597 540.782 321.15 540.23 321.15H453.062C452.51 321.15 452.062 321.597 452.062 322.15V331.026H541.23V322.15Z" stroke="#251942" stroke-width="4"/>
<rect x="549.159" y="338.955" width="190.265" height="7.89377" transform="rotate(180 549.159 338.955)" stroke="#251942" stroke-width="4"/>
<circle r="4.95574" transform="matrix(-1 0 0 1 546.204 302.3)" fill="#376AEF"/>
<circle r="4.95574" transform="matrix(-1 0 0 1 532.328 302.3)" fill="#376AEF"/>
<circle r="4.95574" transform="matrix(-1 0 0 1 518.451 302.3)" fill="#376AEF"/>
<circle r="4.95574" transform="matrix(-1 0 0 1 357.886 302.3)" fill="#376AEF"/>
<path d="M370.77 302.3H443.124" stroke="#251942" stroke-width="4" stroke-linecap="round"/>
<circle r="4.95574" transform="matrix(-1 0 0 1 91.1859 268.601)" fill="#376AEF"/>
<circle r="4.95574" transform="matrix(-1 0 0 1 77.3098 268.601)" fill="#376AEF"/>
<rect width="55.5043" height="55.5043" rx="5" transform="matrix(-1 0 0 1 112 241.84)" stroke="#251942" stroke-width="4"/>
<rect width="35.6813" height="35.6813" rx="17.8407" transform="matrix(-1 0 0 1 102.089 251.752)" stroke="#251942" stroke-width="4"/>
<path d="M38.5 217L52.5 230" stroke="#376AEF" stroke-width="4" stroke-linecap="round" stroke-linejoin="round"/>
<path d="M85.3137 201V221.627" stroke="#376AEF" stroke-width="4" stroke-linecap="round" stroke-linejoin="round"/>
<path d="M40.5 258H22" stroke="#376AEF" stroke-width="4" stroke-linecap="round" stroke-linejoin="round"/>
<path d="M129 217L115 230" stroke="#376AEF" stroke-width="4" stroke-linecap="round" stroke-linejoin="round"/>
<path d="M127 258H134.75H145.5" stroke="#376AEF" stroke-width="4" stroke-linecap="round" stroke-linejoin="round"/>
<path d="M567.945 325.097H653.184" stroke="#251942" stroke-width="4" stroke-linecap="round"/>
<path d="M2 325.097L339.981 325.097" stroke="#251942" stroke-width="4" stroke-linecap="round"/>
<path d="M99.6988 368.707C144.3 367.386 225.971 368.311 195.84 382.583C158.176 400.424 378.211 406.5 378.211 382.583C378.211 373.861 335.922 367.055 314.778 364.742H574.875C585.823 364.742 594.698 355.867 594.698 344.92V344.92C594.698 333.972 585.823 325.097 574.875 325.097H567.937" stroke="#251942" stroke-width="4" stroke-linecap="round" stroke-linejoin="round"/>
<path d="M75.9112 372.672L65.9997 372.672" stroke="#251942" stroke-width="4" stroke-linecap="round"/>
<path d="M75.9112 362.76L65.9997 362.76" stroke="#251942" stroke-width="4" stroke-linecap="round"/>
<path d="M80.9432 356.813C79.2659 356.813 76.7499 356.813 75.9112 356.813C75.9112 359.459 75.9112 375.838 75.9112 378.618C78.4272 378.618 79.2659 378.618 80.9432 378.619C93.8457 378.619 97.7165 373.737 97.7165 367.716C97.7165 361.695 93.8457 356.813 80.9432 356.813Z" stroke="#251942" stroke-width="4" stroke-linejoin="round"/>
</svg>
