<?xml version="1.0" encoding="utf-8"?>
<!-- Generator: Adobe Illustrator 24.3.0, SVG Export Plug-In . SVG Version: 6.00 Build 0)  -->
<svg version="1.1" id="Calque_1" xmlns="http://www.w3.org/2000/svg" xmlns:xlink="http://www.w3.org/1999/xlink" x="0px" y="0px"
	 viewBox="0 0 492 516" style="enable-background:new 0 0 492 516;" xml:space="preserve">
<style type="text/css">
	.st0{fill:none;stroke:#251942;stroke-width:5;stroke-linejoin:round;}
	.st1{fill:none;stroke:#251942;stroke-width:5;}
	.st2{fill:none;stroke:#251942;stroke-width:16;stroke-linejoin:round;}
	.st3{fill:#376AEF;}
	.st4{fill:none;stroke:#251942;stroke-width:5;stroke-linecap:round;stroke-linejoin:round;}
</style>
<path class="st0" d="M151.3,196.1h-11.6v-54.1H98.3v54.1h-53c16-9.7,56.9-34.2,56.9-123.3H59.3C59.3,167.2,15.7,189,3,196.1V235
	h95.3v33.7h41.4V235h11.6V196.1z"/>
<path class="st1" d="M423.6,272.7c30.9,0,65.5-19.6,65.5-61c0-29.2-15.3-44.4-39-47.1v-2.2c19.7-2.7,29.2-23.7,29.2-41.7
	c0-16.3-10.4-47.7-56.5-47.7c-43.4,0-64.2,24.5-64.2,55.6h41c0-11.2,7.4-20.7,20.5-20.7c11.7,0,18.3,7.1,18.3,16.1
	c0,19.6-13.1,25.6-34.1,25.9h-1.4v31.1c43.7,0,45.3,22.6,45.3,30.8c0,12.3-7.4,22.9-25.7,22.9c-19.9,0-32.2-13.4-32.2-34.3
	l-42.3,4.6C348,249.8,382.1,272.7,423.6,272.7z"/>
<path class="st1" d="M345.8,230.5c-32.6,59.7-107.4,81.6-167.2,49 M129.6,112.3c32.6-59.7,107.4-81.6,167.2-49
	c21,11.5,37.4,28.2,48.3,47.7"/>
<path class="st1" d="M359.5,153.6c1.8,12.2,1.7,24.2,0,35.8"/>
<path class="st2" d="M268.2,288.1l11.7,39.9"/>
<ellipse class="st3" cx="342.3" cy="108.3" rx="8.3" ry="8.3"/>
<path class="st4" d="M302.1,323.1l-22.8,4.3 M274.7,359.2l-29.1,4.8 M245.7,364L245.7,364c-3.2,0.5-6.2-1.5-7-4.6l-2-7.8
	c-2.1-8.3,3.2-16.8,11.7-18.4l31-5.9 M245.7,364l3.3,13.9c1.8,7.6,9,12.6,16.7,11.8l0,0 M288.3,387.3l-22.6,2.4 M265.7,389.7
	L265.7,389.7c1.9,11.3,11.1,19.9,22.5,21.1l0.5,0 M308.4,413l-19.7-2.1 M288.6,410.9L288.6,410.9c1.7,12,11.4,21.3,23.4,22.6
	l45.9,4.7 M396,356.4l-60.6-55.9c-8.6-7.9-20.8-10.8-32-7.5l-3.2,0.9c-14.5,4.2-23.5,18.6-20.9,33.5l0,0"/>
<path class="st4" d="M399.2,513L345,465.3l51-108.9l85.8,75.4"/>
<rect x="180" y="159.3" class="st1" width="125" height="24"/>
</svg>
