<svg xmlns="http://www.w3.org/2000/svg" xmlns:xlink="http://www.w3.org/1999/xlink" width="722" height="640" viewBox="0 0 722 640">
    <defs>
        <path id="je2qdw652a" d="M0 0.192L682.862 0.192 682.862 639 0 639z"/>
        <path id="v9wrwt6tic" d="M0 0.192L682.862 0.192 682.862 639 0 639z"/>
        <path id="1hgmu70mve" d="M0.061 0.804L64.251 0.804 64.251 66.792 0.061 66.792z"/>
        <path id="8ap716aslg" d="M0 639L720.677 639 720.677 0.192 0 0.192z"/>
    </defs>
    <g fill="none" fill-rule="evenodd">
        <g>
            <g>
                <g>
                    <g transform="translate(-468 -192) translate(468 192)">
                        <mask id="z4mywqyl0b" fill="#fff">
                            <use xlink:href="#je2qdw652a"/>
                        </mask>
                        <path fill="#AF0" d="M.366 353.913s5.967 122.204 109.29 200.64c103.322 78.434 244.72 79.982 359.237 84.255 114.518 4.272 201.306-63.24 212.922-161.667 11.617-98.424-76.267-124.547-125.54-234.688-49.272-110.14-45.661-146.947-147.143-212.528C307.651-35.658 151.376 11.248 71.025 131.318-9.328 251.386.365 353.913.365 353.913" mask="url(#z4mywqyl0b)"/>
                    </g>
                    <g transform="translate(-468 -192) translate(468 192)">
                        <mask id="mplvmibu5d" fill="#fff">
                            <use xlink:href="#v9wrwt6tic"/>
                        </mask>
                        <path fill="#FFF" d="M.366 353.913s5.967 122.204 109.29 200.64c103.322 78.434 244.72 79.982 359.237 84.255 114.518 4.272 201.306-63.24 212.922-161.667 11.617-98.424-76.267-124.547-125.54-234.688-49.272-110.14-45.661-146.947-147.143-212.528C307.651-35.658 151.376 11.248 71.025 131.318-9.328 251.386.365 353.913.365 353.913" mask="url(#mplvmibu5d)"/>
                    </g>
                </g>
                <g>
                    <path fill="#C1C1C1" d="M103.383 183.27s-5.576-23.73-1.395-44.67c4.183-20.94 13.942-6.98 25.096-20.94s5.577-40.481 18.126-51.648c12.548-11.17 30.673-9.774 34.855-30.712 4.183-20.939 6.97-37.69 15.337-34.899 8.364 2.792-6.972 27.92-6.972 43.274 0 15.356 8.366 25.128 2.789 40.483-5.577 15.356-29.279 9.77-29.279 27.92 0 18.147 9.76 36.294 1.393 48.859-8.363 12.563-30.672 15.353-33.46 22.334-2.789 6.979-9.76 19.542-16.731 19.542-6.97 0-9.76-19.542-9.76-19.542M98.847 183.518c1.395-4.19-1.395-40.483-13.942-47.462-12.548-6.981-26.489-4.19-33.461-16.752-6.97-12.564-6.97-18.148-13.943-19.543-6.97-1.396-40.43-6.98-36.249 0 4.184 6.98 29.279-4.188 29.279 9.771 0 13.96-2.789 36.295 5.577 41.879 8.365 5.584 30.672 4.187 29.279 16.752-1.396 12.563-5.576 16.751 1.393 20.937 6.97 4.189 26.492 22.337 29.279 8.378l2.788-13.96z" transform="translate(-468 -192) translate(468 192) translate(523 343)"/>
                    <path stroke="#1A2E35" stroke-width="1.257" d="M114.363 214.297s-6.495-20.322 11.368-57.714c17.86-37.393 30.85-65.843 38.969-80.476M99.75 217.549s-2.436-9.755-10.554-36.58c-8.12-26.825-17.862-34.14-31.664-43.083-13.802-8.94-14.615-23.573-17.049-27.637" transform="translate(-468 -192) translate(468 192) translate(523 343)"/>
                    <g transform="translate(-468 -192) translate(468 192) translate(523 343) translate(133.787 143.441)">
                        <mask id="4y3sujgwif" fill="#fff">
                            <use xlink:href="#1hgmu70mve"/>
                        </mask>
                        <path fill="#C1C1C1" d="M.061 59.475s1.623-14.632 14.613-18.696c12.99-4.064 25.17-2.439 27.605-11.38 2.435-8.942 2.435-17.884 8.118-22.76C56.081 1.76 63.387-.677 64.2 1.76c.811 2.439-8.118 4.064-8.118 12.193 0 8.13 12.179 28.452-5.684 36.58-17.86 8.128-32.473.813-38.968 6.503C4.933 62.727.873 66.792.873 66.792L.06 59.475z" mask="url(#4y3sujgwif)"/>
                    </g>
                    <path stroke="#1A2E35" stroke-width="1.257" d="M132.225 217.549s5.684-21.136 19.485-26.013c13.802-4.876 29.228 5.691 35.721-4.064 6.497-9.754 1.625-19.51.814-26.012" transform="translate(-468 -192) translate(468 192) translate(523 343)"/>
                    <path fill="#1A2E35" d="M141.358 214.297H91.022c-2.24 0-4.06 1.818-4.06 4.065 0 2.244 1.82 4.065 4.06 4.065h.405l3.92 10.291c.623 1.635 2.188 2.715 3.934 2.715H133.1c1.746 0 3.312-1.08 3.935-2.715l3.918-10.291h.406c2.241 0 4.06-1.82 4.06-4.065 0-2.247-1.819-4.065-4.06-4.065" transform="translate(-468 -192) translate(468 192) translate(523 343)"/>
                </g>
                <g>
                    <path fill="#0669F4" d="M249.06 152.655H8.29c-4.285 0-7.758-3.472-7.758-7.754v-30.43c0-4.283 3.473-7.754 7.758-7.754H249.06c4.285 0 7.759 3.471 7.759 7.754v30.43c0 4.282-3.474 7.754-7.759 7.754" transform="translate(-468 -192) translate(468 192) translate(432 219)"/>
                    <path fill="#1A2E35" d="M20.326 136.006c-.238-.205-.356-.49-.356-.852v-14.907c0-.363.122-.648.37-.858.243-.208.532-.313.86-.313.33 0 .614.103.852.308.236.205.356.492.356.863v14.907c0 .37-.121.657-.362.857-.241.202-.53.302-.87.302-.33 0-.612-.102-.85-.307M26.982 136.054c-.21-.18-.313-.437-.313-.766v-9.915c0-.322.108-.572.325-.752.218-.184.475-.274.774-.274.296 0 .552.087.765.26.213.172.321.417.321.73v1.05c.304-.733.805-1.295 1.502-1.69.695-.394 1.506-.59 2.43-.59 1.329 0 2.386.384 3.176 1.157.789.772 1.182 1.943 1.182 3.511v6.513c0 .329-.107.586-.32.766-.213.18-.468.27-.767.27-.298 0-.552-.09-.765-.27-.215-.18-.32-.437-.32-.766v-6.537c0-1.03-.24-1.814-.718-2.353-.479-.539-1.154-.808-2.021-.808-.926 0-1.707.33-2.343.99-.634.659-.98 1.555-1.036 2.688v6.02c0 .322-.113.575-.334.76-.22.185-.479.277-.777.277-.298 0-.552-.09-.76-.27M42.37 135.595c-.546-.598-.82-1.522-.82-2.767v-6.95h-1.472c-.267 0-.47-.064-.612-.191-.139-.13-.21-.302-.21-.518 0-.21.07-.382.205-.515.138-.132.338-.198.604-.198h1.485l.29-3.425c.016-.258.13-.479.343-.664.214-.185.449-.277.706-.277.241 0 .443.074.605.223.159.15.24.365.24.645v3.498h2.222c.264 0 .464.07.597.205.133.136.198.315.198.53 0 .46-.265.687-.795.687h-2.223v6.575c0 .829.117 1.425.351 1.792.233.365.603.549 1.11.549h.134l.82-.038h.072c.266 0 .475.085.626.256.154.167.231.364.231.59 0 .201-.044.365-.132.488-.089.124-.225.216-.405.272-.18.055-.363.092-.543.108-.18.016-.416.024-.706.024h-.712c-.926 0-1.662-.3-2.21-.899M58.205 129.426c-.072-1.126-.39-2.046-.954-2.762-.564-.716-1.389-1.073-2.474-1.073-.564 0-1.074.108-1.533.324-.459.218-.834.51-1.129.876-.293.364-.526.77-.7 1.218-.172.445-.279.917-.32 1.417h7.11zm-6.421 6.37c-.894-.492-1.605-1.214-2.131-2.166-.526-.954-.79-2.065-.79-3.336 0-1.117.223-2.138.664-3.063.444-.924 1.111-1.676 2.004-2.256.894-.579 1.933-.869 3.125-.869.94 0 1.767.158 2.475.47.707.313 1.27.746 1.688 1.298.42.55.733 1.165.941 1.845.21.68.327 1.425.351 2.238 0 .234-.064.426-.193.58-.128.152-.322.227-.579.227h-8.278c.015 1.383.385 2.432 1.108 3.143.726.712 1.654 1.076 2.79 1.09.715 0 1.359-.127 1.93-.384.572-.258 1.145-.608 1.726-1.05.145-.112.298-.17.459-.17.191 0 .355.076.488.225.133.148.198.323.198.525 0 .257-.111.486-.337.688-1.27 1.14-2.808 1.712-4.61 1.712-1.126-.009-2.136-.258-3.03-.747zM63.455 136.06c-.21-.176-.314-.427-.314-.748v-9.951c0-.323.108-.569.326-.74.218-.176.475-.263.774-.263.295 0 .55.087.764.262.213.172.32.412.32.716l-.012 1.449c.201-.75.606-1.373 1.213-1.878.608-.501 1.337-.754 2.191-.754.256 0 .46.099.609.29.149.194.224.42.224.677 0 .24-.069.449-.205.621-.137.174-.334.259-.593.259-1.085 0-1.928.282-2.528.845-.6.562-.898 1.314-.898 2.255v6.212c0 .321-.112.572-.333.749-.221.175-.48.263-.779.263-.296 0-.55-.088-.759-.263M72.217 136.054c-.21-.18-.313-.437-.313-.766v-9.915c0-.322.108-.572.324-.752.218-.184.476-.274.774-.274.297 0 .552.087.765.26.214.172.322.417.322.73v1.05c.303-.733.805-1.295 1.501-1.69.695-.394 1.507-.59 2.431-.59 1.33 0 2.387.384 3.175 1.157.789.772 1.182 1.943 1.182 3.511v6.513c0 .329-.106.586-.32.766-.212.18-.468.27-.766.27-.297 0-.553-.09-.766-.27-.213-.18-.32-.437-.32-.766v-6.537c0-1.03-.239-1.814-.718-2.353-.478-.539-1.154-.808-2.022-.808-.923 0-1.705.33-2.341.99-.635.659-.98 1.555-1.036 2.688v6.02c0 .322-.113.575-.335.76-.22.185-.478.277-.777.277-.298 0-.55-.09-.76-.27M91.822 133.949c.697-.764 1.046-1.737 1.046-2.918v-.362c-1 0-1.812.018-2.44.054-.626.036-1.181.1-1.665.192-.482.093-.846.229-1.085.41-.243.183-.421.402-.538.658-.118.257-.175.586-.175.988 0 .734.218 1.27.652 1.612.433.342 1.027.51 1.774.51.925 0 1.736-.38 2.431-1.144m-5.737 1.689c-.789-.603-1.184-1.46-1.184-2.57 0-.458.05-.86.144-1.205.099-.346.235-.65.41-.91.179-.263.428-.484.75-.664.322-.182.675-.331 1.062-.448.386-.116.877-.204 1.472-.265.595-.059 1.208-.101 1.84-.126.633-.025 1.395-.038 2.289-.038V128.1c0-.862-.231-1.496-.689-1.907-.459-.41-1.098-.614-1.92-.614-.49 0-.981.052-1.473.155-.488.105-.877.21-1.157.315-.28.103-.628.249-1.038.432-.08.043-.177.061-.29.061-.208 0-.388-.085-.543-.259-.152-.172-.23-.362-.23-.572 0-.242.112-.426.339-.555 1.247-.7 2.73-1.05 4.453-1.05 1.472 0 2.627.342 3.458 1.025.832.684 1.249 1.739 1.249 3.16v7.034c0 .313-.11.56-.331.74-.222.18-.477.272-.768.272-.29 0-.536-.086-.742-.259-.205-.173-.307-.416-.307-.73v-1.158c-.749 1.567-1.986 2.352-3.717 2.352-1.264 0-2.29-.301-3.077-.904M99.034 136.041c-.209-.188-.313-.458-.313-.814v-15.041c0-.337.11-.603.332-.796.22-.192.48-.29.777-.29.29 0 .541.098.754.29.213.193.322.459.322.796v15.041c0 .338-.112.606-.335.803-.22.197-.478.295-.777.295-.298 0-.55-.095-.76-.284M111.514 134.517c-.099-.09-.146-.21-.146-.364 0-.256.123-.521.369-.795.246-.273.493-.41.742-.41.112 0 .213.034.3.098 1.369 1.06 2.954 1.59 4.757 1.59 1.176 0 2.135-.232 2.879-.7.744-.466 1.114-1.141 1.114-2.026 0-.426-.054-.79-.16-1.09-.11-.302-.29-.566-.544-.79-.254-.227-.541-.415-.864-.567-.322-.154-.74-.318-1.254-.495l-3.466-1.158c-1.278-.435-2.23-.98-2.859-1.642-.627-.659-.94-1.568-.94-2.726 0-.93.27-1.752.813-2.46.544-.707 1.275-1.243 2.198-1.603.92-.362 1.96-.544 3.118-.544 1.136 0 2.22.183 3.254.55 1.034.364 1.824.793 2.372 1.285.183.16.277.362.277.601 0 .25-.094.475-.277.677-.186.2-.407.301-.664.301-.187 0-.363-.056-.533-.169-.489-.32-1.107-.617-1.85-.886-.747-.27-1.54-.405-2.386-.405-1.206 0-2.172.222-2.895.664-.726.442-1.087 1.083-1.087 1.917 0 .627.187 1.129.563 1.502.372.375.97.698 1.79.972l3.477 1.122c.7.224 1.293.462 1.78.71.487.251.93.553 1.328.912.398.358.696.784.893 1.284.197.5.297 1.073.297 1.725 0 1.576-.582 2.803-1.746 3.68-1.162.875-2.741 1.314-4.738 1.314-2.454 0-4.424-.692-5.912-2.074M135.699 129.426c-.072-1.126-.389-2.046-.953-2.762-.563-.716-1.388-1.073-2.475-1.073-.564 0-1.073.108-1.53.324-.461.218-.837.51-1.13.876-.295.364-.526.77-.7 1.218-.172.445-.28.917-.32 1.417h7.108zm-6.42 6.37c-.893-.492-1.604-1.214-2.13-2.166-.527-.954-.79-2.065-.79-3.336 0-1.117.22-2.138.663-3.063.443-.924 1.11-1.676 2.004-2.256.893-.579 1.934-.869 3.126-.869.94 0 1.765.158 2.473.47.708.313 1.272.746 1.69 1.298.418.55.731 1.165.941 1.845.21.68.326 1.425.351 2.238 0 .234-.066.426-.193.58-.128.152-.322.227-.58.227h-8.279c.015 1.383.385 2.432 1.11 3.143.724.712 1.654 1.076 2.788 1.09.717 0 1.36-.127 1.931-.384.572-.258 1.146-.608 1.726-1.05.145-.112.299-.17.458-.17.193 0 .357.076.49.225.131.148.198.323.198.525 0 .257-.111.486-.338.688-1.27 1.14-2.808 1.712-4.61 1.712-1.127-.009-2.137-.258-3.028-.747zM140.95 136.06c-.21-.176-.314-.427-.314-.748v-9.951c0-.323.109-.569.327-.74.216-.176.473-.263.772-.263.296 0 .552.087.765.262.213.172.322.412.322.716l-.014 1.449c.202-.75.605-1.373 1.213-1.878.607-.501 1.336-.754 2.19-.754.258 0 .461.099.61.29.15.194.223.42.223.677 0 .24-.067.449-.205.621-.136.174-.332.259-.591.259-1.087 0-1.928.282-2.53.845-.598.562-.896 1.314-.896 2.255v6.212c0 .321-.114.572-.335.749-.22.175-.479.263-.777.263-.298 0-.55-.088-.76-.263M152.796 135.97c-.263-.245-.517-.666-.767-1.262l-3.766-9.01c-.047-.104-.072-.215-.072-.338 0-.274.115-.511.343-.716.23-.207.485-.31.767-.31.418 0 .716.231.893.688l3.693 9.083 3.682-9.083c.177-.457.474-.688.894-.688.28 0 .536.103.765.31.228.205.344.442.344.716 0 .123-.024.234-.072.337l-3.765 9.01c-.25.597-.507 1.018-.767 1.262-.263.244-.623.369-1.08.369-.466 0-.832-.125-1.092-.369M170.531 129.426c-.074-1.126-.39-2.046-.954-2.762-.564-.716-1.388-1.073-2.474-1.073-.563 0-1.073.108-1.532.324-.46.218-.835.51-1.13.876-.293.364-.526.77-.7 1.218-.172.445-.278.917-.32 1.417h7.11zm-6.42 6.37c-.894-.492-1.606-1.214-2.132-2.166-.526-.954-.79-2.065-.79-3.336 0-1.117.221-2.138.664-3.063.443-.924 1.111-1.676 2.003-2.256.894-.579 1.934-.869 3.126-.869.941 0 1.766.158 2.475.47.707.313 1.27.746 1.689 1.298.42.55.733 1.165.94 1.845.21.68.327 1.425.352 2.238 0 .234-.064.426-.194.58-.128.152-.321.227-.58.227h-8.278c.014 1.383.387 2.432 1.11 3.143.724.712 1.653 1.076 2.79 1.09.714 0 1.358-.127 1.929-.384.572-.258 1.146-.608 1.726-1.05.146-.112.298-.17.457-.17.194 0 .358.076.49.225.133.148.199.323.199.525 0 .257-.112.486-.338.688-1.27 1.14-2.808 1.712-4.61 1.712-1.127-.009-2.135-.258-3.029-.747zM175.78 136.06c-.208-.176-.313-.427-.313-.748v-9.951c0-.323.108-.569.326-.74.217-.176.474-.263.772-.263.297 0 .553.087.766.262.213.172.321.412.321.716l-.013 1.449c.202-.75.607-1.373 1.213-1.878.607-.501 1.338-.754 2.19-.754.257 0 .46.099.61.29.15.194.224.42.224.677 0 .24-.068.449-.206.621-.136.174-.333.259-.592.259-1.087 0-1.928.282-2.528.845-.6.562-.898 1.314-.898 2.255v6.212c0 .321-.111.572-.333.749-.22.175-.48.263-.778.263-.299 0-.551-.088-.76-.263M191.91 135.97c-.244-.238-.369-.512-.369-.826V120.27c0-.313.113-.588.335-.827.22-.236.491-.356.814-.356h8.942c.305 0 .545.095.712.284.17.188.254.416.254.681 0 .266-.084.495-.254.688-.167.192-.407.29-.712.29h-7.652v5.487h7.243c.313 0 .555.093.723.277.17.187.254.406.254.665 0 .257-.086.48-.26.67-.172.189-.412.284-.717.284h-7.243v5.97h7.966c.306 0 .544.096.713.29.168.191.254.42.254.686 0 .265-.086.493-.254.681-.17.189-.407.284-.713.284h-9.195c-.316 0-.595-.118-.84-.356M206.556 136.06c-.208-.176-.313-.427-.313-.748v-9.951c0-.323.108-.569.326-.74.218-.176.474-.263.772-.263.297 0 .553.087.766.262.213.172.321.412.321.716l-.013 1.449c.202-.75.606-1.373 1.213-1.878.608-.501 1.338-.754 2.192-.754.255 0 .459.099.608.29.149.194.224.42.224.677 0 .24-.068.449-.205.621-.137.174-.334.259-.593.259-1.085 0-1.928.282-2.528.845-.6.562-.898 1.314-.898 2.255v6.212c0 .321-.111.572-.333.749-.221.175-.48.263-.778.263-.299 0-.551-.088-.761-.263M215.343 136.06c-.21-.176-.313-.427-.313-.748v-9.951c0-.323.108-.569.324-.74.218-.176.476-.263.774-.263.297 0 .55.087.766.262.213.172.32.412.32.716l-.012 1.449c.201-.75.605-1.373 1.213-1.878.606-.501 1.336-.754 2.19-.754.257 0 .46.099.61.29.149.194.223.42.223.677 0 .24-.068.449-.205.621-.136.174-.333.259-.592.259-1.087 0-1.928.282-2.53.845-.598.562-.898 1.314-.898 2.255v6.212c0 .321-.111.572-.333.749-.22.175-.478.263-.777.263-.298 0-.55-.088-.76-.263M231.871 133.786c.68-.84 1.02-1.993 1.02-3.456 0-1.454-.344-2.608-1.033-3.461-.687-.852-1.634-1.278-2.84-1.278-1.215 0-2.166.424-2.85 1.271-.683.849-1.024 2.005-1.024 3.468 0 1.447.34 2.597 1.02 3.444.68.849 1.622 1.273 2.829 1.273 1.24 0 2.198-.42 2.878-1.261m-7.266 1.007c-1.09-1.166-1.635-2.654-1.635-4.463 0-1.818.544-3.309 1.635-4.475 1.09-1.165 2.562-1.749 4.412-1.749 1.851 0 3.32.58 4.41 1.744 1.092 1.161 1.636 2.654 1.636 4.48 0 1.809-.543 3.297-1.63 4.463-1.085 1.167-2.557 1.75-4.416 1.75-1.85 0-3.322-.583-4.412-1.75M238.105 136.06c-.21-.176-.313-.427-.313-.748v-9.951c0-.323.108-.569.326-.74.217-.176.474-.263.772-.263.297 0 .553.087.766.262.213.172.321.412.321.716l-.013 1.449c.202-.75.605-1.373 1.213-1.878.606-.501 1.336-.754 2.19-.754.257 0 .46.099.61.29.149.194.223.42.223.677 0 .24-.067.449-.205.621-.136.174-.333.259-.592.259-1.087 0-1.928.282-2.53.845-.598.562-.896 1.314-.896 2.255v6.212c0 .321-.113.572-.334.749-.22.175-.479.263-.777.263-.299 0-.551-.088-.761-.263M23.803 81.134c-1.326-1.201-1.988-2.705-1.988-4.51 0-1.885.693-3.62 2.077-5.204 1.385-1.584 2.939-2.375 4.663-2.375.562 0 1.126.1 1.687.301.562.2 1.105.501 1.624.901 5.418 4.21 11.195 6.314 17.334 6.314 4.695 0 8.306-1.23 10.835-3.698 2.528-2.465 3.79-6.105 3.79-10.916 0-4.611-1.352-8.21-4.062-10.798-2.708-2.586-6.11-3.879-10.201-3.879-4.693 0-9.229 1.643-13.602 4.933-.804.681-1.926 1.02-3.372 1.02-2.205 0-4.252-.74-6.138-2.224-1.886-1.483-2.827-3.49-2.827-6.014V10.818c0-3.408.821-5.733 2.468-6.978 1.641-1.243 4.392-1.864 8.244-1.864h36.23c1.968 0 3.541.601 4.727 1.805 1.181 1.203 1.773 2.848 1.773 4.932 0 2.085-.621 3.72-1.865 4.903-1.244 1.183-2.989 1.774-5.236 1.774H38.969l-.301 22.917 1.806-1.081c1.202-.723 3.188-1.445 5.959-2.168 2.767-.72 5.696-1.081 8.786-1.081 7.865 0 14.273 2.465 19.23 7.398 4.954 4.933 7.432 11.691 7.432 20.27 0 5.817-1.424 10.928-4.273 15.339-2.85 4.412-6.703 7.76-11.557 10.046-4.854 2.287-10.312 3.427-16.368 3.427-9.87 0-18.498-3.106-25.88-9.323M133.4 74.428c2.005-1.585 3.5-3.898 4.482-6.948.985-3.046 1.667-6.275 2.045-9.684.384-3.408.574-7.458.574-12.15 0-3.69-.1-6.927-.301-9.715-.202-2.785-.612-5.574-1.233-8.36-.623-2.787-1.456-5.072-2.498-6.858-1.045-1.784-2.448-3.228-4.213-4.332-1.767-1.1-3.874-1.653-6.32-1.653-2.045 0-3.85.36-5.415 1.083-1.568.723-2.87 1.796-3.913 3.22-1.045 1.421-1.918 3.027-2.618 4.811-.705 1.782-1.246 3.9-1.625 6.345-.382 2.446-.644 4.872-.783 7.277-.141 2.407-.21 5.135-.21 8.182 0 3.047.069 5.785.21 8.21.14 2.426.401 4.872.783 7.34.379 2.465.92 4.601 1.625 6.405.7 1.805 1.573 3.419 2.618 4.843 1.044 1.423 2.345 2.506 3.913 3.248 1.565.743 3.37 1.111 5.416 1.111 2.968 0 5.453-.791 7.463-2.375m-20.613 13.986c-3.874-1.604-7.064-3.78-9.57-6.529-2.508-2.746-4.585-6.061-6.23-9.952-1.645-3.89-2.81-7.992-3.49-12.302-.685-4.31-1.024-8.972-1.024-13.985 0-4.933.34-9.523 1.025-13.775.678-4.25 1.834-8.32 3.46-12.21 1.625-3.89 3.68-7.199 6.169-9.925 2.486-2.726 5.676-4.902 9.568-6.527C116.586 1.586 121 .773 125.937.773c4.853 0 9.199.793 13.03 2.376 3.83 1.584 7 3.73 9.507 6.437 2.51 2.706 4.595 5.996 6.262 9.864 1.663 3.871 2.848 7.95 3.551 12.241.7 4.29 1.052 8.944 1.052 13.955 0 4.972-.342 9.615-1.024 13.926-.682 4.31-1.846 8.41-3.49 12.3-1.646 3.89-3.723 7.207-6.228 9.954-2.51 2.748-5.69 4.933-9.54 6.557-3.85 1.625-8.226 2.436-13.12 2.436-4.897 0-9.28-.803-13.15-2.405M209.594 74.428c2.007-1.585 3.502-3.898 4.484-6.948.985-3.046 1.667-6.275 2.045-9.684.384-3.408.574-7.458.574-12.15 0-3.69-.101-6.927-.301-9.715-.202-2.785-.612-5.574-1.235-8.36-.621-2.787-1.454-5.072-2.496-6.858-1.045-1.784-2.448-3.228-4.215-4.332-1.765-1.1-3.872-1.653-6.317-1.653-2.046 0-3.853.36-5.416 1.083-1.568.723-2.87 1.796-3.913 3.22-1.045 1.421-1.918 3.027-2.618 4.811-.705 1.782-1.246 3.9-1.625 6.345-.382 2.446-.644 4.872-.783 7.277-.141 2.407-.212 5.135-.212 8.182 0 3.047.07 5.785.212 8.21.14 2.426.401 4.872.783 7.34.379 2.465.92 4.601 1.625 6.405.7 1.805 1.573 3.419 2.618 4.843 1.044 1.423 2.345 2.506 3.913 3.248 1.563.743 3.37 1.111 5.416 1.111 2.968 0 5.453-.791 7.461-2.375m-20.613 13.986c-3.874-1.604-7.062-3.78-9.568-6.529-2.508-2.746-4.585-6.061-6.23-9.952-1.645-3.89-2.81-7.992-3.491-12.302-.684-4.31-1.023-8.972-1.023-13.985 0-4.933.34-9.523 1.023-13.775.68-4.25 1.834-8.32 3.462-12.21 1.625-3.89 3.68-7.199 6.167-9.925 2.488-2.726 5.677-4.902 9.57-6.527 3.891-1.623 8.306-2.436 13.242-2.436 4.853 0 9.199.793 13.028 2.376 3.831 1.584 7.001 3.73 9.51 6.437 2.51 2.706 4.594 5.996 6.261 9.864 1.663 3.871 2.848 7.95 3.55 12.241.7 4.29 1.053 8.944 1.053 13.955 0 4.972-.342 9.615-1.024 13.926-.682 4.31-1.846 8.41-3.49 12.3-1.646 3.89-3.723 7.207-6.23 9.954-2.507 2.748-5.687 4.933-9.538 6.557-3.85 1.625-8.226 2.436-13.12 2.436-4.897 0-9.28-.803-13.152-2.405" transform="translate(-468 -192) translate(468 192) translate(432 219)"/>
                </g>
                <g transform="translate(-468 -192) translate(468 192)">
                    <path stroke="#1A2E35" stroke-linecap="round" stroke-linejoin="round" stroke-width="2.513" d="M187.363 470.15s15.593-3.09 28.976 7.203c13.384 10.297 23.569 36.463 28.825 73.089 5.259 36.625 8.238 52.5 39.123 57.646 30.885 5.146 105.008 3.088 149.278 2.058 44.27-1.03 42.21-42.204 5.148-46.323-37.064-4.117-62.707 5.773-101.36-2.774s34.442-19.87 90.036-11.636c55.592 8.233 80.3 10.293 110.155 7.204"/>
                    <path stroke="#1A2E35" stroke-linecap="round" stroke-linejoin="round" stroke-width="2.513" d="M187.363 415.349s30.005.24 38.24 31.124c8.238 30.882 11.327 74.116 12.355 108.086 1.03 33.97 2.06 62.794 41.18 71.027 39.123 8.237 145.162 5.148 173.989-1.027 28.823-6.177 60.74-33.97 37.06-40.147-23.677-6.177-56.622 0-44.268 8.235 12.353 8.235 45.3 6.175 84.42 1.03"/>
                    <path stroke="#1A2E35" stroke-linecap="round" stroke-linejoin="round" stroke-width="2.513" d="M193.517 522.814s18.33-1.595 25.502 19.125c7.172 20.719-1.593 25.5 2.39 35.86 3.987 10.358 29.129.688 29.015 9.268-.106 7.83-10.04 10.038-67.269 6.669-74.821-4.404-124.323 7.172-120.34 14.343 3.986 7.172 63.757 1.594 49.412 12.749-14.345 11.158-49.411-1.593-76.508-2.39-27.095-.797-31.878 5.58-31.878 5.58"/>
                    <path fill="#1A2E35" d="M195.738 230.118H15.576c-3.221 0-5.832 2.612-5.832 5.833V577.21c0 3.22 2.61 5.83 5.832 5.83h180.162c3.221 0 5.833-2.61 5.833-5.83V235.95c0-3.22-2.612-5.832-5.833-5.832"/>
                    <path stroke="#1A2E35" stroke-linecap="round" stroke-linejoin="round" stroke-width="1.257" d="M195.738 230.118H15.576c-3.221 0-5.832 2.612-5.832 5.833V577.21c0 3.22 2.61 5.83 5.832 5.83h180.162c3.221 0 5.833-2.61 5.833-5.83V235.95c0-3.22-2.612-5.832-5.833-5.832z"/>
                    <mask id="4t56xo37wh" fill="#fff">
                        <use xlink:href="#8ap716aslg"/>
                    </mask>
                    <path fill="#616161" d="M14.328 418.185L196.894 418.185 196.894 282.99 14.328 282.99zM14.328 575.339L196.894 575.339 196.894 440.145 14.328 440.145z" mask="url(#4t56xo37wh)"/>
                    <path fill="#0669F4" d="M70.607 562.3L174.244 562.3 174.244 456.616 70.607 456.616z" mask="url(#4t56xo37wh)"/>
                    <path stroke="#1A2E35" stroke-linecap="round" stroke-linejoin="round" stroke-width="1.257" d="M70.607 562.3L174.244 562.3 174.244 456.616 70.607 456.616z" mask="url(#4t56xo37wh)"/>
                    <path fill="#0669F4" d="M70.607 324.166L174.244 324.166 174.244 298.089 70.607 298.089z" mask="url(#4t56xo37wh)"/>
                    <path stroke="#1A2E35" stroke-linecap="round" stroke-linejoin="round" stroke-width="1.257" d="M70.607 324.166L174.244 324.166 174.244 298.089 70.607 298.089z" mask="url(#4t56xo37wh)"/>
                    <path fill="#0669F4" d="M70.607 374.264L174.244 374.264 174.244 348.185 70.607 348.185z" mask="url(#4t56xo37wh)"/>
                    <path stroke="#1A2E35" stroke-linecap="round" stroke-linejoin="round" stroke-width="1.257" d="M70.607 374.264L174.244 374.264 174.244 348.185 70.607 348.185z" mask="url(#4t56xo37wh)"/>
                    <path fill="#1A2E35" d="M170.777 286.016L168.775 291.497 76.961 291.497 74.958 286.016 55.507 286.016 55.507 310.129 74.958 310.129 76.961 304.648 168.775 304.648 170.777 310.129 192.801 310.129 192.801 286.016z" mask="url(#4t56xo37wh)"/>
                    <path stroke="#1A2E35" stroke-linecap="round" stroke-linejoin="round" stroke-width="1.257" d="M170.777 286.016L168.775 291.497 76.961 291.497 74.958 286.016 55.507 286.016 55.507 310.129 74.958 310.129 76.961 304.648 168.775 304.648 170.777 310.129 192.801 310.129 192.801 286.016z" mask="url(#4t56xo37wh)"/>
                    <path fill="#1A2E35" d="M170.777 312.321L168.775 317.8 76.961 317.8 74.958 312.321 55.507 312.321 55.507 336.434 74.958 336.434 76.961 330.954 168.775 330.954 170.777 336.434 192.801 336.434 192.801 312.321z" mask="url(#4t56xo37wh)"/>
                    <path stroke="#1A2E35" stroke-linecap="round" stroke-linejoin="round" stroke-width="1.257" d="M170.777 312.321L168.775 317.8 76.961 317.8 74.958 312.321 55.507 312.321 55.507 336.434 74.958 336.434 76.961 330.954 168.775 330.954 170.777 336.434 192.801 336.434 192.801 312.321z" mask="url(#4t56xo37wh)"/>
                    <path fill="#1A2E35" d="M170.777 338.626L168.775 344.106 76.961 344.106 74.958 338.626 55.507 338.626 55.507 362.739 74.958 362.739 76.961 357.258 168.775 357.258 170.777 362.739 192.801 362.739 192.801 338.626z" mask="url(#4t56xo37wh)"/>
                    <path stroke="#1A2E35" stroke-linecap="round" stroke-linejoin="round" stroke-width="1.257" d="M170.777 338.626L168.775 344.106 76.961 344.106 74.958 338.626 55.507 338.626 55.507 362.739 74.958 362.739 76.961 357.258 168.775 357.258 170.777 362.739 192.801 362.739 192.801 338.626z" mask="url(#4t56xo37wh)"/>
                    <path fill="#1A2E35" d="M170.777 364.931L168.775 370.411 76.961 370.411 74.958 364.931 55.507 364.931 55.507 389.044 74.958 389.044 76.961 383.563 168.775 383.563 170.777 389.044 192.801 389.044 192.801 364.931z" mask="url(#4t56xo37wh)"/>
                    <path stroke="#1A2E35" stroke-linecap="round" stroke-linejoin="round" stroke-width="1.257" d="M170.777 364.931L168.775 370.411 76.961 370.411 74.958 364.931 55.507 364.931 55.507 389.044 74.958 389.044 76.961 383.563 168.775 383.563 170.777 389.044 192.801 389.044 192.801 364.931z" mask="url(#4t56xo37wh)"/>
                    <path fill="#1A2E35" d="M170.777 392.236L168.775 397.716 76.961 397.716 74.958 392.236 55.507 392.236 55.507 416.349 74.958 416.349 76.961 410.868 168.775 410.868 170.777 416.349 192.801 416.349 192.801 392.236z" mask="url(#4t56xo37wh)"/>
                    <path stroke="#1A2E35" stroke-linecap="round" stroke-linejoin="round" stroke-width="1.257" d="M170.777 391.236L168.775 396.716 76.961 396.716 74.958 391.236 55.507 391.236 55.507 415.349 74.958 415.349 76.961 409.868 168.775 409.868 170.777 415.349 192.801 415.349 192.801 391.236z" mask="url(#4t56xo37wh)"/>
                    <path fill="#1A2E35" d="M170.777 443.846L168.775 449.326 76.961 449.326 74.958 443.846 55.507 443.846 55.507 467.957 74.958 467.957 76.961 462.477 168.775 462.477 170.777 467.957 192.801 467.957 192.801 443.846z" mask="url(#4t56xo37wh)"/>
                    <path stroke="#1A2E35" stroke-linecap="round" stroke-linejoin="round" stroke-width="1.257" d="M170.777 443.846L168.775 449.326 76.961 449.326 74.958 443.846 55.507 443.846 55.507 467.957 74.958 467.957 76.961 462.477 168.775 462.477 170.777 467.957 192.801 467.957 192.801 443.846z" mask="url(#4t56xo37wh)"/>
                    <path fill="#1A2E35" d="M170.777 470.149L168.775 475.63 76.961 475.63 74.958 470.149 55.507 470.149 55.507 494.262 74.958 494.262 76.961 488.782 168.775 488.782 170.777 494.262 192.801 494.262 192.801 470.149z" mask="url(#4t56xo37wh)"/>
                    <path stroke="#1A2E35" stroke-linecap="round" stroke-linejoin="round" stroke-width="1.257" d="M170.777 470.149L168.775 475.63 76.961 475.63 74.958 470.149 55.507 470.149 55.507 494.262 74.958 494.262 76.961 488.782 168.775 488.782 170.777 494.262 192.801 494.262 192.801 470.149z" mask="url(#4t56xo37wh)"/>
                    <path fill="#1A2E35" d="M170.777 496.454L168.775 501.935 76.961 501.935 74.958 496.454 55.507 496.454 55.507 520.567 74.958 520.567 76.961 515.087 168.775 515.087 170.777 520.567 192.801 520.567 192.801 496.454z" mask="url(#4t56xo37wh)"/>
                    <path stroke="#1A2E35" stroke-linecap="round" stroke-linejoin="round" stroke-width="1.257" d="M170.777 496.454L168.775 501.935 76.961 501.935 74.958 496.454 55.507 496.454 55.507 520.567 74.958 520.567 76.961 515.087 168.775 515.087 170.777 520.567 192.801 520.567 192.801 496.454z" mask="url(#4t56xo37wh)"/>
                    <path fill="#1A2E35" d="M170.777 522.759L168.775 528.24 76.961 528.24 74.958 522.759 55.507 522.759 55.507 546.872 74.958 546.872 76.961 541.392 168.775 541.392 170.777 546.872 192.801 546.872 192.801 522.759z" mask="url(#4t56xo37wh)"/>
                    <path stroke="#1A2E35" stroke-linecap="round" stroke-linejoin="round" stroke-width="1.257" d="M170.777 522.759L168.775 528.24 76.961 528.24 74.958 522.759 55.507 522.759 55.507 546.872 74.958 546.872 76.961 541.392 168.775 541.392 170.777 546.872 192.801 546.872 192.801 522.759z" mask="url(#4t56xo37wh)"/>
                    <path fill="#1A2E35" d="M170.777 549.064L168.775 554.545 76.961 554.545 74.958 549.064 55.507 549.064 55.507 573.177 74.958 573.177 76.961 567.697 168.775 567.697 170.777 573.177 192.801 573.177 192.801 549.064z" mask="url(#4t56xo37wh)"/>
                    <path stroke="#1A2E35" stroke-linecap="round" stroke-linejoin="round" stroke-width="1.257" d="M170.777 549.064L168.775 554.545 76.961 554.545 74.958 549.064 55.507 549.064 55.507 573.177 74.958 573.177 76.961 567.697 168.775 567.697 170.777 573.177 192.801 573.177 192.801 549.064z" mask="url(#4t56xo37wh)"/>
                    <path fill="#FFF" d="M18.004 438.855L192.758 438.855 192.758 422.384 18.004 422.384z" mask="url(#4t56xo37wh)"/>
                    <path fill="#1A2E35" d="M32.745 430.442c0-2.543-2.062-4.606-4.607-4.606-2.543 0-4.604 2.063-4.604 4.606 0 2.545 2.061 4.606 4.604 4.606 2.545 0 4.607-2.061 4.607-4.606" mask="url(#4t56xo37wh)"/>
                    <path stroke="#1A2E35" stroke-linecap="round" stroke-linejoin="round" stroke-width="1.257" d="M32.745 430.442c0-2.543-2.062-4.606-4.607-4.606-2.543 0-4.604 2.063-4.604 4.606 0 2.545 2.061 4.606 4.604 4.606 2.545 0 4.607-2.061 4.607-4.606z" mask="url(#4t56xo37wh)"/>
                    <path fill="#0669F4" d="M48.088 430.442c0-2.543-2.062-4.606-4.607-4.606-2.543 0-4.604 2.063-4.604 4.606 0 2.545 2.061 4.606 4.604 4.606 2.545 0 4.607-2.061 4.607-4.606" mask="url(#4t56xo37wh)"/>
                    <path stroke="#1A2E35" stroke-linecap="round" stroke-linejoin="round" stroke-width="1.257" d="M48.088 430.442c0-2.543-2.062-4.606-4.607-4.606-2.543 0-4.604 2.063-4.604 4.606 0 2.545 2.061 4.606 4.604 4.606 2.545 0 4.607-2.061 4.607-4.606z" mask="url(#4t56xo37wh)"/>
                    <path fill="#1A2E35" d="M63.43 430.442c0-2.543-2.06-4.606-4.606-4.606-2.543 0-4.604 2.063-4.604 4.606 0 2.545 2.061 4.606 4.604 4.606 2.545 0 4.607-2.061 4.607-4.606" mask="url(#4t56xo37wh)"/>
                    <path stroke="#1A2E35" stroke-linecap="round" stroke-linejoin="round" stroke-width="1.257" d="M63.43 430.442c0-2.543-2.06-4.606-4.606-4.606-2.543 0-4.604 2.063-4.604 4.606 0 2.545 2.061 4.606 4.604 4.606 2.545 0 4.607-2.061 4.607-4.606z" mask="url(#4t56xo37wh)"/>
                    <path fill="#FFF" d="M18.004 281.014L192.758 281.014 192.758 264.543 18.004 264.543z" mask="url(#4t56xo37wh)"/>
                    <path fill="#FFF" d="M32.745 272.602c0-2.543-2.062-4.606-4.607-4.606-2.543 0-4.604 2.063-4.604 4.606 0 2.543 2.061 4.606 4.604 4.606 2.545 0 4.607-2.063 4.607-4.606" mask="url(#4t56xo37wh)"/>
                    <path stroke="#1A2E35" stroke-linecap="round" stroke-linejoin="round" stroke-width="1.257" d="M32.745 272.602c0-2.543-2.062-4.606-4.607-4.606-2.543 0-4.604 2.063-4.604 4.606 0 2.543 2.061 4.606 4.604 4.606 2.545 0 4.607-2.063 4.607-4.606z" mask="url(#4t56xo37wh)"/>
                    <path fill="#0669F4" d="M48.088 272.602c0-2.543-2.062-4.606-4.607-4.606-2.543 0-4.604 2.063-4.604 4.606 0 2.543 2.061 4.606 4.604 4.606 2.545 0 4.607-2.063 4.607-4.606" mask="url(#4t56xo37wh)"/>
                    <path stroke="#1A2E35" stroke-linecap="round" stroke-linejoin="round" stroke-width="1.257" d="M48.088 272.602c0-2.543-2.062-4.606-4.607-4.606-2.543 0-4.604 2.063-4.604 4.606 0 2.543 2.061 4.606 4.604 4.606 2.545 0 4.607-2.063 4.607-4.606z" mask="url(#4t56xo37wh)"/>
                    <path fill="#FFF" d="M63.43 272.602c0-2.543-2.06-4.606-4.606-4.606-2.543 0-4.604 2.063-4.604 4.606 0 2.543 2.061 4.606 4.604 4.606 2.545 0 4.607-2.063 4.607-4.606" mask="url(#4t56xo37wh)"/>
                    <path stroke="#1A2E35" stroke-linecap="round" stroke-linejoin="round" stroke-width="1.257" d="M63.43 272.602c0-2.543-2.06-4.606-4.606-4.606-2.543 0-4.604 2.063-4.604 4.606 0 2.543 2.061 4.606 4.604 4.606 2.545 0 4.607-2.063 4.607-4.606z" mask="url(#4t56xo37wh)"/>
                    <path fill="#FFF" d="M18.004 259.834L192.758 259.834 192.758 243.362 18.004 243.362z" mask="url(#4t56xo37wh)"/>
                    <path fill="#0669F4" d="M32.745 251.422c0-2.543-2.062-4.606-4.607-4.606-2.543 0-4.604 2.063-4.604 4.606 0 2.543 2.061 4.605 4.604 4.605 2.545 0 4.607-2.062 4.607-4.605" mask="url(#4t56xo37wh)"/>
                    <path stroke="#1A2E35" stroke-linecap="round" stroke-linejoin="round" stroke-width="1.257" d="M32.745 251.422c0-2.543-2.062-4.606-4.607-4.606-2.543 0-4.604 2.063-4.604 4.606 0 2.543 2.061 4.605 4.604 4.605 2.545 0 4.607-2.062 4.607-4.605z" mask="url(#4t56xo37wh)"/>
                    <path fill="#1A2E35" d="M48.088 251.422c0-2.543-2.062-4.606-4.607-4.606-2.543 0-4.604 2.063-4.604 4.606 0 2.543 2.061 4.605 4.604 4.605 2.545 0 4.607-2.062 4.607-4.605" mask="url(#4t56xo37wh)"/>
                    <path stroke="#1A2E35" stroke-linecap="round" stroke-linejoin="round" stroke-width="1.257" d="M48.088 251.422c0-2.543-2.062-4.606-4.607-4.606-2.543 0-4.604 2.063-4.604 4.606 0 2.543 2.061 4.605 4.604 4.605 2.545 0 4.607-2.062 4.607-4.605z" mask="url(#4t56xo37wh)"/>
                    <path fill="#1A2E35" d="M63.43 251.422c0-2.543-2.06-4.606-4.606-4.606-2.543 0-4.604 2.063-4.604 4.606 0 2.543 2.061 4.605 4.604 4.605 2.545 0 4.607-2.062 4.607-4.605" mask="url(#4t56xo37wh)"/>
                    <path stroke="#1A2E35" stroke-linecap="round" stroke-linejoin="round" stroke-width="1.257" d="M63.43 251.422c0-2.543-2.06-4.606-4.606-4.606-2.543 0-4.604 2.063-4.604 4.606 0 2.543 2.061 4.605 4.604 4.605 2.545 0 4.607-2.062 4.607-4.605z" mask="url(#4t56xo37wh)"/>
                    <path fill="#1A2E35" d="M18.446 298.773L47.271 298.773 47.271 286.421 18.446 286.421z" mask="url(#4t56xo37wh)"/>
                    <path stroke="#1A2E35" stroke-linecap="round" stroke-linejoin="round" stroke-width="1.257" d="M18.446 298.773L47.271 298.773 47.271 286.421 18.446 286.421z" mask="url(#4t56xo37wh)"/>
                    <path fill="#1A2E35" d="M18.446 325.538L47.271 325.538 47.271 313.185 18.446 313.185z" mask="url(#4t56xo37wh)"/>
                    <path stroke="#1A2E35" stroke-linecap="round" stroke-linejoin="round" stroke-width="1.257" d="M18.446 325.538L47.271 325.538 47.271 313.185 18.446 313.185z" mask="url(#4t56xo37wh)"/>
                    <path fill="#0669F4" d="M18.446 352.304L47.271 352.304 47.271 339.951 18.446 339.951z" mask="url(#4t56xo37wh)"/>
                    <path stroke="#1A2E35" stroke-linecap="round" stroke-linejoin="round" stroke-width="1.257" d="M18.446 352.304L47.271 352.304 47.271 339.951 18.446 339.951z" mask="url(#4t56xo37wh)"/>
                    <path fill="#0669F4" d="M18.446 379.068L47.271 379.068 47.271 366.716 18.446 366.716z" mask="url(#4t56xo37wh)"/>
                    <path stroke="#1A2E35" stroke-linecap="round" stroke-linejoin="round" stroke-width="1.257" d="M18.446 379.068L47.271 379.068 47.271 366.716 18.446 366.716z" mask="url(#4t56xo37wh)"/>
                    <path fill="#0669F4" d="M18.446 405.832L47.271 405.832 47.271 393.48 18.446 393.48z" mask="url(#4t56xo37wh)"/>
                    <path stroke="#1A2E35" stroke-linecap="round" stroke-linejoin="round" stroke-width="1.257" d="M18.446 405.832L47.271 405.832 47.271 393.48 18.446 393.48z" mask="url(#4t56xo37wh)"/>
                    <path fill="#0669F4" d="M18.446 455.93L47.271 455.93 47.271 443.576 18.446 443.576z" mask="url(#4t56xo37wh)"/>
                    <path stroke="#1A2E35" stroke-linecap="round" stroke-linejoin="round" stroke-width="1.257" d="M18.446 455.93L47.271 455.93 47.271 443.576 18.446 443.576z" mask="url(#4t56xo37wh)"/>
                    <path fill="#1A2E35" d="M18.446 482.694L47.271 482.694 47.271 470.342 18.446 470.342z" mask="url(#4t56xo37wh)"/>
                    <path stroke="#1A2E35" stroke-linecap="round" stroke-linejoin="round" stroke-width="1.257" d="M18.446 482.694L47.271 482.694 47.271 470.342 18.446 470.342z" mask="url(#4t56xo37wh)"/>
                    <path fill="#0669F4" d="M18.446 509.458L47.271 509.458 47.271 497.106 18.446 497.106z" mask="url(#4t56xo37wh)"/>
                    <path stroke="#1A2E35" stroke-linecap="round" stroke-linejoin="round" stroke-width="1.257" d="M18.446 509.458L47.271 509.458 47.271 497.106 18.446 497.106z" mask="url(#4t56xo37wh)"/>
                    <path fill="#1A2E35" d="M18.446 536.223L47.271 536.223 47.271 523.87 18.446 523.87z" mask="url(#4t56xo37wh)"/>
                    <path stroke="#1A2E35" stroke-linecap="round" stroke-linejoin="round" stroke-width="1.257" d="M18.446 536.223L47.271 536.223 47.271 523.87 18.446 523.87z" mask="url(#4t56xo37wh)"/>
                    <path fill="#0669F4" d="M18.446 562.987L47.271 562.987 47.271 550.634 18.446 550.634z" mask="url(#4t56xo37wh)"/>
                    <path stroke="#1A2E35" stroke-linecap="round" stroke-linejoin="round" stroke-width="1.257" d="M18.446 562.987L47.271 562.987 47.271 550.634 18.446 550.634z" mask="url(#4t56xo37wh)"/>
                </g>
                <g>
                    <path fill="#BEBEBE" d="M84.56 118.37s-27.642 7.044-35.317 17.552c-7.675 10.506-38.781 82.032-38.781 82.032s-10.098 11.315.808 22.227c10.908 10.91 32.722 14.952 40.8 5.253 8.08-9.7 19.795-55.361 21.41-60.616 1.616-5.253 13.735-49.705 14.947-52.128 1.212-2.426 2.365-12.88-3.867-14.32" transform="translate(-468 -192) translate(468 192) translate(204 36)"/>
                    <path stroke="#1A2E35" stroke-linecap="round" stroke-linejoin="round" stroke-width="1.257" d="M84.56 118.37s-27.642 7.044-35.317 17.552c-7.675 10.506-38.781 82.032-38.781 82.032s-10.098 11.315.808 22.227c10.908 10.91 32.722 14.952 40.8 5.253 8.08-9.7 19.795-55.361 21.41-60.616 1.616-5.253 13.735-49.705 14.947-52.128 1.212-2.426 2.365-12.88-3.867-14.32z" transform="translate(-468 -192) translate(468 192) translate(204 36)"/>
                    <path fill="#1A2E35" d="M84.56 118.37s-27.642 7.044-35.317 17.552c-4.645 6.357-17.868 35.06-27.587 56.734 4.719-.956 24.399-3.871 47.44 7.746 2.226-7.75 3.853-13.857 4.384-15.584 1.616-5.253 13.735-49.705 14.947-52.128 1.212-2.426 2.365-12.88-3.867-14.32" transform="translate(-468 -192) translate(468 192) translate(204 36)"/>
                    <path stroke="#1A2E35" stroke-linecap="round" stroke-linejoin="round" stroke-width="1.257" d="M84.56 118.37s-27.642 7.044-35.317 17.552c-4.645 6.357-17.868 35.06-27.587 56.734 4.719-.956 24.399-3.871 47.44 7.746 2.226-7.75 3.853-13.857 4.384-15.584 1.616-5.253 13.735-49.705 14.947-52.128 1.212-2.426 2.365-12.88-3.867-14.32z" transform="translate(-468 -192) translate(468 192) translate(204 36)"/>
                    <path fill="#BEBEBE" d="M165.583 25.197s7.677 4.04 10.908 11.72c3.23 7.676 3.23 19.397 3.23 19.397s51.708-1.618 71.503-2.022c19.793-.403 33.125 4.445 33.528 14.144.404 9.699-4.04 28.692-14.945 35.965-10.91 7.274-44.841-4.445-62.212-9.294-17.37-4.85-23.429-3.232-35.952-4.85-12.521-1.616-16.157-6.465-18.178-14.143-2.02-7.678 2.02-22.225 2.02-33.944 0-11.72-1.616-19.398 10.098-16.973" transform="translate(-468 -192) translate(468 192) translate(204 36)"/>
                    <path stroke="#1A2E35" stroke-linecap="round" stroke-linejoin="round" stroke-width="1.257" d="M165.583 25.197s7.677 4.04 10.908 11.72c3.23 7.676 3.23 19.397 3.23 19.397s51.708-1.618 71.503-2.022c19.793-.403 33.125 4.445 33.528 14.144.404 9.699-4.04 28.692-14.945 35.965-10.91 7.274-44.841-4.445-62.212-9.294-17.37-4.85-23.429-3.232-35.952-4.85-12.521-1.616-16.157-6.465-18.178-14.143-2.02-7.678 2.02-22.225 2.02-33.944 0-11.72-1.616-19.398 10.098-16.973z" transform="translate(-468 -192) translate(468 192) translate(204 36)"/>
                    <g>
                        <path fill="#BEBEBE" d="M183.084 2.076s-7.272 18.59-20.601 28.69c-9.568 7.252-22.465 11.38-28.983 13.133-23.294-6.526-56.197-9.645-75.435-5.368 0 0-26.871 6.428-31.545 7.012-4.672.584-15.772 37.984-18.109 63.697-2.337 25.713 5.258 89.41 5.258 94.084 0 4.676 2.92 82.397 7.595 104.02 4.672 21.62 9.93 50.84 10.514 54.93.585 4.091 4.674 34.48 4.674 44.412 0 9.935-4.674 33.896-4.674 33.896s-21.03 14.023-29.209 22.205c-8.178 8.181 6.018 16.788 16.358 18.7 17.622 3.257 38.555-14.026 38.555-14.026l23.365-9.348c6.22-2.489 8.055-9.173 8.208-15.16.364-14.423.728-28.845 1.094-43.268 3.672 15.331 6.69 30.819 9.04 46.407.962 6.394 1.933 13.107 5.797 18.291 1.951 2.62 5.107 5.801 8.108 7.202 2.325 1.086 4.799.857 7.137 2.205 4.313 2.486 6.091 7.88 10.278 10.574 8.23 5.296 20.118 8.029 29.786 7.642 0 0 23.368 1.168 24.534-11.688 1.17-12.857-30.376-33.894-30.376-33.894s-4.674-85.319-8.177-113.368c-3.506-28.05-12.853-73.63-12.853-93.501 0-19.868 9.347-113.368 9.347-113.368s.953-2.465 2.415-6.475c.51-.27 1.025-.551 1.544-.85 13.33-7.678 50.494-37.582 62.613-56.575 11.603-18.183 15.8-52.292 16.136-62.26" transform="translate(-468 -192) translate(468 192) translate(204 36) translate(58.04 72.826)"/>
                        <path stroke="#1A2E35" stroke-linecap="round" stroke-linejoin="round" stroke-width="1.257" d="M183.084 2.076s-7.272 18.59-20.601 28.69c-9.568 7.252-22.465 11.38-28.983 13.133-23.294-6.526-56.197-9.645-75.435-5.368 0 0-26.871 6.428-31.545 7.012-4.672.584-15.772 37.984-18.109 63.697-2.337 25.713 5.258 89.41 5.258 94.084 0 4.676 2.92 82.397 7.595 104.02 4.672 21.62 9.93 50.84 10.514 54.93.585 4.091 4.674 34.48 4.674 44.412 0 9.935-4.674 33.896-4.674 33.896s-21.03 14.023-29.209 22.205c-8.178 8.181 6.018 16.788 16.358 18.7 17.622 3.257 38.555-14.026 38.555-14.026l23.365-9.348c6.22-2.489 8.055-9.173 8.208-15.16.364-14.423.728-28.845 1.094-43.268 3.672 15.331 6.69 30.819 9.04 46.407.962 6.394 1.933 13.107 5.797 18.291 1.951 2.62 5.107 5.801 8.108 7.202 2.325 1.086 4.799.857 7.137 2.205 4.313 2.486 6.091 7.88 10.278 10.574 8.23 5.296 20.118 8.029 29.786 7.642 0 0 23.368 1.168 24.534-11.688 1.17-12.857-30.376-33.894-30.376-33.894s-4.674-85.319-8.177-113.368c-3.506-28.05-12.853-73.63-12.853-93.501 0-19.868 9.347-113.368 9.347-113.368s.953-2.465 2.415-6.475c.51-.27 1.025-.551 1.544-.85 13.33-7.678 50.494-37.582 62.613-56.575 11.603-18.183 15.8-52.292 16.136-62.26" transform="translate(-468 -192) translate(468 192) translate(204 36) translate(58.04 72.826)"/>
                    </g>
                    <path fill="#1A2E35" d="M242.87 553.145c1.17-12.858-30.376-33.895-30.376-33.895s-.361-6.572-.955-16.647c-19.775 4.8-38.746 6.544-55.896 6.525.553 3.26 1.092 6.523 1.584 9.79.963 6.394 1.936 13.107 5.798 18.292 1.953 2.62 5.108 5.799 8.11 7.202 2.327 1.086 4.798.854 7.135 2.205 4.313 2.485 6.091 7.878 10.28 10.573 8.228 5.294 20.118 8.028 29.785 7.642 0 0 23.367 1.168 24.535-11.687" transform="translate(-468 -192) translate(468 192) translate(204 36)"/>
                    <path stroke="#1A2E35" stroke-linecap="round" stroke-linejoin="round" stroke-width="1.257" d="M242.87 553.145c1.17-12.858-30.376-33.895-30.376-33.895s-.361-6.572-.955-16.647c-19.775 4.8-38.746 6.544-55.896 6.525.553 3.26 1.092 6.523 1.584 9.79.963 6.394 1.936 13.107 5.798 18.292 1.953 2.62 5.108 5.799 8.11 7.202 2.327 1.086 4.798.854 7.135 2.205 4.313 2.485 6.091 7.878 10.28 10.573 8.228 5.294 20.118 8.028 29.785 7.642 0 0 23.367 1.168 24.535-11.687z" transform="translate(-468 -192) translate(468 192) translate(204 36)"/>
                    <path fill="#1A2E35" d="M138.886 530.94c6.22-2.491 8.057-9.173 8.208-15.161l.172-6.784c-23.512-.803-42.912-4.704-55.258-7.91-1.118 6.82-2.19 12.321-2.19 12.321s-21.03 14.026-29.208 22.207c-8.178 8.182 6.016 16.788 16.356 18.7 17.624 3.256 38.555-14.026 38.555-14.026l23.365-9.348" transform="translate(-468 -192) translate(468 192) translate(204 36)"/>
                    <path stroke="#1A2E35" stroke-linecap="round" stroke-linejoin="round" stroke-width="1.257" d="M138.886 530.94c6.22-2.491 8.057-9.173 8.208-15.161l.172-6.784c-23.512-.803-42.912-4.704-55.258-7.91-1.118 6.82-2.19 12.321-2.19 12.321s-21.03 14.026-29.208 22.207c-8.178 8.182 6.016 16.788 16.356 18.7 17.624 3.256 38.555-14.026 38.555-14.026l23.365-9.348z" transform="translate(-468 -192) translate(468 192) translate(204 36)"/>
                    <path fill="#FFF" d="M242.87 553.145c.018-.19.005-.384.008-.576-3.611 2.72-9.146 5.584-17.409 7.053-18.463 3.284-35.284-6.156-39.797-10.26-4.514-4.105-7.385-7.388-14.36-11.903-6.975-4.515-13.306-15.613-13.306-15.613l-.257.401c.87 5.337 2.08 10.672 5.276 14.963 1.953 2.62 5.108 5.799 8.11 7.202 2.327 1.086 4.798.854 7.135 2.205 4.313 2.485 6.091 7.878 10.28 10.573 8.228 5.294 20.118 8.028 29.785 7.642 0 0 23.367 1.168 24.535-11.687" transform="translate(-468 -192) translate(468 192) translate(204 36)"/>
                    <path stroke="#1A2E35" stroke-linecap="round" stroke-linejoin="round" stroke-width="1.257" d="M242.87 553.145c.018-.19.005-.384.008-.576-3.611 2.72-9.146 5.584-17.409 7.053-18.463 3.284-35.284-6.156-39.797-10.26-4.514-4.105-7.385-7.388-14.36-11.903-6.975-4.515-13.306-15.613-13.306-15.613l-.257.401c.87 5.337 2.08 10.672 5.276 14.963 1.953 2.62 5.108 5.799 8.11 7.202 2.327 1.086 4.798.854 7.135 2.205 4.313 2.485 6.091 7.878 10.28 10.573 8.228 5.294 20.118 8.028 29.785 7.642 0 0 23.367 1.168 24.535-11.687z" transform="translate(-468 -192) translate(468 192) translate(204 36)"/>
                    <path fill="#FFF" d="M138.886 530.94c5.422-2.17 7.511-7.526 8.059-12.83-5.365 3.202-17.81 10.452-25.687 13.603-10.257 4.105-17.232 16.418-37.337 16.418-14.335 0-22.179-5.62-25.513-8.856-1.778 6.936 9.76 13.412 18.558 15.037 17.624 3.257 38.555-14.025 38.555-14.025l23.365-9.348" transform="translate(-468 -192) translate(468 192) translate(204 36)"/>
                    <path stroke="#1A2E35" stroke-linecap="round" stroke-linejoin="round" stroke-width="1.257" d="M138.886 530.94c5.422-2.17 7.511-7.526 8.059-12.83-5.365 3.202-17.81 10.452-25.687 13.603-10.257 4.105-17.232 16.418-37.337 16.418-14.335 0-22.179-5.62-25.513-8.856-1.778 6.936 9.76 13.412 18.558 15.037 17.624 3.257 38.555-14.025 38.555-14.025l23.365-9.348z" transform="translate(-468 -192) translate(468 192) translate(204 36)"/>
                    <path fill="#1A2E35" d="M214.774 107.392c-8.49 4.934-17.953 7.913-23.234 9.332-23.293-6.525-56.198-9.643-75.435-5.366 0 0-26.87 6.426-31.544 7.011-4.674.584-15.774 37.985-18.109 63.698-1.443 15.869.897 46.197 2.901 68.197 48.68 17.85 100.601 11.728 125.99 6.864 2.57-29.125 5.466-58.116 5.466-58.116s.953-2.464 2.416-6.475c.511-.271 1.025-.552 1.543-.848 9.058-5.217 29.108-20.691 44.84-36.034-31.57-9.164-35.4-34.07-34.834-48.263" transform="translate(-468 -192) translate(468 192) translate(204 36)"/>
                    <path stroke="#1A2E35" stroke-linecap="round" stroke-linejoin="round" stroke-width="1.257" d="M214.774 107.392c-8.49 4.934-17.953 7.913-23.234 9.332-23.293-6.525-56.198-9.643-75.435-5.366 0 0-26.87 6.426-31.544 7.011-4.674.584-15.774 37.985-18.109 63.698-1.443 15.869.897 46.197 2.901 68.197 48.68 17.85 100.601 11.728 125.99 6.864 2.57-29.125 5.466-58.116 5.466-58.116s.953-2.464 2.416-6.475c.511-.271 1.025-.552 1.543-.848 9.058-5.217 29.108-20.691 44.84-36.034-31.57-9.164-35.4-34.07-34.834-48.263z" transform="translate(-468 -192) translate(468 192) translate(204 36)"/>
                    <path fill="#616161" d="M169.5 135.276c0-9.967-5.159-18.88-13.283-24.932-14.92-1.442-29.57-1.33-40.111 1.012 0 0-7.426 1.777-15.15 3.547-5.136 5.612-8.225 12.677-8.225 20.373 0 18.227 17.185 33.003 38.385 33.003s38.385-14.776 38.385-33.003" transform="translate(-468 -192) translate(468 192) translate(204 36)"/>
                    <path stroke="#1A2E35" stroke-linecap="round" stroke-linejoin="round" stroke-width="1.257" d="M169.5 135.276c0-9.967-5.159-18.88-13.283-24.932-14.92-1.442-29.57-1.33-40.111 1.012 0 0-7.426 1.777-15.15 3.547-5.136 5.612-8.225 12.677-8.225 20.373 0 18.227 17.185 33.003 38.385 33.003s38.385-14.776 38.385-33.003z" transform="translate(-468 -192) translate(468 192) translate(204 36)"/>
                    <path fill="#FFF" d="M158.006 521.845c5.005 1.872 14.329 4.399 27.324 3.834 20.153-.877 27.164-6.429 27.164-6.429s-4.674-85.318-8.18-113.369c-3.504-28.049-12.852-73.63-12.852-93.5 0-11.709 3.247-48.994 5.914-77.64l-1.253.149c-14.26 1.649-26.671-9.732-26.245-24.085l.554-18.659s-18.4 1.754-45.564-1.314c-27.165-3.068-55.204-12.273-55.204-12.273l-2.95.909c-.097.878-.185 1.745-.262 2.599-2.337 25.71 5.257 89.41 5.257 94.084 0 4.674 2.921 82.396 7.594 104.019 4.674 21.621 9.931 50.84 10.515 54.93.584 4.091 4.673 34.48 4.673 44.412 0 9.756-4.502 33.017-4.665 33.855 3.507 1.09 10.857 3.312 24.089 7.053 20.154 5.697 33.15-1.17 33.15-1.17 0-7.012 1.17-46.75 1.17-46.75s7.377 33.624 9.771 49.345" transform="translate(-468 -192) translate(468 192) translate(204 36)"/>
                    <path stroke="#1A2E35" stroke-linecap="round" stroke-linejoin="round" stroke-width="1.257" d="M158.006 521.845c5.005 1.872 14.329 4.399 27.324 3.834 20.153-.877 27.164-6.429 27.164-6.429s-4.674-85.318-8.18-113.369c-3.504-28.049-12.852-73.63-12.852-93.5 0-11.709 3.247-48.994 5.914-77.64l-1.253.149c-14.26 1.649-26.671-9.732-26.245-24.085l.554-18.659s-18.4 1.754-45.564-1.314c-27.165-3.068-55.204-12.273-55.204-12.273l-2.95.909c-.097.878-.185 1.745-.262 2.599-2.337 25.71 5.257 89.41 5.257 94.084 0 4.674 2.921 82.396 7.594 104.019 4.674 21.621 9.931 50.84 10.515 54.93.584 4.091 4.673 34.48 4.673 44.412 0 9.756-4.502 33.017-4.665 33.855 3.507 1.09 10.857 3.312 24.089 7.053 20.154 5.697 33.15-1.17 33.15-1.17 0-7.012 1.17-46.75 1.17-46.75s7.377 33.624 9.771 49.345z" transform="translate(-468 -192) translate(468 192) translate(204 36)"/>
                    <path stroke="#1A2E35" stroke-linecap="round" stroke-linejoin="round" stroke-width="1.257" d="M91.27 203.177L143.745 211.807 143.745 244.164 114.273 273.647 90.552 244.884zM129.142 385.105c-3.782-21.365-6.61-42.407-6.61-57.528l-21.03-14.026M148.235 472.5s-8.858-34.234-16.174-71.731M163.854 291.248c.452 1.773 1.15 3.591 2.174 5.41 6.47 11.506 15.815 12.945 15.815 12.945l1.438-30.203M166.028 273.647s-1.548 2.754-2.373 6.915M191.794 365.547c.758 3.983 1.52 7.899 2.269 11.65M181.842 309.602s3.692 22.157 7.977 45.395" transform="translate(-468 -192) translate(468 192) translate(204 36)"/>
                    <path fill="#BEBEBE" d="M112.683 98.923l-.297 17.226s-5.938 4.751-7.126 17.226c-1.187 12.473 10.688 24.057 24.05 24.057 13.359 0 24.937-10.396 27.017-19.9 2.077-9.504-.594-23.165-.594-23.165l-.89-20.79s-13.065 8.317-25.534 5.94c-12.47-2.376-16.032-6.832-16.032-6.832l-.594 6.238z" transform="translate(-468 -192) translate(468 192) translate(204 36)"/>
                    <path stroke="#1A2E35" stroke-linecap="round" stroke-linejoin="round" stroke-width="1.257" d="M112.683 98.923l-.297 17.226s-5.938 4.751-7.126 17.226c-1.187 12.473 10.688 24.057 24.05 24.057 13.359 0 24.937-10.396 27.017-19.9 2.077-9.504-.594-23.165-.594-23.165l-.89-20.79s-13.065 8.317-25.534 5.94c-12.47-2.376-16.032-6.832-16.032-6.832l-.594 6.238z" transform="translate(-468 -192) translate(468 192) translate(204 36)"/>
                    <path fill="#BEBEBE" d="M103.38 53.962s-.798 9.862 1.333 12.26c2.132 2.399 5.062 4.264 5.595 2.131.533-2.13.799-13.324 1.332-15.723.533-2.4-7.993-5.332-8.26 1.332" transform="translate(-468 -192) translate(468 192) translate(204 36)"/>
                    <path stroke="#1A2E35" stroke-linecap="round" stroke-linejoin="round" stroke-width="1.257" d="M103.38 53.962s-.798 9.862 1.333 12.26c2.132 2.399 5.062 4.264 5.595 2.131.533-2.13.799-13.324 1.332-15.723.533-2.4-7.993-5.332-8.26 1.332z" transform="translate(-468 -192) translate(468 192) translate(204 36)"/>
                    <path fill="#BEBEBE" d="M108.588 53.816s-2.466 19.738-2.466 29.194c0 9.458-3.698 13.16 8.221 19.327 11.921 6.168 22.196 6.99 30.419 4.112 8.22-2.879 12.741-9.87 13.153-15.624.41-5.759.41-14.803.41-14.803s11.51-10.28 9.044-18.094c-2.466-7.813-7.811 2.055-7.811 2.055s3.7-10.278 3.29-20.97c-.412-10.691-8.633-11.925-11.921-11.925-3.289 0-23.431-6.167-32.884 0-9.455 6.169-9.455 26.728-9.455 26.728" transform="translate(-468 -192) translate(468 192) translate(204 36)"/>
                    <path stroke="#1A2E35" stroke-linecap="round" stroke-linejoin="round" stroke-width="1.257" d="M108.588 53.816s-2.466 19.738-2.466 29.194c0 9.458-3.698 13.16 8.221 19.327 11.921 6.168 22.196 6.99 30.419 4.112 8.22-2.879 12.741-9.87 13.153-15.624.41-5.759.41-14.803.41-14.803s11.51-10.28 9.044-18.094c-2.466-7.813-7.811 2.055-7.811 2.055s3.7-10.278 3.29-20.97c-.412-10.691-8.633-11.925-11.921-11.925-3.289 0-23.431-6.167-32.884 0-9.455 6.169-9.455 26.728-9.455 26.728z" transform="translate(-468 -192) translate(468 192) translate(204 36)"/>
                    <path fill="#1A2E35" d="M159.558 59.984s3.7-10.28 3.29-20.97c-.412-10.692-8.633-11.925-11.921-11.925-.058 0-.156-.015-.223-.019-1.74 2.927-3.889 7.42-3.889 7.42l1.645.823s-1.645 9.046 1.644 10.28c3.288 1.232 1.644 4.11 1.644 9.046 0 4.935 2.877 8.634 4.522 8.634 1.294 0 3.346-3.3 4.164-4.712-.541.806-.876 1.423-.876 1.423" transform="translate(-468 -192) translate(468 192) translate(204 36)"/>
                    <path stroke="#1A2E35" stroke-linecap="round" stroke-linejoin="round" stroke-width="1.257" d="M159.558 59.984s3.7-10.28 3.29-20.97c-.412-10.692-8.633-11.925-11.921-11.925-.058 0-.156-.015-.223-.019-1.74 2.927-3.889 7.42-3.889 7.42l1.645.823s-1.645 9.046 1.644 10.28c3.288 1.232 1.644 4.11 1.644 9.046 0 4.935 2.877 8.634 4.522 8.634 1.294 0 3.346-3.3 4.164-4.712-.541.806-.876 1.423-.876 1.423zM127.094 61.158s-3.464 3.2-1.865 5.598c1.597 2.398 7.46 3.73 9.058.799 1.599-2.932-.266-5.598-1.066-6.13" transform="translate(-468 -192) translate(468 192) translate(204 36)"/>
                    <path fill="#1A2E35" d="M123.364 57.96c0 1.619-.656 2.931-1.467 2.931-.808 0-1.464-1.312-1.464-2.932 0-1.619.656-2.931 1.464-2.931.81 0 1.467 1.312 1.467 2.931M141.082 58.76c0 1.619-.656 2.931-1.466 2.931-.809 0-1.465-1.312-1.465-2.931 0-1.62.656-2.932 1.465-2.932.81 0 1.466 1.313 1.466 2.932" transform="translate(-468 -192) translate(468 192) translate(204 36)"/>
                    <path stroke="#1A2E35" stroke-linecap="round" stroke-linejoin="round" stroke-width="1.257" d="M136.685 50.764s5.596-3.731 10.924 2.132" transform="translate(-468 -192) translate(468 192) translate(204 36)"/>
                    <path fill="#666" d="M128.194 77s-2.334-1.258-4.563-.2c-2.227 1.059-2.65 2.852-2.65 2.852s-3.414 2.75.18 3.949c3.597 1.199 11.435 1.112 13.454 1.019 2.018-.094 2.683-2.17 2.627-3.396-.058-1.226-.833-1.598-.833-1.598s-2.749-4.788-8.215-2.625" transform="translate(-468 -192) translate(468 192) translate(204 36)"/>
                    <path stroke="#1A2E35" stroke-linecap="round" stroke-linejoin="round" stroke-width=".923" d="M128.194 77s-2.334-1.258-4.563-.2c-2.227 1.059-2.65 2.852-2.65 2.852s-3.414 2.75.18 3.949c3.597 1.199 11.435 1.112 13.454 1.019 2.018-.094 2.683-2.17 2.627-3.396-.058-1.226-.833-1.598-.833-1.598s-2.749-4.788-8.215-2.625z" transform="translate(-468 -192) translate(468 192) translate(204 36)"/>
                    <path stroke="#1A2E35" stroke-linecap="round" stroke-linejoin="round" stroke-width="1.073" d="M120.203 80.682s7.33-1.54 16.553.99" transform="translate(-468 -192) translate(468 192) translate(204 36)"/>
                    <path fill="#0669F4" d="M101.6 31.2l43.982 6.168s18.5-4.933 20.143-8.635c1.645-3.7-4.522-22.205-7.81-26.726-3.29-4.525-34.94 3.287-44.805 4.933-9.866 1.645-17.264 4.113-16.852 9.046.41 4.935 5.343 15.215 5.343 15.215" transform="translate(-468 -192) translate(468 192) translate(204 36)"/>
                    <path stroke="#1A2E35" stroke-linecap="round" stroke-linejoin="round" stroke-width="1.257" d="M101.6 31.2l43.982 6.168s18.5-4.933 20.143-8.635c1.645-3.7-4.522-22.205-7.81-26.726-3.29-4.525-34.94 3.287-44.805 4.933-9.866 1.645-17.264 4.113-16.852 9.046.41 4.935 5.343 15.215 5.343 15.215z" transform="translate(-468 -192) translate(468 192) translate(204 36)"/>
                    <path fill="#FFF" d="M101.6 31.2S76.528 51.76 76.116 53.817c-.41 2.056 36.584 2.88 48.093.412 11.51-2.467 21.374-16.86 21.374-16.86L101.601 31.2z" transform="translate(-468 -192) translate(468 192) translate(204 36)"/>
                    <path stroke="#1A2E35" stroke-linecap="round" stroke-linejoin="round" stroke-width="1.257" d="M101.6 31.2S76.528 51.76 76.116 53.817c-.41 2.056 36.584 2.88 48.093.412 11.51-2.467 21.374-16.86 21.374-16.86L101.601 31.2z" transform="translate(-468 -192) translate(468 192) translate(204 36)"/>
                    <path fill="#0669F4" d="M74.205 303.757l68.96-40.406c4.245 3.183 10.152 3.703 15.017.853 5.492-3.218 7.872-9.697 6.154-15.542l-14.382 8.427-3.321-5.673 14.382-8.428c-4.257-4.357-11.07-5.45-16.564-2.23-4.862 2.849-7.298 8.258-6.599 13.518l-68.96 40.406c-4.246-3.183-10.152-3.703-15.016-.854-5.492 3.22-7.874 9.698-6.155 15.543l14.006-8.206 3.32 5.673-14.007 8.206c4.258 4.358 11.072 5.45 16.564 2.232 4.865-2.85 7.3-8.26 6.601-13.519" transform="translate(-468 -192) translate(468 192) translate(204 36)"/>
                    <path stroke="#1A2E35" stroke-linecap="round" stroke-linejoin="round" stroke-width="1.257" d="M74.205 303.757l68.96-40.406c4.245 3.183 10.152 3.703 15.017.853 5.492-3.218 7.872-9.697 6.154-15.542l-14.382 8.427-3.321-5.673 14.382-8.428c-4.257-4.357-11.07-5.45-16.564-2.23-4.862 2.849-7.298 8.258-6.599 13.518l-68.96 40.406c-4.246-3.183-10.152-3.703-15.016-.854-5.492 3.22-7.874 9.698-6.155 15.543l14.006-8.206 3.32 5.673-14.007 8.206c4.258 4.358 11.072 5.45 16.564 2.232 4.865-2.85 7.3-8.26 6.601-13.519z" transform="translate(-468 -192) translate(468 192) translate(204 36)"/>
                    <path fill="#BEBEBE" d="M132.863 273.721s8.483 6.06 8.483 11.719c0 5.657-10.099 11.72-16.966 12.124-6.868.403-8.08-7.274-6.868-11.315 1.212-4.043 15.35-12.528 15.35-12.528" transform="translate(-468 -192) translate(468 192) translate(204 36)"/>
                    <path stroke="#1A2E35" stroke-linecap="round" stroke-linejoin="round" stroke-width="1.257" d="M132.863 273.721s8.483 6.06 8.483 11.719c0 5.657-10.099 11.72-16.966 12.124-6.868.403-8.08-7.274-6.868-11.315 1.212-4.043 15.35-12.528 15.35-12.528z" transform="translate(-468 -192) translate(468 192) translate(204 36)"/>
                    <g>
                        <path fill="#BEBEBE" d="M43.992 10.932S90.852 37.2 97.315 36.391c6.463-.809 15.35-6.466 20.198-4.848 4.848 1.614 18.178 22.225 19.39 25.862 1.212 3.636-9.696 16.568-12.118 18.588-2.424 2.021-10.101 10.103-11.716 10.911-1.616.808-12.12 10.103-17.371 10.103-5.25 0-14.139-4.042-14.946-6.062-.808-2.02 1.212-4.85 1.212-4.85L57.322 74.782S10.462 49.322 2.383 36.39C-5.695 23.46 14.503.426 14.503.426" transform="translate(-468 -192) translate(468 192) translate(204 36) translate(0 212.275)"/>
                        <path stroke="#1A2E35" stroke-linecap="round" stroke-linejoin="round" stroke-width="1.257" d="M43.992 10.932S90.852 37.2 97.315 36.391c6.463-.809 15.35-6.466 20.198-4.848 4.848 1.614 18.178 22.225 19.39 25.862 1.212 3.636-9.696 16.568-12.118 18.588-2.424 2.021-10.101 10.103-11.716 10.911-1.616.808-12.12 10.103-17.371 10.103-5.25 0-14.139-4.042-14.946-6.062-.808-2.02 1.212-4.85 1.212-4.85L57.322 74.782S10.462 49.322 2.383 36.39C-5.695 23.46 14.503.426 14.503.426" transform="translate(-468 -192) translate(468 192) translate(204 36) translate(0 212.275)"/>
                    </g>
                    <path stroke="#1A2E35" stroke-linecap="round" stroke-linejoin="round" stroke-width="1.257" d="M98.122 286.652s4.848.405 5.657 5.658c.806 5.254-1.214 14.547-1.214 14.547M107.414 278.975s5.654.403 5.654 5.656v14.55M113.473 264.427s10.503 7.678 11.311 12.123c.807 4.445 0 11.72 0 11.72" transform="translate(-468 -192) translate(468 192) translate(204 36)"/>
                    <path fill="#FFF" d="M160.31 236.726c2.348 0 8.606-15.653 8.606-21.523 0-5.87 2.737-48.916 8.995-68.873 4.494-14.32 8.37-25.385 10.206-30.51-4.776-1.224-9.87-2.31-15.129-3.222-3.126 9.496-12.69 39.138-16.59 57.994-4.694 22.696-3.521 49.698-3.13 52.046.391 2.348 4.694 14.088 7.041 14.088" transform="translate(-468 -192) translate(468 192) translate(204 36)"/>
                    <path stroke="#1A2E35" stroke-linecap="round" stroke-linejoin="round" stroke-width="1.257" d="M160.31 236.726c2.348 0 8.606-15.653 8.606-21.523 0-5.87 2.737-48.916 8.995-68.873 4.494-14.32 8.37-25.385 10.206-30.51-4.776-1.224-9.87-2.31-15.129-3.222-3.126 9.496-12.69 39.138-16.59 57.994-4.694 22.696-3.521 49.698-3.13 52.046.391 2.348 4.694 14.088 7.041 14.088z" transform="translate(-468 -192) translate(468 192) translate(204 36)"/>
                    <path fill="#FFF" d="M167.039 205.075l-13.458-1.787c-1.104-.146-1.88-1.158-1.732-2.26l1.425-10.75c.146-1.102 1.158-1.878 2.262-1.73l13.458 1.786c1.102.146 1.878 1.158 1.732 2.261l-1.425 10.747c-.148 1.105-1.16 1.879-2.262 1.733" transform="translate(-468 -192) translate(468 192) translate(204 36)"/>
                    <path stroke="#1A2E35" stroke-linecap="round" stroke-linejoin="round" stroke-width="1.257" d="M167.039 205.075l-13.458-1.787c-1.104-.146-1.88-1.158-1.732-2.26l1.425-10.75c.146-1.102 1.158-1.878 2.262-1.73l13.458 1.786c1.102.146 1.878 1.158 1.732 2.261l-1.425 10.747c-.148 1.105-1.16 1.879-2.262 1.733z" transform="translate(-468 -192) translate(468 192) translate(204 36)"/>
                    <path fill="#FFF" d="M164.151 201.897l-6.955-.924c-1.102-.146-1.878-1.158-1.732-2.26l.697-5.257c.148-1.102 1.16-1.877 2.262-1.73l6.955.923c1.104.146 1.88 1.158 1.732 2.26l-.697 5.256c-.146 1.104-1.158 1.878-2.262 1.732" transform="translate(-468 -192) translate(468 192) translate(204 36)"/>
                    <path stroke="#1A2E35" stroke-linecap="round" stroke-linejoin="round" stroke-width="1.257" d="M164.151 201.897l-6.955-.924c-1.102-.146-1.878-1.158-1.732-2.26l.697-5.257c.148-1.102 1.16-1.877 2.262-1.73l6.955.923c1.104.146 1.88 1.158 1.732 2.26l-.697 5.256c-.146 1.104-1.158 1.878-2.262 1.732z" transform="translate(-468 -192) translate(468 192) translate(204 36)"/>
                    <path fill="#FFF" d="M72.685 230.856c2.346 0 8.606-15.652 8.606-21.522 0-5.87 2.737-48.916 8.996-68.874 3.975-12.675 6.684-20.756 8.134-24.979-6.107 1.386-11.913 2.645-13.861 2.89-1.434.178-3.475 3.838-5.683 9.555-2.593 8.031-5.764 18.491-8.259 28.671-1.917 8.66-3.452 17.61-4.167 25.469-.602 6.626-.538 15.785-.121 25.794.036.297.068.535.096.691.39 2.348 3.912 22.305 6.259 22.305" transform="translate(-468 -192) translate(468 192) translate(204 36)"/>
                    <path stroke="#1A2E35" stroke-linecap="round" stroke-linejoin="round" stroke-width="1.257" d="M72.685 230.856c2.346 0 8.606-15.652 8.606-21.522 0-5.87 2.737-48.916 8.996-68.874 3.975-12.675 6.684-20.756 8.134-24.979-6.107 1.386-11.913 2.645-13.861 2.89-1.434.178-3.475 3.838-5.683 9.555-2.593 8.031-5.764 18.491-8.259 28.671-1.917 8.66-3.452 17.61-4.167 25.469-.602 6.626-.538 15.785-.121 25.794.036.297.068.535.096.691.39 2.348 3.912 22.305 6.259 22.305z" transform="translate(-468 -192) translate(468 192) translate(204 36)"/>
                    <path fill="#FFF" d="M80.015 192.794l-13.5-1.44c-1.106-.119-1.906-1.111-1.788-2.217l1.15-10.782c.118-1.106 1.11-1.906 2.215-1.788l13.5 1.44c1.106.118 1.906 1.11 1.788 2.217l-1.15 10.782c-.117 1.105-1.11 1.906-2.215 1.788" transform="translate(-468 -192) translate(468 192) translate(204 36)"/>
                    <path stroke="#1A2E35" stroke-linecap="round" stroke-linejoin="round" stroke-width="1.257" d="M80.015 192.794l-13.5-1.44c-1.106-.119-1.906-1.111-1.788-2.217l1.15-10.782c.118-1.106 1.11-1.906 2.215-1.788l13.5 1.44c1.106.118 1.906 1.11 1.788 2.217l-1.15 10.782c-.117 1.105-1.11 1.906-2.215 1.788z" transform="translate(-468 -192) translate(468 192) translate(204 36)"/>
                    <path fill="#FFF" d="M77.047 189.69l-6.976-.744c-1.107-.118-1.908-1.111-1.79-2.217l.563-5.27c.118-1.107 1.11-1.907 2.216-1.79l6.978.746c1.104.118 1.906 1.109 1.787 2.216l-.562 5.271c-.118 1.106-1.11 1.907-2.216 1.788" transform="translate(-468 -192) translate(468 192) translate(204 36)"/>
                    <path stroke="#1A2E35" stroke-linecap="round" stroke-linejoin="round" stroke-width="1.257" d="M77.047 189.69l-6.976-.744c-1.107-.118-1.908-1.111-1.79-2.217l.563-5.27c.118-1.107 1.11-1.907 2.216-1.79l6.978.746c1.104.118 1.906 1.109 1.787 2.216l-.562 5.271c-.118 1.106-1.11 1.907-2.216 1.788z" transform="translate(-468 -192) translate(468 192) translate(204 36)"/>
                </g>
            </g>
        </g>
    </g>
</svg>
