<svg xmlns="http://www.w3.org/2000/svg" xmlns:xlink="http://www.w3.org/1999/xlink" width="705" height="638" viewBox="0 0 705 638">
    <defs>
        <path id="vl8sr926da" d="M0.953 0.456L675.651 0.456 675.651 637.999 0.953 637.999z"/>
        <path id="kdcpljryvc" d="M0.953 0.456L675.651 0.456 675.651 637.999 0.953 637.999z"/>
        <path id="jtljrccice" d="M0 638L704.524 638 704.524 0.456 0 0.456z"/>
        <path id="0kfz6wxjgg" d="M0 638L704.524 638 704.524 0.456 0 0.456z"/>
        <path id="x9h0227ewi" d="M0 638L704.524 638 704.524 0.456 0 0.456z"/>
    </defs>
    <g fill="none" fill-rule="evenodd">
        <g>
            <g>
                <g>
                    <g transform="translate(-477 -193) translate(477 193) translate(27)">
                        <mask id="d7tqy05gcb" fill="#fff">
                            <use xlink:href="#vl8sr926da"/>
                        </mask>
                        <path fill="#AF0" d="M1.162 341.427s3.906 121.09 104.99 201.8c101.083 80.707 241.152 86.486 354.546 94.153 113.394 7.668 200.489-56.523 213.616-153.557 13.126-97.034-73.521-125.52-120.532-235.974-47.01-110.457-42.827-146.765-142.298-214.7S156.408 6.93 74.824 123.314C-6.758 239.695 1.162 341.427 1.162 341.427" mask="url(#d7tqy05gcb)"/>
                    </g>
                    <g transform="translate(-477 -193) translate(477 193) translate(27)">
                        <mask id="91qvnw3s2d" fill="#fff">
                            <use xlink:href="#kdcpljryvc"/>
                        </mask>
                        <path fill="#FFF" d="M1.162 341.427s3.906 121.09 104.99 201.8c101.083 80.707 241.152 86.486 354.546 94.153 113.394 7.668 200.489-56.523 213.616-153.557 13.126-97.034-73.521-125.52-120.532-235.974-47.01-110.457-42.827-146.765-142.298-214.7S156.408 6.93 74.824 123.314C-6.758 239.695 1.162 341.427 1.162 341.427" mask="url(#91qvnw3s2d)"/>
                    </g>
                </g>
                <g transform="translate(-477 -193) translate(477 193)">
                    <path stroke="#1A2E35" stroke-linecap="round" stroke-linejoin="round" stroke-width="1.166" d="M75.418 183.283v-43.33c0-30.671 25.503-55.624 56.85-55.624 31.346 0 56.849 24.953 56.849 55.625v43.329h22.662v-43.33c0-42.898-35.669-77.8-79.512-77.8-43.844 0-79.513 34.902-79.513 77.8v43.33h22.664z"/>
                    <mask id="0j7d17srtf" fill="#fff">
                        <use xlink:href="#jtljrccice"/>
                    </mask>
                    <path stroke="#1A2E35" stroke-linecap="round" stroke-linejoin="round" stroke-width="1.166" d="M44.333 327.127L217.944 327.127 217.944 183.595 44.333 183.595z" mask="url(#0j7d17srtf)"/>
                    <path stroke="#1A2E35" stroke-linecap="round" stroke-linejoin="round" stroke-width="1.166" d="M149.192 243.2c0-10.214-8.462-18.494-18.9-18.494-10.44 0-18.903 8.28-18.903 18.494 0 7.036 4.017 13.152 9.926 16.278l-3.175 32.599h24.301l-3.175-32.6c5.911-3.125 9.926-9.241 9.926-16.277z" mask="url(#0j7d17srtf)"/>
                </g>
                <path fill="#1A2E35" d="M326.083 331.546L282.819 328.699 282.819 328 277.5 328.349 272.181 328 272.181 328.699 228.916 331.546 197 594 228.916 594 276.435 384.746 278.563 384.746 326.083 594 358 594z" transform="translate(-477 -193) translate(477 193)"/>
                <path stroke="#1A2E35" stroke-linecap="round" stroke-linejoin="round" stroke-width="1.166" d="M326.083 331.546L282.819 328.699 282.819 328 277.5 328.349 272.181 328 272.181 328.699 228.916 331.546 197 594 228.916 594 276.435 384.746 278.563 384.746 326.083 594 358 594z" transform="translate(-477 -193) translate(477 193)"/>
                <g transform="translate(-477 -193) translate(477 193)">
                    <path fill="#4B4B4B" d="M197.22 593.754l-7.792 12.037-24.09 10.622s-4.25 2.124-4.25 7.081v9.204h68.724s.708-7.79 0-14.87c-.709-7.08-.709-24.074-.709-24.074H197.22z"/>
                    <path stroke="#1A2E35" stroke-linecap="round" stroke-linejoin="round" stroke-width="1.166" d="M197.22 593.754l-7.792 12.037-24.09 10.622s-4.25 2.124-4.25 7.081v9.204h68.724s.708-7.79 0-14.87c-.709-7.08-.709-24.074-.709-24.074H197.22z"/>
                    <path fill="#1A2E35" d="M161.088 624.91v7.788h68.723s.308-3.423.313-7.789h-69.036z"/>
                    <path stroke="#1A2E35" stroke-linecap="round" stroke-linejoin="round" stroke-width="1.166" d="M161.088 624.91v7.788h68.723s.308-3.423.313-7.789h-69.036z"/>
                    <path fill="#4B4B4B" d="M357.916 593.754l7.794 12.037 24.088 10.622s4.252 2.124 4.252 7.081v9.204h-68.724s-.708-7.79 0-14.87c.709-7.08.709-24.074.709-24.074h31.881z"/>
                    <path stroke="#1A2E35" stroke-linecap="round" stroke-linejoin="round" stroke-width="1.166" d="M357.916 593.754l7.794 12.037 24.088 10.622s4.252 2.124 4.252 7.081v9.204h-68.724s-.708-7.79 0-14.87c.709-7.08.709-24.074.709-24.074h31.881z"/>
                    <path fill="#1A2E35" d="M394.049 624.91v7.788h-68.722s-.31-3.423-.313-7.789h69.035z"/>
                    <path stroke="#1A2E35" stroke-linecap="round" stroke-linejoin="round" stroke-width="1.166" d="M394.049 624.91v7.788h-68.722s-.31-3.423-.313-7.789h69.035z"/>
                    <path fill="#0669F4" d="M210.798 209.892s-50.418 70.897-50.418 76.09c0 5.192 8.029 45.316 20.781 49.093 12.753 3.775 19.838-2.833 22.2-16.05 2.36-13.216-5.668-32.098-5.668-32.098l23.616-21.242-10.51-55.793z"/>
                    <path stroke="#1A2E35" stroke-linecap="round" stroke-linejoin="round" stroke-width="1.166" d="M210.798 209.892s-50.418 70.897-50.418 76.09c0 5.192 8.029 45.316 20.781 49.093 12.753 3.775 19.838-2.833 22.2-16.05 2.36-13.216-5.668-32.098-5.668-32.098l23.616-21.242-10.51-55.793z"/>
                    <path fill="#CDCDCD" d="M201 317.138s14.641-2.361 18.42-1.418c3.778.945 6.613 9.915 6.613 9.915s1.416 13.215-.946 16.049c-2.36 2.831-13.696 6.136-18.419 7.08-4.723.944-14.642-9.914-18.423-16.522-3.777-6.607 2.836-17.938 12.754-15.104"/>
                    <path stroke="#1A2E35" stroke-linecap="round" stroke-linejoin="round" stroke-width="1.166" d="M201 317.138s14.641-2.361 18.42-1.418c3.778.945 6.613 9.915 6.613 9.915s1.416 13.215-.946 16.049c-2.36 2.831-13.696 6.136-18.419 7.08-4.723.944-14.642-9.914-18.423-16.522-3.777-6.607 2.836-17.938 12.754-15.104z"/>
                    <path fill="#0669F4" d="M221.414 206.676L210.798 209.892 227.527 321.456 326.932 321.456 342.053 210.534 328.54 205.39 278.677 194.46z"/>
                    <path stroke="#1A2E35" stroke-linecap="round" stroke-linejoin="round" stroke-width="1.166" d="M221.414 206.676L210.798 209.892 227.527 321.456 326.932 321.456 342.053 210.534 328.54 205.39 278.677 194.46z"/>
                    <path fill="#1A2E35" d="M332.401 243.972L330.15 260.048 312.778 264.227 295.084 257.154 296.371 242.686z"/>
                    <path stroke="#1A2E35" stroke-linecap="round" stroke-linejoin="round" stroke-width="1.166" d="M332.401 243.972L330.15 260.048 312.778 264.227 295.084 257.154 296.371 242.686z"/>
                    <path fill="#4B4B4B" d="M310.848 256.993c0-1.686 1.368-3.054 3.055-3.054 1.688 0 3.057 1.368 3.057 3.054 0 1.687-1.37 3.054-3.057 3.054-1.687 0-3.055-1.367-3.055-3.054"/>
                    <path stroke="#1A2E35" stroke-linecap="round" stroke-linejoin="round" stroke-width="1.166" d="M310.848 256.993c0-1.686 1.368-3.054 3.055-3.054 1.688 0 3.057 1.368 3.057 3.054 0 1.687-1.37 3.054-3.057 3.054-1.687 0-3.055-1.367-3.055-3.054z"/>
                    <path fill="#1A2E35" d="M268.061 215.036L277.391 225.968 265.488 301.844 278.034 321.779 292.832 300.88 280.287 226.289 290.902 216.001 279.642 201.533z"/>
                    <path stroke="#1A2E35" stroke-linecap="round" stroke-linejoin="round" stroke-width="1.166" d="M268.061 215.036L277.391 225.968 265.488 301.844 278.034 321.779 292.832 300.88 280.287 226.289 290.902 216.001 279.642 201.533z"/>
                    <path fill="#1A2E35" d="M259.053 196.067L216.267 206.676 217.554 211.822 259.375 200.246z"/>
                    <path stroke="#1A2E35" stroke-linecap="round" stroke-linejoin="round" stroke-width="1.166" d="M259.053 196.067L216.267 206.676 217.554 211.822 259.375 200.246z"/>
                    <path fill="#1A2E35" d="M294.119 194.781L336.905 205.391 335.62 210.535 293.797 198.961z"/>
                    <path stroke="#1A2E35" stroke-linecap="round" stroke-linejoin="round" stroke-width="1.166" d="M294.119 194.781L336.905 205.391 335.62 210.535 293.797 198.961z"/>
                    <g>
                        <path fill="#0669F4" d="M8.803.238s16.183 3.647 26.102 9.313c9.917 5.665 12.28 18.41 6.61 32.57-5.667 14.162-23.143 12.274-31.171 8.497C2.313 46.841-.048 32.681 1.369 26.545" transform="translate(328.103 205.153)"/>
                        <path stroke="#1A2E35" stroke-linecap="round" stroke-linejoin="round" stroke-width="1.166" d="M8.803.238s16.183 3.647 26.102 9.313c9.917 5.665 12.28 18.41 6.61 32.57-5.667 14.162-23.143 12.274-31.171 8.497C2.313 46.841-.048 32.681 1.369 26.545" transform="translate(328.103 205.153)"/>
                    </g>
                    <path fill="#0669F4" d="M260.984 190.601L256.158 193.816 257.444 226.289 278.355 211.5 300.232 226.611 302.162 194.459 296.37 189.636z"/>
                    <path stroke="#1A2E35" stroke-linecap="round" stroke-linejoin="round" stroke-width="1.166" d="M260.984 190.601L256.158 193.816 257.444 226.289 278.355 211.5 300.232 226.611 302.162 194.459 296.37 189.636z"/>
                    <path fill="#1A2E35" d="M303.245 151.98s11.882-2.888 14.128-14.762c2.248-11.875-19.265-26.316-34.037-28.883-14.77-2.567-36.606 12.838-40.137 23.426-3.534 10.591 10.275 21.182 25.045 23.428 14.771 2.247 35-3.21 35-3.21"/>
                    <path stroke="#1A2E35" stroke-linecap="round" stroke-linejoin="round" stroke-width="1.166" d="M303.245 151.98s11.882-2.888 14.128-14.762c2.248-11.875-19.265-26.316-34.037-28.883-14.77-2.567-36.606 12.838-40.137 23.426-3.534 10.591 10.275 21.182 25.045 23.428 14.771 2.247 35-3.21 35-3.21z"/>
                    <path fill="#CDCDCD" d="M258.933 153.905s-6.423-9.95-8.028-1.284c-1.605 8.665 5.137 12.516 8.028 12.194 2.89-.32 0-10.91 0-10.91"/>
                    <path stroke="#1A2E35" stroke-linecap="round" stroke-linejoin="round" stroke-width="1.166" d="M258.933 153.905s-6.423-9.95-8.028-1.284c-1.605 8.665 5.137 12.516 8.028 12.194 2.89-.32 0-10.91 0-10.91z"/>
                    <path fill="#CDCDCD" d="M300.676 153.905s6.421-9.95 8.028-1.284c1.605 8.665-5.139 12.516-8.028 12.194-2.89-.32 0-10.91 0-10.91"/>
                    <path stroke="#1A2E35" stroke-linecap="round" stroke-linejoin="round" stroke-width="1.166" d="M300.676 153.905s6.421-9.95 8.028-1.284c1.605 8.665-5.139 12.516-8.028 12.194-2.89-.32 0-10.91 0-10.91z"/>
                    <path fill="#CDCDCD" d="M260.341 173.561L260.341 194.781 278.356 211.499 298.623 194.137 298.623 174.204z"/>
                    <path stroke="#1A2E35" stroke-linecap="round" stroke-linejoin="round" stroke-width="1.166" d="M260.341 173.561L260.341 194.781 278.356 211.499 298.623 194.137 298.623 174.204z"/>
                    <path fill="#CDCDCD" d="M257.648 147.487s-.964 19.896.641 26.315c1.606 6.417 12.203 19.896 20.551 22.784 8.35 2.889 19.91-14.442 22.478-20.218 2.57-5.776 1.607-30.166 1.607-30.166s-3.534-8.344-10.597-10.91c-7.065-2.568-28.9-7.06-34.68 12.195"/>
                    <path stroke="#1A2E35" stroke-linecap="round" stroke-linejoin="round" stroke-width="1.166" d="M257.648 147.487s-.964 19.896.641 26.315c1.606 6.417 12.203 19.896 20.551 22.784 8.35 2.889 19.91-14.442 22.478-20.218 2.57-5.776 1.607-30.166 1.607-30.166s-3.534-8.344-10.597-10.91c-7.065-2.568-28.9-7.06-34.68 12.195z"/>
                    <path fill="#1A2E35" d="M271.006 158.05c0 1.516-.695 2.744-1.553 2.744-.856 0-1.551-1.228-1.551-2.745 0-1.515.695-2.744 1.551-2.744.858 0 1.553 1.23 1.553 2.744M290.708 158.05c0 1.516-.695 2.744-1.551 2.744-.858 0-1.553-1.228-1.553-2.745 0-1.515.695-2.744 1.553-2.744.856 0 1.551 1.23 1.551 2.744"/>
                    <g>
                        <path fill="#CDCDCD" d="M3.458.242c-1.447 0-2.62.938-2.62 2.095 0 1.157 1.173 2.094 2.62 2.094.73 0 1.388-.239 1.863-.624C6.152 4.935 7.67 5.7 9.425 5.7c1.686 0 3.161-.703 4.011-1.759.454.301 1.03.49 1.664.49 1.447 0 2.62-.937 2.62-2.094 0-1.157-1.173-2.095-2.62-2.095" transform="translate(270.895 165.476)"/>
                        <path stroke="#1A2E35" stroke-linecap="round" stroke-linejoin="round" stroke-width="1.166" d="M3.458.242c-1.447 0-2.62.938-2.62 2.095 0 1.157 1.173 2.094 2.62 2.094.73 0 1.388-.239 1.863-.624C6.152 4.935 7.67 5.7 9.425 5.7c1.686 0 3.161-.703 4.011-1.759.454.301 1.03.49 1.664.49 1.447 0 2.62-.937 2.62-2.094 0-1.157-1.173-2.095-2.62-2.095" transform="translate(270.895 165.476)"/>
                    </g>
                    <g>
                        <path fill="#CDCDCD" d="M0.967 1.643L7.677 1.643" transform="translate(275.943 177.247)"/>
                        <path stroke="#1A2E35" stroke-linecap="round" stroke-linejoin="round" stroke-width="1.166" d="M0.967 1.643L7.677 1.643" transform="translate(275.943 177.247)"/>
                    </g>
                    <path fill="#1A2E35" d="M256.915 152.321s.24 6.444 2.388 4.773c2.15-1.67 2.867-12.649.956-14.082-1.91-1.43-3.344 5.968-3.344 9.31"/>
                    <path stroke="#1A2E35" stroke-linecap="round" stroke-linejoin="round" stroke-width="1.166" d="M256.915 152.321s.24 6.444 2.388 4.773c2.15-1.67 2.867-12.649.956-14.082-1.91-1.43-3.344 5.968-3.344 9.31z"/>
                    <path fill="#1A2E35" d="M298.364 152.321s.239 6.444 2.387 4.773c2.15-1.67 2.867-12.649.956-14.082-1.91-1.43-3.343 5.968-3.343 9.31"/>
                    <path stroke="#1A2E35" stroke-linecap="round" stroke-linejoin="round" stroke-width="1.166" d="M298.364 152.321s.239 6.444 2.387 4.773c2.15-1.67 2.867-12.649.956-14.082-1.91-1.43-3.343 5.968-3.343 9.31z"/>
                    <path fill="#4B4B4B" d="M256.915 147.07s.726.58.712.87c3.108 1.684 10.264 4.78 21.837 5.405 9.935.537 18.45-2.993 23.505-5.764-.025-.866-.045-1.376-.045-1.379-.293-7.525-5.88-12.528-12.801-14.453-6.614-1.841-14.21-1.53-20.595 1.026-3.303 1.321-6.31 3.316-8.517 6.132-.735.94-5.27 7.224-4.096 8.163"/>
                    <path stroke="#1A2E35" stroke-linecap="round" stroke-linejoin="round" stroke-width="1.166" d="M256.915 147.07s.726.58.712.87c3.108 1.684 10.264 4.78 21.837 5.405 9.935.537 18.45-2.993 23.505-5.764-.025-.866-.045-1.376-.045-1.379-.293-7.525-5.88-12.528-12.801-14.453-6.614-1.841-14.21-1.53-20.595 1.026-3.303 1.321-6.31 3.316-8.517 6.132-.735.94-5.27 7.224-4.096 8.163z"/>
                    <path fill="#4B4B4B" d="M257.648 147.487s8.028 2.247 21.835 1.604c13.807-.642 23.42-1.602 23.42-1.602s-9.414 9.553-23.221 10.193c-14.926.695-22.034-10.195-22.034-10.195"/>
                    <path stroke="#1A2E35" stroke-linecap="round" stroke-linejoin="round" stroke-width="1.166" d="M257.648 147.487s8.028 2.247 21.835 1.604c13.807-.642 23.42-1.602 23.42-1.602s-9.414 9.553-23.221 10.193c-14.926.695-22.034-10.195-22.034-10.195z"/>
                    <path fill="#1A2E35" d="M222.379 243.972L224.63 260.048 242.003 264.227 259.697 257.154 258.41 242.686z"/>
                    <path stroke="#1A2E35" stroke-linecap="round" stroke-linejoin="round" stroke-width="1.166" d="M222.379 243.972L224.63 260.048 242.003 264.227 259.697 257.154 258.41 242.686z"/>
                    <path fill="#4B4B4B" d="M243.933 256.993c0-1.686-1.368-3.054-3.056-3.054-1.687 0-3.055 1.368-3.055 3.054 0 1.687 1.368 3.054 3.055 3.054 1.688 0 3.056-1.367 3.056-3.054"/>
                    <path stroke="#1A2E35" stroke-linecap="round" stroke-linejoin="round" stroke-width="1.166" d="M243.933 256.993c0-1.686-1.368-3.054-3.056-3.054-1.687 0-3.055 1.368-3.055 3.054 0 1.687 1.368 3.054 3.055 3.054 1.688 0 3.056-1.367 3.056-3.054z"/>
                    <mask id="jloz1iyvhh" fill="#fff">
                        <use xlink:href="#0kfz6wxjgg"/>
                    </mask>
                    <path fill="#4B4B4B" d="M226.032 336.491L328.054 336.491 328.054 320.442 226.032 320.442z" mask="url(#jloz1iyvhh)"/>
                    <path stroke="#1A2E35" stroke-linecap="round" stroke-linejoin="round" stroke-width="1.166" d="M226.032 336.491L328.054 336.491 328.054 320.442 226.032 320.442z" mask="url(#jloz1iyvhh)"/>
                    <path fill="#4B4B4B" d="M245.634 341.212h-22.198c-2.48 0-4.488-2.008-4.488-4.485v-10.858c0-2.477 2.007-4.483 4.486-4.483h22.2c2.478 0 4.487 2.006 4.487 4.483v10.858c0 2.477-2.009 4.485-4.487 4.485" mask="url(#jloz1iyvhh)"/>
                    <path stroke="#1A2E35" stroke-linecap="round" stroke-linejoin="round" stroke-width="1.166" d="M245.634 341.212h-22.198c-2.48 0-4.488-2.008-4.488-4.485v-10.858c0-2.477 2.007-4.483 4.486-4.483h22.2c2.478 0 4.487 2.006 4.487 4.483v10.858c0 2.477-2.009 4.485-4.487 4.485z" mask="url(#jloz1iyvhh)"/>
                    <path fill="#4B4B4B" d="M326.874 341.212h-22.2c-2.478 0-4.486-2.008-4.486-4.485v-10.858c0-2.477 2.008-4.483 4.486-4.483h22.2c2.478 0 4.487 2.006 4.487 4.483v10.858c0 2.477-2.009 4.485-4.487 4.485" mask="url(#jloz1iyvhh)"/>
                    <path stroke="#1A2E35" stroke-linecap="round" stroke-linejoin="round" stroke-width="1.166" d="M326.874 341.212h-22.2c-2.478 0-4.486-2.008-4.486-4.485v-10.858c0-2.477 2.008-4.483 4.486-4.483h22.2c2.478 0 4.487 2.006 4.487 4.483v10.858c0 2.477-2.009 4.485-4.487 4.485z" mask="url(#jloz1iyvhh)"/>
                    <path fill="#FFF" d="M267.597 335.546L289.797 335.546 289.797 321.386 267.597 321.386z" mask="url(#jloz1iyvhh)"/>
                    <path stroke="#1A2E35" stroke-linecap="round" stroke-linejoin="round" stroke-width="1.166" d="M267.597 335.546L289.797 335.546 289.797 321.386 267.597 321.386zM197.693 286.926s-14.17-.945-19.364-9.913" mask="url(#jloz1iyvhh)"/>
                    <path fill="#0669F4" d="M378.593 220.84c0 13.557-10.469 24.546-23.38 24.546-12.913 0-23.38-10.989-23.38-24.546 0-13.557 10.467-24.546 23.38-24.546 12.911 0 23.38 10.99 23.38 24.546" mask="url(#jloz1iyvhh)"/>
                    <path stroke="#1A2E35" stroke-linecap="round" stroke-linejoin="round" stroke-width="1.166" d="M378.593 220.84c0 13.557-10.469 24.546-23.38 24.546-12.913 0-23.38-10.989-23.38-24.546 0-13.557 10.467-24.546 23.38-24.546 12.911 0 23.38 10.99 23.38 24.546z" mask="url(#jloz1iyvhh)"/>
                    <path fill="#0669F4" d="M373.52 208.407c0 9.054-8.196 16.394-18.307 16.394-10.11 0-18.306-7.34-18.306-16.394 0-9.053 8.195-16.394 18.306-16.394 10.11 0 18.306 7.34 18.306 16.394" mask="url(#jloz1iyvhh)"/>
                    <path stroke="#1A2E35" stroke-linecap="round" stroke-linejoin="round" stroke-width="1.166" d="M373.52 208.407c0 9.054-8.196 16.394-18.307 16.394-10.11 0-18.306-7.34-18.306-16.394 0-9.053 8.195-16.394 18.306-16.394 10.11 0 18.306 7.34 18.306 16.394z" mask="url(#jloz1iyvhh)"/>
                    <path fill="#CDCDCD" d="M373.52 196.352c0 9.054-8.196 16.394-18.307 16.394-10.11 0-18.306-7.34-18.306-16.394 0-9.053 8.195-16.394 18.306-16.394 10.11 0 18.306 7.34 18.306 16.394" mask="url(#jloz1iyvhh)"/>
                    <path stroke="#1A2E35" stroke-linecap="round" stroke-linejoin="round" stroke-width="1.166" d="M373.52 196.352c0 9.054-8.196 16.394-18.307 16.394-10.11 0-18.306-7.34-18.306-16.394 0-9.053 8.195-16.394 18.306-16.394 10.11 0 18.306 7.34 18.306 16.394z" mask="url(#jloz1iyvhh)"/>
                    <path fill="#CDCDCD" d="M325.803 161.004s.31 24.184 1.552 31.316c1.24 7.131 6.203 16.434 13.03 16.434 6.826 0 13.34-2.482 13.34-2.482s8.065 4.342 15.824 3.1c7.755-1.239 6.515-12.092 6.515-16.741 0-4.651-.932-39.689-.932-39.689s.62-3.41-2.482-4.03c-3.101-.621-4.653-.621-4.653-.621v-7.441s-1.243-2.48-5.274-2.48c-4.035 0-4.345.93-4.345.93v-6.821s-3.352-5.431-7.757-2.791c-3.1 1.86-3.1 4.96-3.1 4.96l-.31 6.513s-7.447-2.791-8.068 1.55c-.62 4.34-1.861 31.005-1.861 31.005s-.93-8.37-2.482-12.401c-1.551-4.031-8.997-4.031-8.997-.311" mask="url(#jloz1iyvhh)"/>
                    <path stroke="#1A2E35" stroke-linecap="round" stroke-linejoin="round" stroke-width="1.166" d="M325.803 161.004s.31 24.184 1.552 31.316c1.24 7.131 6.203 16.434 13.03 16.434 6.826 0 13.34-2.482 13.34-2.482s8.065 4.342 15.824 3.1c7.755-1.239 6.515-12.092 6.515-16.741 0-4.651-.932-39.689-.932-39.689s.62-3.41-2.482-4.03c-3.101-.621-4.653-.621-4.653-.621v-7.441s-1.243-2.48-5.274-2.48c-4.035 0-4.345.93-4.345.93v-6.821s-3.352-5.431-7.757-2.791c-3.1 1.86-3.1 4.96-3.1 4.96l-.31 6.513s-7.447-2.791-8.068 1.55c-.62 4.34-1.861 31.005-1.861 31.005s-.93-8.37-2.482-12.401c-1.551-4.031-8.997-4.031-8.997-.311zM347.21 141.161L347.831 169.685M358.378 139.3L358.689 169.995M367.997 148.292L367.376 169.686M343.176 169.375L371.408 170.616" mask="url(#jloz1iyvhh)"/>
                    <path stroke="#1A2E35" stroke-linecap="round" stroke-linejoin="round" stroke-width="1.166" d="M337.282 173.716s-.03 4.12 3.036 6.034c3.065 1.914 9.96 6.893 10.728 14.932" mask="url(#jloz1iyvhh)"/>
                </g>
                <path fill="#1A2E35" d="M523.968 98.385L523.968 102.086 515.061 102.086 515.061 115.248 526 115.248 526 119 511 119 511 82 526 82 526 85.752 515.061 85.752 515.061 98.385z" transform="translate(-477 -193) translate(477 193)"/>
                <g transform="translate(-477 -193) translate(477 193)">
                    <path fill="#1A2E35" d="M536.55 98.787c3.25 0 5.19-1.05 5.19-5.03v-3.51c0-3.298-1.207-5.029-4.246-5.029h-3.986v13.569h3.042zm1.047-17.287c5.766 0 8.177 2.933 8.177 8.383v2.983c0 4.034-1.415 6.55-4.561 7.544 3.357.995 4.613 3.72 4.613 7.647v5.711c0 1.623.053 3.143.734 4.4h-4.142c-.47-1.047-.679-1.99-.679-4.452v-5.761c0-4.14-1.94-5.45-5.348-5.45h-2.883v15.662h-4.085V81.5h8.174zM557.201 98.787c3.25 0 5.191-1.05 5.191-5.03v-3.51c0-3.298-1.208-5.029-4.245-5.029h-3.988v13.569h3.042zM558.25 81.5c5.764 0 8.177 2.933 8.177 8.383v2.983c0 4.034-1.415 6.55-4.562 7.544 3.357.995 4.614 3.72 4.614 7.647v5.711c0 1.623.052 3.143.734 4.4h-4.143c-.47-1.047-.678-1.99-.678-4.452v-5.761c0-4.14-1.942-5.45-5.349-5.45h-2.884v15.662h-4.085V81.5h8.176zM574.445 109.526c0 3.353 1.415 5.29 4.35 5.29 2.986 0 4.35-1.937 4.35-5.29V90.142c0-3.299-1.364-5.29-4.35-5.29-2.935 0-4.35 1.991-4.35 5.29v19.384zm-4.037-19.175c0-5.602 2.78-9.217 8.388-9.217 5.658 0 8.438 3.615 8.438 9.217v18.965c0 5.552-2.78 9.218-8.438 9.218-5.608 0-8.388-3.666-8.388-9.218V90.35zM598.239 98.787c3.249 0 5.189-1.05 5.189-5.03v-3.51c0-3.298-1.206-5.029-4.245-5.029h-3.986v13.569h3.042zm1.048-17.287c5.765 0 8.178 2.933 8.178 8.383v2.983c0 4.034-1.416 6.55-4.562 7.544 3.355.995 4.612 3.72 4.612 7.647v5.711c0 1.623.054 3.143.734 4.4h-4.141c-.47-1.047-.68-1.99-.68-4.452v-5.761c0-4.14-1.94-5.45-5.349-5.45h-2.882v15.662h-4.085V81.5h8.175zM488.936 326.549L488.936 330.267 480.494 330.267 480.494 346.138 476.409 346.138 476.409 309.471 490.978 309.471 490.978 313.19 480.494 313.19 480.494 326.549zM497.948 337.497c0 3.352 1.417 5.29 4.353 5.29 2.985 0 4.348-1.938 4.348-5.29v-19.383c0-3.3-1.363-5.29-4.348-5.29-2.936 0-4.353 1.99-4.353 5.29v19.383zm-4.035-19.173c0-5.603 2.778-9.22 8.388-9.22 5.658 0 8.438 3.617 8.438 9.22v18.963c0 5.553-2.78 9.217-8.438 9.217-5.61 0-8.388-3.664-8.388-9.217v-18.963zM521.746 326.757c3.249 0 5.189-1.049 5.189-5.03v-3.507c0-3.3-1.207-5.03-4.245-5.03h-3.986v13.567h3.042zm1.048-17.286c5.765 0 8.174 2.934 8.174 8.382v2.984c0 4.034-1.412 6.55-4.558 7.543 3.355.997 4.612 3.721 4.612 7.65v5.709c0 1.622.054 3.144.733 4.399h-4.139c-.47-1.046-.681-1.99-.681-4.452v-5.76c0-4.14-1.94-5.449-5.35-5.449h-2.881v15.66h-4.086v-36.666h8.176zM543.705 342.42c2.988 0 4.349-1.572 4.349-4.977v-3.249c0-4.083-1.622-5.447-5.137-5.447h-3.564v13.673h4.352zm-1.207-17.392c3.253 0 4.928-1.048 4.928-4.872v-2.147c0-3.247-1.1-4.82-4.036-4.82h-4.037v11.839h3.145zm.998-15.558c5.712 0 7.965 2.724 7.965 8.12v1.729c0 3.876-1.1 6.286-4.297 7.281 3.564.995 4.927 3.822 4.927 7.858v3.09c0 5.501-2.672 8.59-8.386 8.59h-8.439V309.47h8.23z"/>
                    <mask id="23ktcuh1rj" fill="#fff">
                        <use xlink:href="#x9h0227ewi"/>
                    </mask>
                    <path fill="#1A2E35" d="M555.813 346.138L559.9 346.138 559.9 309.47 555.813 309.47zM572.637 342.42c2.935 0 4.351-1.834 4.351-5.186v-18.859c0-3.353-1.416-5.186-4.401-5.186h-4.404v29.231h4.454zm.052-32.95c5.716 0 8.334 3.459 8.334 9.114v18.494c0 5.603-2.618 9.06-8.334 9.06h-8.594V309.47h8.594zM593.39 342.42c2.936 0 4.351-1.834 4.351-5.186v-18.859c0-3.353-1.415-5.186-4.402-5.186h-4.403v29.231h4.454zm.052-32.95c5.716 0 8.336 3.459 8.336 9.114v18.494c0 5.603-2.62 9.06-8.336 9.06h-8.593V309.47h8.593zM618.653 325.708L618.653 329.377 609.692 329.377 609.692 342.42 620.699 342.42 620.699 346.138 605.603 346.138 605.603 309.471 620.699 309.471 620.699 313.19 609.692 313.19 609.692 325.708zM628.088 346.138L624.42 346.138 624.42 309.47 629.611 309.47 638.101 335.975 638.101 309.47 641.719 309.47 641.719 346.138 637.47 346.138 628.088 316.49zM490.194 231.327v-49.188l-20.775 49.188h20.775zm-39.673 0l37.427-88.463h22.457v88.463h9.732v18.702h-9.732v23.754h-20.21V250.03H450.52v-18.702zM548.393 243.672c0 9.351 4.117 12.903 10.667 12.903 6.549 0 10.668-3.552 10.668-12.903v-70.697c0-9.353-4.12-12.904-10.668-12.904-6.55 0-10.667 3.551-10.667 12.904v70.697zm-20.585-69.389c0-20.945 11.04-32.915 31.252-32.915 20.211 0 31.252 11.97 31.252 32.915v68.079c0 20.946-11.04 32.915-31.252 32.915-20.213 0-31.252-11.97-31.252-32.915v-68.079zM643.272 175.033c0-11.782-4.115-14.962-10.665-14.962-6.55 0-10.668 3.551-10.668 12.902v8.418h-19.46v-7.108c0-20.945 10.475-32.916 30.688-32.916 20.211 0 30.69 11.97 30.69 32.916v3.367c0 14.028-4.49 22.817-14.41 26.932 10.295 4.49 14.41 14.213 14.41 27.492v10.288c0 20.946-10.479 32.915-30.69 32.915-20.213 0-30.689-11.97-30.689-32.915v-10.85h19.461v12.16c0 9.351 4.117 12.903 10.668 12.903 6.55 0 10.665-3.178 10.665-14.775v-10.287c0-12.157-4.115-16.646-13.472-16.646h-6.925v-18.701h8.046c7.674 0 12.351-3.367 12.351-13.841v-7.292z" mask="url(#23ktcuh1rj)"/>
                </g>
                <path fill="#1A2E35" d="M81 633L57 633 89 410 113 410z" transform="translate(-477 -193) translate(477 193)"/>
                <path stroke="#1A2E35" stroke-width="1.166" d="M81 633L57 633 89 410 113 410z" transform="translate(-477 -193) translate(477 193)"/>
                <path fill="#FFF" d="M129 633L153 633 121 410 97 410z" transform="translate(-477 -193) translate(477 193)"/>
                <path stroke="#1A2E35" stroke-width="1.166" d="M129 633L153 633 121 410 97 410z" transform="translate(-477 -193) translate(477 193)"/>
                <path fill="#1A2E35" d="M421 633L397 633 429 410 453 410z" transform="translate(-477 -193) translate(477 193)"/>
                <path stroke="#1A2E35" stroke-width="1.166" d="M421 633L397 633 429 410 453 410z" transform="translate(-477 -193) translate(477 193)"/>
                <path fill="#FFF" d="M469 633L493 633 461 410 437 410z" transform="translate(-477 -193) translate(477 193)"/>
                <path stroke="#1A2E35" stroke-width="1.166" d="M469 633L493 633 461 410 437 410z" transform="translate(-477 -193) translate(477 193)"/>
                <path fill="#0669F4" d="M28 419L486 419 486 375 28 375z" transform="translate(-477 -193) translate(477 193)"/>
                <path stroke="#1A2E35" stroke-width="1.166" d="M28 419L486 419 486 375 28 375z" transform="translate(-477 -193) translate(477 193)"/>
                <path fill="#0669F4" d="M39 419L497 419 497 375 39 375z" transform="translate(-477 -193) translate(477 193)"/>
                <path stroke="#1A2E35" stroke-width="1.166" d="M39 419L497 419 497 375 39 375z" transform="translate(-477 -193) translate(477 193)"/>
                <path fill="#1A2E35" d="M47 419L85.901 419 106 375 67.1 375zM201 375L162.099 375 142 419 180.9 419zM485 375L446.1 375 426 419 464.9 419zM391 375L352.1 375 332 419 370.9 419zM296 375L257.1 375 237 419 275.901 419z" transform="translate(-477 -193) translate(477 193)"/>
                <path stroke="#1A2E35" stroke-width="1.166" d="M495 394L419 394M493 402L481 402M38 400L114 400M39 391L135 391" transform="translate(-477 -193) translate(477 193)"/>
                <path fill="#1A2E35" d="M492 633L622 633 622 623 492 623z" transform="translate(-477 -193) translate(477 193)"/>
                <path stroke="#1A2E35" stroke-linecap="round" stroke-linejoin="round" stroke-width="1.166" d="M492 633L622 633 622 623 492 623z" transform="translate(-477 -193) translate(477 193)"/>
                <path fill="#0669F4" d="M600 622L514 622 547.712 439 566.288 439z" transform="translate(-477 -193) translate(477 193)"/>
                <path stroke="#1A2E35" stroke-linecap="round" stroke-linejoin="round" stroke-width="1.166" d="M600 622L514 622 547.712 439 566.288 439z" transform="translate(-477 -193) translate(477 193)"/>
                <path fill="#FFF" d="M535 507L579 507 574.787 484 539.211 484z" transform="translate(-477 -193) translate(477 193)"/>
                <path stroke="#1A2E35" stroke-linecap="round" stroke-linejoin="round" stroke-width="1.166" d="M535 507L579 507 574.787 484 539.211 484z" transform="translate(-477 -193) translate(477 193)"/>
                <g>
                    <path fill="#AF0" d="M0.036 0.453L1.957 12.553" transform="translate(-477 -193) translate(477 193) translate(587 592)"/>
                    <path stroke="#1A2E35" stroke-linecap="round" stroke-linejoin="round" stroke-width="1.166" d="M0.036 0.453L1.957 12.553" transform="translate(-477 -193) translate(477 193) translate(587 592)"/>
                </g>
                <g>
                    <path fill="#AF0" d="M0.744 0.877L22.987 127.83" transform="translate(-477 -193) translate(477 193) translate(562 448)"/>
                    <path stroke="#1A2E35" stroke-linecap="round" stroke-linejoin="round" stroke-width="1.166" d="M0.744 0.877L22.987 127.83" transform="translate(-477 -193) translate(477 193) translate(562 448)"/>
                </g>
                <g stroke="#1A2E35" stroke-linecap="round" stroke-linejoin="round" stroke-width="1.166">
                    <path d="M691.913 1.113L703.543 1.113M.981 1.113L675.68 1.113" transform="translate(-477 -193) translate(477 193) translate(0 631)"/>
                </g>
            </g>
        </g>
    </g>
</svg>
