<svg xmlns="http://www.w3.org/2000/svg" xmlns:xlink="http://www.w3.org/1999/xlink" width="735" height="693" viewBox="0 0 735 693">
    <defs>
        <path id="uwrbyd51ba" d="M0.031 0.173L720.348 0.173 720.348 681.244 0.031 681.244z"/>
        <path id="tmigw6qftc" d="M0.031 0.173L720.348 0.173 720.348 681.244 0.031 681.244z"/>
        <path id="8vc0hrnkke" d="M0 0.601L708.448 0.601 708.448 2.101 0 2.101z"/>
        <path id="wtmnu284lg" d="M0 692L734.348 692 734.348 0.337 0 0.337z"/>
        <path id="ps3hglobhi" d="M75.338.075l-68.03 7.56c-4.75.527-7.812 5.263-6.313 9.777L11.93 49.487c1.588 4.791 6.366 7.802 11.406 7.192l48.031-5.204c4.996-.604 8.886-4.6 9.325-9.58l2.986-33.728c.392-4.423-3.14-8.139-7.489-8.139-.281 0-.565.015-.851.047"/>
    </defs>
    <g fill="none" fill-rule="evenodd">
        <g>
            <g>
                <g>
                    <g transform="translate(-461 -166) translate(461 166) translate(14 11)">
                        <mask id="qgw8szc6rb" fill="#fff">
                            <use xlink:href="#uwrbyd51ba"/>
                        </mask>
                        <path fill="#AF0" d="M.254 364.424s4.171 129.355 112.088 215.574c107.917 86.22 257.459 92.395 378.519 100.584 121.058 8.19 214.045-60.383 228.06-164.042 14.012-103.66-78.491-134.088-128.68-252.085-50.192-117.997-45.726-156.785-151.922-229.357-106.197-72.574-272.322-28.01-359.422 96.319C-8.203 255.746.254 364.424.254 364.424" mask="url(#qgw8szc6rb)"/>
                    </g>
                    <g transform="translate(-461 -166) translate(461 166) translate(14 11)">
                        <mask id="hz2ag0dwbd" fill="#fff">
                            <use xlink:href="#tmigw6qftc"/>
                        </mask>
                        <path fill="#FFF" d="M.254 364.424s4.171 129.355 112.088 215.574c107.917 86.22 257.459 92.395 378.519 100.584 121.058 8.19 214.045-60.383 228.06-164.042 14.012-103.66-78.491-134.088-128.68-252.085-50.192-117.997-45.726-156.785-151.922-229.357-106.197-72.574-272.322-28.01-359.422 96.319C-8.203 255.746.254 364.424.254 364.424" mask="url(#hz2ag0dwbd)"/>
                    </g>
                </g>
                <g transform="translate(-461 -166) translate(461 166) translate(0 400)">
                    <mask id="rzkfhuy86f" fill="#fff">
                        <use xlink:href="#8vc0hrnkke"/>
                    </mask>
                    <path stroke="#1A2E35" stroke-width="1.082" d="M708.448 1.351L0 1.351" mask="url(#rzkfhuy86f)"/>
                </g>
                <g transform="translate(-461 -166) translate(461 166)">
                    <path fill="#1A2E35" d="M132.201 212.125c0 3.673 1.449 6.38 5.167 6.38 3.766 0 5.263-2.707 5.263-6.38V194.53c0-3.675-1.497-6.382-5.263-6.382-3.718 0-5.167 2.707-5.167 6.382v17.596zm-2.222-17.452c0-4.93 2.27-8.557 7.389-8.557 5.215 0 7.484 3.627 7.484 8.557v17.305c0 4.932-2.27 8.557-7.484 8.557-5.119 0-7.39-3.625-7.39-8.557v-17.305zM150.604 212.125c0 3.673 1.45 6.38 5.167 6.38 3.766 0 5.263-2.707 5.263-6.38V194.53c0-3.675-1.497-6.382-5.263-6.382-3.718 0-5.167 2.707-5.167 6.382v17.596zm-2.222-17.452c0-4.93 2.269-8.557 7.389-8.557 5.215 0 7.484 3.627 7.484 8.557v17.305c0 4.932-2.27 8.557-7.484 8.557-5.12 0-7.389-3.625-7.389-8.557v-17.305zM173.35 204.293c3.913 0 5.602-1.74 5.602-5.85v-3.963c0-3.674-1.256-6.044-5.022-6.044h-4.78v15.857h4.2zm.58-17.886c5.215 0 7.244 3.286 7.244 8.216v3.675c0 5.366-2.464 8.025-7.824 8.025h-4.2v13.922h-2.222v-33.838h7.002zM198.756 194.577v.724h-2.126v-.87c0-3.578-1.35-6.285-5.021-6.285s-5.022 2.659-5.022 6.237c0 8.218 12.217 8.363 12.217 17.693 0 4.883-2.124 8.46-7.292 8.46-5.167 0-7.29-3.577-7.29-8.46v-1.741h2.123v1.886c0 3.625 1.4 6.237 5.12 6.237 3.716 0 5.119-2.612 5.119-6.237 0-8.121-12.22-8.266-12.22-17.693 0-5.077 2.223-8.363 7.196-8.411 5.12 0 7.196 3.576 7.196 8.46"/>
                    <mask id="g8zrrwn38h" fill="#fff">
                        <use xlink:href="#wtmnu284lg"/>
                    </mask>
                    <path fill="#1A2E35" d="M202.139 220.246L204.313 220.246 204.313 215.992 202.139 215.992zM208.178 220.246L210.352 220.246 210.352 215.992 208.178 215.992zM214.215 220.246L216.389 220.246 216.389 215.992 214.215 215.992zM91.047 335.984v-50.091l-21.12 50.09h21.12zm-40.335 0l38.053-90.09h22.83v90.09h9.894v19.044h-9.894v24.19H91.047v-24.19H50.712v-19.044zM150.219 348.553c0 9.523 4.183 13.143 10.845 13.143 6.657 0 10.845-3.62 10.845-13.143v-71.995c0-9.523-4.188-13.142-10.845-13.142-6.662 0-10.845 3.62-10.845 13.142v71.995zm-20.93-70.66c0-21.331 11.227-33.522 31.775-33.522s31.771 12.191 31.771 33.521v69.327c0 21.33-11.223 33.521-31.771 33.521-20.548 0-31.775-12.19-31.775-33.52v-69.328zM241.73 335.984v-50.091l-21.119 50.09h21.12zm-40.334 0l38.053-90.09h22.83v90.09h9.894v19.044h-9.894v24.19H241.73v-24.19h-40.335v-19.044zM59.321 428.756c3.833 0 5.49-1.705 5.49-5.73v-3.885c0-3.601-1.231-5.921-4.922-5.921h-4.683v15.536h4.115zm.568-17.526c5.111 0 7.097 3.222 7.097 8.053v3.6c0 5.256-2.412 7.861-7.665 7.861h-4.115v13.643h-2.178V411.23h6.861zM73.143 435.15h9.652l-4.874-21.456-4.778 21.455zm-.333 1.894l-1.655 7.342h-1.986l7.238-33.204h3.172l7.38 33.204h-2.176l-1.656-7.342H72.81zM104.377 419.33v2.463h-2.083v-2.605c0-3.553-1.372-6.253-5.015-6.253-3.644 0-5.016 2.7-5.016 6.253v17.241c0 3.553 1.372 6.205 5.016 6.205 3.643 0 5.015-2.652 5.015-6.205v-7.151h-4.4v-1.992h6.483v9.002c0 4.783-2.083 8.382-7.148 8.382-5.06 0-7.142-3.6-7.142-8.382V419.33c0-4.785 2.081-8.385 7.142-8.385 5.065 0 7.148 3.6 7.148 8.385M119.236 426.576L119.236 428.566 110.197 428.566 110.197 442.397 121.079 442.397 121.079 444.387 108.021 444.387 108.021 411.229 121.079 411.229 121.079 413.22 110.197 413.22 110.197 426.576zM133.954 444.386L131.968 444.386 131.968 411.23 134.807 411.23 144.742 439.223 144.742 411.23 146.73 411.23 146.73 444.386 144.316 444.386 133.954 414.831zM152.507 436.43c0 3.6 1.419 6.25 5.063 6.25 3.69 0 5.156-2.65 5.156-6.25v-17.241c0-3.6-1.465-6.254-5.156-6.254-3.644 0-5.063 2.654-5.063 6.254v17.24zm-2.177-17.1c0-4.831 2.224-8.385 7.24-8.385 5.11 0 7.333 3.554 7.333 8.385v16.958c0 4.83-2.224 8.383-7.333 8.383-5.016 0-7.24-3.554-7.24-8.383V419.33zM174.084 444.386L174.084 413.22 167.368 413.22 167.368 411.23 183.027 411.23 183.027 413.22 176.261 413.22 176.261 444.386zM203.804 427.382L203.804 429.37 195.24 429.37 195.24 444.386 193.064 444.386 193.064 411.229 205.65 411.229 205.65 413.221 195.24 413.221 195.24 427.382zM211 436.43c0 3.6 1.418 6.25 5.063 6.25 3.69 0 5.157-2.65 5.157-6.25v-17.241c0-3.6-1.467-6.254-5.157-6.254-3.645 0-5.063 2.654-5.063 6.254v17.24zm-2.176-17.1c0-4.831 2.222-8.385 7.239-8.385 5.11 0 7.333 3.554 7.333 8.385v16.958c0 4.83-2.222 8.383-7.333 8.383-5.017 0-7.24-3.554-7.24-8.383V419.33zM229.078 436.382c0 3.551 1.327 6.3 4.97 6.3 3.644 0 4.967-2.749 4.967-6.3V411.23h2.036v25.057c0 4.736-1.987 8.383-7.05 8.383-5.065 0-7.1-3.647-7.1-8.383V411.23h2.177v25.152zM246.777 444.386L244.791 444.386 244.791 411.23 247.631 411.23 257.565 439.223 257.565 411.23 259.553 411.23 259.553 444.386 257.139 444.386 246.777 414.831zM270.534 442.398c3.69 0 5.204-2.51 5.204-6.16v-16.861c0-3.648-1.56-6.156-5.204-6.156h-5.063v29.177h5.063zm.048-31.17c5.11 0 7.334 3.364 7.334 8.244v16.674c0 4.877-2.225 8.24-7.334 8.24h-7.287v-33.157h7.287z" mask="url(#g8zrrwn38h)"/>
                </g>
                <g fill="#1A2E35">
                    <path d="M86.916 13.019H6.721c-3.497 0-6.332-2.836-6.332-6.332C.39 3.188 3.224.353 6.721.353h80.195c3.496 0 6.33 2.835 6.33 6.334 0 3.496-2.834 6.332-6.33 6.332" transform="translate(-461 -166) translate(461 166) translate(595 343)"/>
                </g>
                <g>
                    <path fill="#1A2E35" d="M352.245 224.584c-1.238 0-2.497-.273-3.685-.85-4.206-2.043-5.966-7.114-3.926-11.324.87-1.9 4.85-12.088-5.684-18.842-12.664-8.112-42.11-9.41-52.426-9.26-.046.004-.095.004-.145.004-4.606 0-8.382-3.698-8.463-8.33-.079-4.678 3.64-8.538 8.31-8.618 4.32-.088 42.616-.397 61.848 11.928 18.958 12.148 16.006 31.81 11.794 40.51-1.462 3.024-4.483 4.782-7.623 4.782" transform="translate(-461 -166) translate(461 166) translate(252 260)"/>
                    <path fill="#FFF" d="M391.272 269.32L389.414 275.645 361.172 229.131 360.427 219.083z" transform="translate(-461 -166) translate(461 166) translate(252 260)"/>
                    <path stroke="#1A2E35" stroke-linecap="round" stroke-linejoin="round" stroke-width="1.082" d="M391.272 269.32L389.414 275.645 361.172 229.131 360.427 219.083z" transform="translate(-461 -166) translate(461 166) translate(252 260)"/>
                    <path fill="#FFF" d="M389.414 275.646L398.233 271.294 399.819 265.226 391.272 269.321z" transform="translate(-461 -166) translate(461 166) translate(252 260)"/>
                    <path stroke="#1A2E35" stroke-linecap="round" stroke-linejoin="round" stroke-width="1.082" d="M389.414 275.646L398.233 271.294 399.819 265.226 391.272 269.321z" transform="translate(-461 -166) translate(461 166) translate(252 260)"/>
                    <path fill="#FFF" d="M356.711 213.874L389.413 212.757 399.818 265.227 391.273 269.32z" transform="translate(-461 -166) translate(461 166) translate(252 260)"/>
                    <path stroke="#1A2E35" stroke-linecap="round" stroke-linejoin="round" stroke-width="1.082" d="M356.711 213.874L389.413 212.757 399.818 265.227 391.273 269.32z" transform="translate(-461 -166) translate(461 166) translate(252 260)"/>
                    <path fill="#FFF" d="M352.252 216.105L384.953 271.181 374.178 276.39 325.866 236.946z" transform="translate(-461 -166) translate(461 166) translate(252 260)"/>
                    <path stroke="#1A2E35" stroke-linecap="round" stroke-linejoin="round" stroke-width="1.082" d="M352.252 216.105L384.953 271.181 374.178 276.39 325.866 236.946z" transform="translate(-461 -166) translate(461 166) translate(252 260)"/>
                    <path fill="#FFF" d="M374.177 276.391L372.69 281.972 324.009 243.271 325.865 236.945z" transform="translate(-461 -166) translate(461 166) translate(252 260)"/>
                    <path stroke="#1A2E35" stroke-linecap="round" stroke-linejoin="round" stroke-width="1.082" d="M374.177 276.391L372.69 281.972 324.009 243.271 325.865 236.945z" transform="translate(-461 -166) translate(461 166) translate(252 260)"/>
                    <path fill="#FFF" d="M374.177 276.391L384.954 271.182 383.469 276.763 372.69 281.972z" transform="translate(-461 -166) translate(461 166) translate(252 260)"/>
                    <path stroke="#1A2E35" stroke-linecap="round" stroke-linejoin="round" stroke-width="1.082" d="M374.177 276.391L384.954 271.182 383.469 276.763 372.69 281.972z" transform="translate(-461 -166) translate(461 166) translate(252 260)"/>
                    <path fill="#0669F4" d="M342.1 224.218c0 9.168 7.421 16.598 16.576 16.598 9.156 0 16.574-7.43 16.574-16.598s-7.418-16.597-16.574-16.597c-9.155 0-16.575 7.43-16.575 16.597" transform="translate(-461 -166) translate(461 166) translate(252 260)"/>
                    <path stroke="#1A2E35" stroke-linecap="round" stroke-linejoin="round" stroke-width="1.082" d="M342.1 224.218c0 9.168 7.421 16.598 16.576 16.598 9.156 0 16.574-7.43 16.574-16.598s-7.418-16.597-16.574-16.597c-9.155 0-16.575 7.43-16.575 16.597z" transform="translate(-461 -166) translate(461 166) translate(252 260)"/>
                    <path fill="#FFF" d="M9.38 269.32L11.238 275.645 39.482 229.131 40.225 219.083z" transform="translate(-461 -166) translate(461 166) translate(252 260)"/>
                    <path stroke="#1A2E35" stroke-linecap="round" stroke-linejoin="round" stroke-width="1.082" d="M9.38 269.32L11.238 275.645 39.482 229.131 40.225 219.083z" transform="translate(-461 -166) translate(461 166) translate(252 260)"/>
                    <path fill="#FFF" d="M11.239 275.646L2.419 271.294 0.833 265.226 9.38 269.321z" transform="translate(-461 -166) translate(461 166) translate(252 260)"/>
                    <path stroke="#1A2E35" stroke-linecap="round" stroke-linejoin="round" stroke-width="1.082" d="M11.239 275.646L2.419 271.294 0.833 265.226 9.38 269.321z" transform="translate(-461 -166) translate(461 166) translate(252 260)"/>
                    <path fill="#FFF" d="M43.941 213.874L11.239 212.757 0.832 265.227 9.379 269.32z" transform="translate(-461 -166) translate(461 166) translate(252 260)"/>
                    <path stroke="#1A2E35" stroke-linecap="round" stroke-linejoin="round" stroke-width="1.082" d="M43.941 213.874L11.239 212.757 0.832 265.227 9.379 269.32z" transform="translate(-461 -166) translate(461 166) translate(252 260)"/>
                    <path fill="#FFF" d="M48.401 216.105L15.697 271.181 26.474 276.39 74.784 236.946z" transform="translate(-461 -166) translate(461 166) translate(252 260)"/>
                    <path stroke="#1A2E35" stroke-linecap="round" stroke-linejoin="round" stroke-width="1.082" d="M48.401 216.105L15.697 271.181 26.474 276.39 74.784 236.946z" transform="translate(-461 -166) translate(461 166) translate(252 260)"/>
                    <path fill="#FFF" d="M26.475 276.391L27.962 281.972 76.643 243.271 74.785 236.945z" transform="translate(-461 -166) translate(461 166) translate(252 260)"/>
                    <path stroke="#1A2E35" stroke-linecap="round" stroke-linejoin="round" stroke-width="1.082" d="M26.475 276.391L27.962 281.972 76.643 243.271 74.785 236.945z" transform="translate(-461 -166) translate(461 166) translate(252 260)"/>
                    <path fill="#FFF" d="M26.475 276.391L15.698 271.182 17.183 276.763 27.962 281.972z" transform="translate(-461 -166) translate(461 166) translate(252 260)"/>
                    <path stroke="#1A2E35" stroke-linecap="round" stroke-linejoin="round" stroke-width="1.082" d="M26.475 276.391L15.698 271.182 17.183 276.763 27.962 281.972z" transform="translate(-461 -166) translate(461 166) translate(252 260)"/>
                    <path fill="#1A2E35" d="M43.039 230.222c-2.46 0-4.897-1.067-6.57-3.125-2.952-3.63-2.404-8.969 1.222-11.925 67.3-54.84 53.586-136.614 53.439-137.435-.823-4.605 2.24-9.01 6.841-9.834 4.598-.83 9.001 2.242 9.823 6.85.669 3.748 15.533 92.493-59.417 153.567-1.572 1.279-3.462 1.902-5.338 1.902" transform="translate(-461 -166) translate(461 166) translate(252 260)"/>
                    <path fill="#AFAFAF" d="M141.782 54.35c0 18.335-14.841 33.197-33.15 33.197-18.31 0-33.151-14.862-33.151-33.197 0-18.334 14.84-33.197 33.151-33.197 18.309 0 33.15 14.863 33.15 33.197" transform="translate(-461 -166) translate(461 166) translate(252 260)"/>
                    <path stroke="#1A2E35" stroke-linecap="round" stroke-linejoin="round" stroke-width="1.082" d="M141.782 54.35c0 18.335-14.841 33.197-33.15 33.197-18.31 0-33.151-14.862-33.151-33.197 0-18.334 14.84-33.197 33.151-33.197 18.309 0 33.15 14.863 33.15 33.197z" transform="translate(-461 -166) translate(461 166) translate(252 260)"/>
                    <path fill="#0669F4" d="M58.552 224.218c0 9.168-7.421 16.598-16.576 16.598-9.155 0-16.576-7.43-16.576-16.598s7.42-16.597 16.576-16.597c9.155 0 16.576 7.43 16.576 16.597" transform="translate(-461 -166) translate(461 166) translate(252 260)"/>
                    <path stroke="#1A2E35" stroke-linecap="round" stroke-linejoin="round" stroke-width="1.082" d="M58.552 224.218c0 9.168-7.421 16.598-16.576 16.598-9.155 0-16.576-7.43-16.576-16.598s7.42-16.597 16.576-16.597c9.155 0 16.576 7.43 16.576 16.597z" transform="translate(-461 -166) translate(461 166) translate(252 260)"/>
                    <path fill="#AFAFAF" d="M250.017 142.918c0 27.135-23.557 49.134-52.612 49.134-29.057 0-52.614-22-52.614-49.134 0-27.137 23.557-49.134 52.614-49.134 29.055 0 52.612 21.997 52.612 49.134" transform="translate(-461 -166) translate(461 166) translate(252 260)"/>
                    <path stroke="#1A2E35" stroke-linecap="round" stroke-linejoin="round" stroke-width="1.082" d="M250.017 141.918c0 27.135-23.557 49.134-52.612 49.134-29.057 0-52.614-22-52.614-49.134 0-27.137 23.557-49.134 52.614-49.134 29.055 0 52.612 21.997 52.612 49.134z" transform="translate(-461 -166) translate(461 166) translate(252 260)"/>
                    <path fill="#1A2E35" d="M169.984 120.927l4.922 19.205c2.986 9.807 12.588 16.043 22.75 14.777 10.154-1.266 17.931-9.656 18.435-19.891l.957-19.37-47.064 5.279z" transform="translate(-461 -166) translate(461 166) translate(252 260)"/>
                    <path stroke="#1A2E35" stroke-linecap="round" stroke-linejoin="round" stroke-width="1.082" d="M169.984 120.927l4.922 19.205c2.986 9.807 12.588 16.043 22.75 14.777 10.154-1.266 17.931-9.656 18.435-19.891l.957-19.37-47.064 5.279z" transform="translate(-461 -166) translate(461 166) translate(252 260)"/>
                    <path fill="#1A2E35" d="M273.7 24.318c-8.525 0-14.182-1.849-14.67-2.014l1.354-4.014c.237.077 23.796 7.678 47.774-9.883l2.5 3.42c-13.76 10.078-27.228 12.49-36.959 12.49M300.134 56.179c-19.396-28.407-41.475-26.257-41.692-26.235l-.475-4.212c1.006-.117 24.854-2.425 45.657 28.054l-3.49 2.393zM295.234 76.237c-25.106-7.737-40.213-41.215-40.844-42.638l3.867-1.72c.147.328 14.967 33.142 38.22 40.309l-1.243 4.049z" transform="translate(-461 -166) translate(461 166) translate(252 260)"/>
                    <path stroke="#1A2E35" stroke-width="1.082" d="M308.281 11.248L315.058 6.723M299.997 51.213L304.516 60.262M292.09 72.703s5.647 1.509 10.918 1.509" transform="translate(-461 -166) translate(461 166) translate(252 260)"/>
                    <path fill="#FFF" d="M101.688 18.079L107.941 61.918 263.724 45.977 263.157 0.43z" transform="translate(-461 -166) translate(461 166) translate(252 260)"/>
                    <path stroke="#1A2E35" stroke-linecap="round" stroke-linejoin="round" stroke-width="1.082" d="M101.688 18.079L107.941 61.918 263.724 45.977 263.157 0.43z" transform="translate(-461 -166) translate(461 166) translate(252 260)"/>
                    <path fill="#E6E6E6" d="M107.942 61.918L135.802 132.515 255.766 120.558 263.725 45.977z" transform="translate(-461 -166) translate(461 166) translate(252 260)"/>
                    <path stroke="#1A2E35" stroke-linecap="round" stroke-linejoin="round" stroke-width="1.082" d="M107.942 61.918L135.802 132.515 255.766 120.558 263.725 45.977z" transform="translate(-461 -166) translate(461 166) translate(252 260)"/>
                    <path fill="#1A2E35" d="M145.529 80.424l10.94 32.343c1.589 4.832 6.365 7.87 11.41 7.255l48.044-5.25c4.998-.61 8.888-4.638 9.328-9.66l2.986-34.009c.418-4.749-3.612-8.69-8.342-8.16l-68.049 7.621c-4.753.532-7.815 5.31-6.317 9.86" transform="translate(-461 -166) translate(461 166) translate(252 260)"/>
                </g>
                <g transform="translate(-461 -166) translate(461 166) translate(396 323)">
                    <mask id="rdngrdb9pj" fill="#fff">
                        <use xlink:href="#ps3hglobhi"/>
                    </mask>
                    <path stroke="#FFF" stroke-linecap="round" stroke-linejoin="round" stroke-width="1.082" d="M0.981 34.972L20.825 33.226 27.105 16.258 41.925 42.708 49.46 22.995 53.23 29.232 89.15 24.99" mask="url(#rdngrdb9pj)"/>
                </g>
                <g>
                    <path stroke="#1A2E35" stroke-linecap="round" stroke-linejoin="round" stroke-width="1.082" d="M179.576 172.294l10.938 32.252c1.589 4.818 6.365 7.847 11.408 7.234l48.035-5.235c4.997-.607 8.887-4.625 9.326-9.632L262.27 163c.418-4.735-3.612-8.665-8.341-8.137l-68.036 7.6c-4.752.53-7.814 5.294-6.316 9.831z" transform="translate(-461 -166) translate(461 166) translate(218 168)"/>
                    <path fill="#FFF" d="M288.405 158.487c0 4.81-3.906 8.71-8.721 8.71-4.819 0-8.723-3.9-8.723-8.71 0-4.811 3.904-8.71 8.723-8.71 4.815 0 8.721 3.899 8.721 8.71" transform="translate(-461 -166) translate(461 166) translate(218 168)"/>
                    <path stroke="#1A2E35" stroke-linecap="round" stroke-linejoin="round" stroke-width="1.082" d="M288.405 158.487c0 4.81-3.906 8.71-8.721 8.71-4.819 0-8.723-3.9-8.723-8.71 0-4.811 3.904-8.71 8.723-8.71 4.815 0 8.721 3.899 8.721 8.71z" transform="translate(-461 -166) translate(461 166) translate(218 168)"/>
                    <path fill="#0669F4" d="M279.592 193.874c-4.514 0-8.175-3.658-8.175-8.168s3.66-8.165 8.175-8.165c4.517 0 8.177 3.655 8.177 8.165s-3.66 8.168-8.177 8.168z" transform="translate(-461 -166) translate(461 166) translate(218 168)"/>
                    <path stroke="#1A2E35" stroke-linecap="round" stroke-linejoin="round" stroke-width="1.082" d="M287.77 185.706c0 4.51-3.66 8.168-8.178 8.168-4.514 0-8.175-3.658-8.175-8.168s3.66-8.165 8.175-8.165c4.517 0 8.177 3.655 8.177 8.165z" transform="translate(-461 -166) translate(461 166) translate(218 168)"/>
                    <path fill="#0669F4" d="M173.562 167.95c1.39 4.604-1.221 9.465-5.832 10.853-4.613 1.388-9.478-1.22-10.87-5.826-1.39-4.607 1.223-9.466 5.834-10.854 4.612-1.388 9.478 1.22 10.868 5.826" transform="translate(-461 -166) translate(461 166) translate(218 168)"/>
                    <path stroke="#1A2E35" stroke-linecap="round" stroke-linejoin="round" stroke-width="1.082" d="M173.562 167.95c1.39 4.604-1.221 9.465-5.832 10.853-4.613 1.388-9.478-1.22-10.87-5.826-1.39-4.607 1.223-9.466 5.834-10.854 4.612-1.388 9.478 1.22 10.868 5.826z" transform="translate(-461 -166) translate(461 166) translate(218 168)"/>
                    <path fill="#FFF" d="M179.863 194.482c1.304 4.318-1.146 8.874-5.47 10.176-4.322 1.3-8.884-1.144-10.186-5.462-1.304-4.317 1.144-8.873 5.466-10.175 4.324-1.3 8.886 1.144 10.19 5.46" transform="translate(-461 -166) translate(461 166) translate(218 168)"/>
                    <path stroke="#1A2E35" stroke-linecap="round" stroke-linejoin="round" stroke-width="1.082" d="M179.863 194.482c1.304 4.318-1.146 8.874-5.47 10.176-4.322 1.3-8.884-1.144-10.186-5.462-1.304-4.317 1.144-8.873 5.466-10.175 4.324-1.3 8.886 1.144 10.19 5.46z" transform="translate(-461 -166) translate(461 166) translate(218 168)"/>
                    <path fill="#0669F4" d="M222.992 268.454c0 12.328-10.371 22.32-23.167 22.32-12.794 0-23.167-9.992-23.167-22.32 0-12.326 10.373-22.32 23.167-22.32 12.796 0 23.167 9.994 23.167 22.32" transform="translate(-461 -166) translate(461 166) translate(218 168)"/>
                    <path stroke="#1A2E35" stroke-linecap="round" stroke-linejoin="round" stroke-width="1.082" d="M222.992 268.454c0 12.328-10.371 22.32-23.167 22.32-12.794 0-23.167-9.992-23.167-22.32 0-12.326 10.373-22.32 23.167-22.32 12.796 0 23.167 9.994 23.167 22.32z" transform="translate(-461 -166) translate(461 166) translate(218 168)"/>
                    <path fill="#1A2E35" d="M165.758 318.54l21.223-47.575c1.886-4.227 6.637-6.376 11.063-5.004 4.548 1.41 7.253 6.068 6.216 10.71l-13.972 62.556-24.53-20.687z" transform="translate(-461 -166) translate(461 166) translate(218 168)"/>
                    <path stroke="#1A2E35" stroke-linecap="round" stroke-linejoin="round" stroke-width="1.082" d="M165.758 318.54l21.223-47.575c1.886-4.227 6.637-6.376 11.063-5.004 4.548 1.41 7.253 6.068 6.216 10.71l-13.972 62.556-24.53-20.687z" transform="translate(-461 -166) translate(461 166) translate(218 168)"/>
                    <path fill="#AFAFAF" d="M158.67 245.59l46.334 108.88-55.6 7.623s-33.252-33.755-55.6-97.994l64.866-18.509z" transform="translate(-461 -166) translate(461 166) translate(218 168)"/>
                    <path stroke="#1A2E35" stroke-linecap="round" stroke-linejoin="round" stroke-width="1.082" d="M158.67 245.59l46.334 108.88-55.6 7.623s-33.252-33.755-55.6-97.994l64.866-18.509z" transform="translate(-461 -166) translate(461 166) translate(218 168)"/>
                    <path fill="#FFF" d="M158.67 245.59L160.851 235.247 207.185 346.303 205.004 354.47z" transform="translate(-461 -166) translate(461 166) translate(218 168)"/>
                    <path stroke="#1A2E35" stroke-linecap="round" stroke-linejoin="round" stroke-width="1.082" d="M158.67 245.59L160.851 235.247 207.185 346.303 205.004 354.47z" transform="translate(-461 -166) translate(461 166) translate(218 168)"/>
                    <path fill="#FFF" d="M160.85 235.246L97.619 254.301 93.803 264.099 158.67 245.59z" transform="translate(-461 -166) translate(461 166) translate(218 168)"/>
                    <path stroke="#1A2E35" stroke-linecap="round" stroke-linejoin="round" stroke-width="1.082" d="M160.85 235.246L97.619 254.301 93.803 264.099 158.67 245.59zM98.164 274.443L161.942 254.845M103.071 285.875L167.392 268.454M107.976 297.853L172.843 280.431M115.062 312.551L178.293 294.042M121.775 324.231L184.836 307.651M128.696 334.913L190.287 320.174M136.665 345.177L194.102 331.606" transform="translate(-461 -166) translate(461 166) translate(218 168)"/>
                    <g>
                        <path fill="#FFF" d="M0.65 9.668L57.696 0.242" transform="translate(-461 -166) translate(461 166) translate(218 168) translate(141.678 343.887)"/>
                        <path stroke="#1A2E35" stroke-linecap="round" stroke-linejoin="round" stroke-width="1.082" d="M0.65 9.668L57.696 0.242" transform="translate(-461 -166) translate(461 166) translate(218 168) translate(141.678 343.887)"/>
                    </g>
                    <path fill="#0669F4" d="M261.54 290.775c12.795 0 23.167-9.993 23.167-22.32s-10.372-22.321-23.167-22.321c-12.796 0-23.167 9.994-23.167 22.32 0 12.328 10.37 22.32 23.167 22.32z" transform="translate(-461 -166) translate(461 166) translate(218 168)"/>
                    <path stroke="#1A2E35" stroke-linecap="round" stroke-linejoin="round" stroke-width="1.082" d="M238.373 268.454c0 12.328 10.37 22.32 23.167 22.32 12.795 0 23.167-9.992 23.167-22.32 0-12.326-10.372-22.32-23.167-22.32-12.796 0-23.167 9.994-23.167 22.32z" transform="translate(-461 -166) translate(461 166) translate(218 168)"/>
                    <path fill="#1A2E35" d="M295.609 318.54l-21.225-47.575c-1.885-4.227-6.638-6.376-11.064-5.004-4.548 1.41-7.25 6.068-6.214 10.71l13.973 62.556 24.53-20.687z" transform="translate(-461 -166) translate(461 166) translate(218 168)"/>
                    <path stroke="#1A2E35" stroke-linecap="round" stroke-linejoin="round" stroke-width="1.082" d="M295.609 318.54l-21.225-47.575c-1.885-4.227-6.638-6.376-11.064-5.004-4.548 1.41-7.25 6.068-6.214 10.71l13.973 62.556 24.53-20.687z" transform="translate(-461 -166) translate(461 166) translate(218 168)"/>
                    <path fill="#AFAFAF" d="M302.695 245.59L256.36 354.47l55.6 7.623s33.251-33.755 55.6-97.994l-64.866-18.509z" transform="translate(-461 -166) translate(461 166) translate(218 168)"/>
                    <path stroke="#1A2E35" stroke-linecap="round" stroke-linejoin="round" stroke-width="1.082" d="M302.695 245.59L256.36 354.47l55.6 7.623s33.251-33.755 55.6-97.994l-64.866-18.509z" transform="translate(-461 -166) translate(461 166) translate(218 168)"/>
                    <path fill="#FFF" d="M302.695 245.59L300.514 235.247 254.18 346.303 256.361 354.47z" transform="translate(-461 -166) translate(461 166) translate(218 168)"/>
                    <path stroke="#1A2E35" stroke-linecap="round" stroke-linejoin="round" stroke-width="1.082" d="M302.695 245.59L300.514 235.247 254.18 346.303 256.361 354.47z" transform="translate(-461 -166) translate(461 166) translate(218 168)"/>
                    <path fill="#FFF" d="M300.514 235.246L363.745 254.301 367.562 264.099 302.695 245.59z" transform="translate(-461 -166) translate(461 166) translate(218 168)"/>
                    <path stroke="#1A2E35" stroke-linecap="round" stroke-linejoin="round" stroke-width="1.082" d="M300.514 235.246L363.745 254.301 367.562 264.099 302.695 245.59zM363.2 274.443L299.424 254.845M358.295 285.875L293.973 268.454M353.389 297.853L288.522 280.431M346.303 312.551L283.07 294.042M339.59 324.231L276.529 307.651M332.669 334.913L271.079 320.174M324.699 345.177L267.263 331.606M319.036 353.555L261.991 344.128" transform="translate(-461 -166) translate(461 166) translate(218 168)"/>
                    <path stroke="#1A2E35" stroke-width="1.082" d="M344.932 152.565L350.954 155.196M341.168 154.821L347.19 164.22M337.78 155.197L336.651 161.211M352.461 116.097L367.144 116.097M341.168 116.85L362.25 122.864M349.074 108.954L362.627 107.075M300.512 155.573L304.277 166.475M305.406 154.821L315.947 172.115M309.171 144.67L319.334 148.053" transform="translate(-461 -166) translate(461 166) translate(218 168)"/>
                    <path fill="#0669F4" d="M365.26 139.031L361.86 142.72 364.322 147.091 359.758 144.999 356.356 148.688 356.935 143.707 352.373 141.615 357.296 140.628 357.877 135.647 360.339 140.018z" transform="translate(-461 -166) translate(461 166) translate(218 168)"/>
                    <path stroke="#1A2E35" stroke-linecap="round" stroke-linejoin="round" stroke-width=".541" d="M365.26 139.031L361.86 142.72 364.322 147.091 359.758 144.999 356.356 148.688 356.935 143.707 352.373 141.615 357.296 140.628 357.877 135.647 360.339 140.018z" transform="translate(-461 -166) translate(461 166) translate(218 168)"/>
                    <path fill="#0669F4" d="M370.53 89.404L367.13 93.094 369.592 97.464 365.028 95.372 361.626 99.062 362.207 94.081 357.643 91.989 362.567 91.002 363.146 86.021 365.609 90.391z" transform="translate(-461 -166) translate(461 166) translate(218 168)"/>
                    <path stroke="#1A2E35" stroke-linecap="round" stroke-linejoin="round" stroke-width=".541" d="M370.53 89.404L367.13 93.094 369.592 97.464 365.028 95.372 361.626 99.062 362.207 94.081 357.643 91.989 362.567 91.002 363.146 86.021 365.609 90.391z" transform="translate(-461 -166) translate(461 166) translate(218 168)"/>
                    <path fill="#0669F4" d="M315.571 176.251L312.17 179.94 314.631 184.309 310.067 182.219 306.665 185.908 307.246 180.925 302.681 178.835 307.606 177.848 308.185 172.867 310.648 177.238z" transform="translate(-461 -166) translate(461 166) translate(218 168)"/>
                    <path stroke="#1A2E35" stroke-linecap="round" stroke-linejoin="round" stroke-width=".541" d="M315.571 176.251L312.17 179.94 314.631 184.309 310.067 182.219 306.665 185.908 307.246 180.925 302.681 178.835 307.606 177.848 308.185 172.867 310.648 177.238z" transform="translate(-461 -166) translate(461 166) translate(218 168)"/>
                    <path fill="#AFAFAF" d="M178.376 69.252c0 13.795-11.323 24.978-25.294 24.978-13.972 0-25.295-11.183-25.295-24.978 0-13.797 11.323-24.98 25.295-24.98 13.97 0 25.294 11.183 25.294 24.98" transform="translate(-461 -166) translate(461 166) translate(218 168)"/>
                    <path stroke="#1A2E35" stroke-linecap="round" stroke-linejoin="round" stroke-width="1.082" d="M178.376 69.252c0 13.795-11.323 24.978-25.294 24.978-13.972 0-25.295-11.183-25.295-24.978 0-13.797 11.323-24.98 25.295-24.98 13.97 0 25.294 11.183 25.294 24.98z" transform="translate(-461 -166) translate(461 166) translate(218 168)"/>
                    <path fill="#AFAFAF" d="M288.656 62.44c0 13.794-11.326 24.978-25.294 24.978-13.974 0-25.298-11.184-25.298-24.979 0-13.796 11.324-24.98 25.298-24.98 13.968 0 25.294 11.184 25.294 24.98" transform="translate(-461 -166) translate(461 166) translate(218 168)"/>
                    <path stroke="#1A2E35" stroke-linecap="round" stroke-linejoin="round" stroke-width="1.082" d="M288.656 62.44c0 13.794-11.326 24.978-25.294 24.978-13.974 0-25.298-11.184-25.298-24.979 0-13.796 11.324-24.98 25.298-24.98 13.968 0 25.294 11.184 25.294 24.98z" transform="translate(-461 -166) translate(461 166) translate(218 168)"/>
                    <path fill="#0669F4" d="M244.317 114.953c0 16.775-14.253 30.373-31.833 30.373-17.582 0-31.833-13.598-31.833-30.373 0-16.776 14.25-30.373 31.833-30.373 17.58 0 31.833 13.597 31.833 30.373" transform="translate(-461 -166) translate(461 166) translate(218 168)"/>
                    <path stroke="#1A2E35" stroke-linecap="round" stroke-linejoin="round" stroke-width="1.082" d="M244.317 114.953c0 16.775-14.253 30.373-31.833 30.373-17.582 0-31.833-13.598-31.833-30.373 0-16.776 14.25-30.373 31.833-30.373 17.58 0 31.833 13.597 31.833 30.373z" transform="translate(-461 -166) translate(461 166) translate(218 168)"/>
                    <path fill="#1A2E35" d="M189.177 99.34l4.394 19.28c2.718 9.857 12.143 16.336 22.333 15.35 10.183-.984 18.185-9.136 18.968-19.321l1.487-19.283-47.182 3.974z" transform="translate(-461 -166) translate(461 166) translate(218 168)"/>
                    <path stroke="#1A2E35" stroke-linecap="round" stroke-linejoin="round" stroke-width="1.082" d="M189.177 99.34l4.394 19.28c2.718 9.857 12.143 16.336 22.333 15.35 10.183-.984 18.185-9.136 18.968-19.321l1.487-19.283-47.182 3.974z" transform="translate(-461 -166) translate(461 166) translate(218 168)"/>
                    <path fill="#FFF" d="M160.187 18.157L148.25 65.845 267.055 56.195 249.433 10.776z" transform="translate(-461 -166) translate(461 166) translate(218 168)"/>
                    <path stroke="#1A2E35" stroke-linecap="round" stroke-linejoin="round" stroke-width="1.082" d="M160.187 18.157L148.25 65.845 267.055 56.195 249.433 10.776z" transform="translate(-461 -166) translate(461 166) translate(218 168)"/>
                    <path fill="#E6E6E6" d="M148.249 65.845L169.282 118.075 262.508 108.992 267.054 56.195z" transform="translate(-461 -166) translate(461 166) translate(218 168)"/>
                    <path stroke="#1A2E35" stroke-linecap="round" stroke-linejoin="round" stroke-width="1.082" d="M148.249 65.845L169.282 118.075 262.508 108.992 267.054 56.195z" transform="translate(-461 -166) translate(461 166) translate(218 168)"/>
                    <path fill="#0669F4" d="M201.673 87.147c-.31 7.415-6.799 13.26-14.568 13.845-7.814.591-15.38-4.254-17.033-11.613-1.89-8.407 4.494-16.677 14.447-17.318 9.878-.636 17.507 6.63 17.154 15.086" transform="translate(-461 -166) translate(461 166) translate(218 168)"/>
                    <path stroke="#1A2E35" stroke-linecap="round" stroke-linejoin="round" stroke-width="1.082" d="M201.673 87.147c-.31 7.415-6.799 13.26-14.568 13.845-7.814.591-15.38-4.254-17.033-11.613-1.89-8.407 4.494-16.677 14.447-17.318 9.878-.636 17.507 6.63 17.154 15.086z" transform="translate(-461 -166) translate(461 166) translate(218 168)"/>
                    <path fill="#FFF" d="M195.737 87.566c.036 4.705-4.002 8.558-9.035 8.929-5.05.372-9.768-2.859-10.58-7.544-.88-5.087 3.125-9.862 8.99-10.254 5.839-.39 10.588 3.763 10.625 8.869" transform="translate(-461 -166) translate(461 166) translate(218 168)"/>
                    <path stroke="#1A2E35" stroke-linecap="round" stroke-linejoin="round" stroke-width="1.082" d="M195.737 87.566c.036 4.705-4.002 8.558-9.035 8.929-5.05.372-9.768-2.859-10.58-7.544-.88-5.087 3.125-9.862 8.99-10.254 5.839-.39 10.588 3.763 10.625 8.869z" transform="translate(-461 -166) translate(461 166) translate(218 168)"/>
                    <path fill="#0669F4" d="M239.97 95.883c-7.814.591-15.378-4.254-17.034-11.613-1.89-8.408 4.495-16.677 14.45-17.318 9.878-.638 17.507 6.63 17.152 15.086-.31 7.415-6.8 13.26-14.568 13.845z" transform="translate(-461 -166) translate(461 166) translate(218 168)"/>
                    <path stroke="#1A2E35" stroke-linecap="round" stroke-linejoin="round" stroke-width="1.082" d="M254.538 82.038c-.31 7.415-6.8 13.26-14.568 13.845-7.814.591-15.378-4.254-17.034-11.613-1.89-8.408 4.495-16.677 14.45-17.318 9.878-.638 17.507 6.63 17.152 15.086z" transform="translate(-461 -166) translate(461 166) translate(218 168)"/>
                    <path fill="#FFF" d="M239.569 91.385c-5.052.373-9.77-2.858-10.581-7.544-.88-5.086 3.124-9.861 8.988-10.255 5.841-.39 10.589 3.765 10.626 8.871.036 4.705-4 8.558-9.033 8.928z" transform="translate(-461 -166) translate(461 166) translate(218 168)"/>
                    <path stroke="#1A2E35" stroke-linecap="round" stroke-linejoin="round" stroke-width="1.082" d="M248.602 82.457c.036 4.705-4 8.558-9.033 8.928-5.052.373-9.77-2.858-10.581-7.544-.88-5.086 3.124-9.861 8.988-10.255 5.841-.39 10.589 3.765 10.626 8.871z" transform="translate(-461 -166) translate(461 166) translate(218 168)"/>
                    <path fill="#1A2E35" d="M202.247 108.675c-2.146 0-3.986-1.626-4.205-3.804-.233-2.323 1.465-4.394 3.79-4.626l22.736-2.272c2.328-.247 4.397 1.462 4.632 3.785.231 2.323-1.465 4.393-3.79 4.626l-22.738 2.271c-.141.015-.285.02-.425.02" transform="translate(-461 -166) translate(461 166) translate(218 168)"/>
                    <path stroke="#1A2E35" stroke-linecap="round" stroke-linejoin="round" stroke-width="1.082" d="M202.247 108.675c-2.146 0-3.986-1.626-4.205-3.804-.233-2.323 1.465-4.394 3.79-4.626l22.736-2.272c2.328-.247 4.397 1.462 4.632 3.785.231 2.323-1.465 4.393-3.79 4.626l-22.738 2.271c-.141.015-.285.02-.425.02z" transform="translate(-461 -166) translate(461 166) translate(218 168)"/>
                    <path fill="#0669F4" d="M162.37 41.622c-4.745 0-8.593-3.842-8.593-8.581 0-4.74 3.848-8.581 8.594-8.581 4.745 0 8.592 3.841 8.592 8.58 0 4.74-3.847 8.582-8.592 8.582z" transform="translate(-461 -166) translate(461 166) translate(218 168)"/>
                    <path stroke="#1A2E35" stroke-linecap="round" stroke-linejoin="round" stroke-width="1.082" d="M170.963 33.04c0 4.74-3.847 8.582-8.592 8.582-4.746 0-8.594-3.842-8.594-8.581 0-4.74 3.848-8.581 8.594-8.581 4.745 0 8.592 3.841 8.592 8.58z" transform="translate(-461 -166) translate(461 166) translate(218 168)"/>
                    <path fill="#0669F4" d="M164.402 28.048c0 4.05-3.287 7.332-7.344 7.332-4.055 0-7.342-3.283-7.342-7.332 0-4.05 3.287-7.333 7.342-7.333 4.057 0 7.344 3.283 7.344 7.333" transform="translate(-461 -166) translate(461 166) translate(218 168)"/>
                    <path stroke="#1A2E35" stroke-linecap="round" stroke-linejoin="round" stroke-width="1.082" d="M164.402 28.048c0 4.05-3.287 7.332-7.344 7.332-4.055 0-7.342-3.283-7.342-7.332 0-4.05 3.287-7.333 7.342-7.333 4.057 0 7.344 3.283 7.344 7.333z" transform="translate(-461 -166) translate(461 166) translate(218 168)"/>
                    <path fill="#0669F4" d="M155.652 20.247c0 3.188-2.587 5.772-5.78 5.772-3.192 0-5.78-2.584-5.78-5.772s2.588-5.775 5.78-5.775c3.193 0 5.78 2.587 5.78 5.775" transform="translate(-461 -166) translate(461 166) translate(218 168)"/>
                    <path stroke="#1A2E35" stroke-linecap="round" stroke-linejoin="round" stroke-width="1.082" d="M155.652 20.247c0 3.188-2.587 5.772-5.78 5.772-3.192 0-5.78-2.584-5.78-5.772s2.588-5.775 5.78-5.775c3.193 0 5.78 2.587 5.78 5.775zM148.467 18.218L135.344 6.049" transform="translate(-461 -166) translate(461 166) translate(218 168)"/>
                    <path fill="#0669F4" d="M246.733 35.694c4.746 0 8.593-3.844 8.593-8.583 0-4.74-3.847-8.581-8.593-8.581-4.745 0-8.593 3.842-8.593 8.581 0 4.74 3.848 8.583 8.593 8.583z" transform="translate(-461 -166) translate(461 166) translate(218 168)"/>
                    <path stroke="#1A2E35" stroke-linecap="round" stroke-linejoin="round" stroke-width="1.082" d="M238.14 27.111c0 4.74 3.848 8.583 8.593 8.583 4.746 0 8.593-3.844 8.593-8.583 0-4.74-3.847-8.581-8.593-8.581-4.745 0-8.593 3.842-8.593 8.581z" transform="translate(-461 -166) translate(461 166) translate(218 168)"/>
                    <path fill="#0669F4" d="M244.702 22.12c0 4.049 3.287 7.332 7.342 7.332s7.342-3.283 7.342-7.333c0-4.051-3.287-7.334-7.342-7.334s-7.342 3.283-7.342 7.334" transform="translate(-461 -166) translate(461 166) translate(218 168)"/>
                    <path stroke="#1A2E35" stroke-linecap="round" stroke-linejoin="round" stroke-width="1.082" d="M244.702 22.12c0 4.049 3.287 7.332 7.342 7.332s7.342-3.283 7.342-7.333c0-4.051-3.287-7.334-7.342-7.334s-7.342 3.283-7.342 7.334z" transform="translate(-461 -166) translate(461 166) translate(218 168)"/>
                    <path fill="#0669F4" d="M259.232 20.09c3.19 0 5.778-2.584 5.778-5.773 0-3.188-2.588-5.772-5.778-5.772-3.194 0-5.782 2.584-5.782 5.772 0 3.189 2.588 5.773 5.782 5.773z" transform="translate(-461 -166) translate(461 166) translate(218 168)"/>
                    <path stroke="#1A2E35" stroke-linecap="round" stroke-linejoin="round" stroke-width="1.082" d="M253.45 14.317c0 3.189 2.588 5.773 5.782 5.773 3.19 0 5.778-2.584 5.778-5.773 0-3.188-2.588-5.772-5.778-5.772-3.194 0-5.782 2.584-5.782 5.772zM260.637 12.289L273.76.119" transform="translate(-461 -166) translate(461 166) translate(218 168)"/>
                    <path fill="#FFF" d="M241.397 327.313c0 4.132-2.74 7.482-6.12 7.482-3.381 0-6.122-3.35-6.122-7.482s2.74-7.481 6.121-7.481c3.38 0 6.121 3.35 6.121 7.481" transform="translate(-461 -166) translate(461 166) translate(218 168)"/>
                    <path stroke="#1A2E35" stroke-linecap="round" stroke-linejoin="round" stroke-width="1.082" d="M241.397 327.313c0 4.132-2.74 7.482-6.12 7.482-3.381 0-6.122-3.35-6.122-7.482s2.74-7.481 6.121-7.481c3.38 0 6.121 3.35 6.121 7.481z" transform="translate(-461 -166) translate(461 166) translate(218 168)"/>
                    <path fill="#FFF" d="M253.523 333.573c-.152 0-.308-.01-.464-.034l-17.016-2.484c-1.732-.254-2.934-1.864-2.679-3.595.253-1.732 1.867-2.926 3.6-2.68l17.015 2.487c1.736.254 2.936 1.864 2.681 3.595-.231 1.576-1.587 2.711-3.137 2.711" transform="translate(-461 -166) translate(461 166) translate(218 168)"/>
                    <path stroke="#1A2E35" stroke-width="1.082" d="M253.523 333.573c-.152 0-.308-.01-.464-.034l-17.016-2.484c-1.732-.254-2.934-1.864-2.679-3.595.253-1.732 1.867-2.926 3.6-2.68l17.015 2.487c1.736.254 2.936 1.864 2.681 3.595-.231 1.576-1.587 2.711-3.137 2.711z" transform="translate(-461 -166) translate(461 166) translate(218 168)"/>
                    <path fill="#FFF" d="M15.662 362.311c-2.216-3.487-1.7-7.784 1.155-9.591 2.853-1.81 6.966-.446 9.18 3.043 2.217 3.487 1.7 7.78-1.154 9.59-2.854 1.808-6.964.447-9.18-3.042" transform="translate(-461 -166) translate(461 166) translate(218 168)"/>
                    <path stroke="#1A2E35" stroke-linecap="round" stroke-linejoin="round" stroke-width="1.082" d="M15.662 362.311c-2.216-3.487-1.7-7.784 1.155-9.591 2.853-1.81 6.966-.446 9.18 3.043 2.217 3.487 1.7 7.78-1.154 9.59-2.854 1.808-6.964.447-9.18-3.042z" transform="translate(-461 -166) translate(461 166) translate(218 168)"/>
                    <path fill="#FFF" d="M2.064 363.514c.129-.082.265-.155.41-.22l15.702-7.005c1.6-.714 3.475.004 4.19 1.6.715 1.6-.006 3.47-1.603 4.189l-15.7 7.003c-1.602.715-3.48-.002-4.194-1.6-.649-1.456-.113-3.137 1.195-3.967" transform="translate(-461 -166) translate(461 166) translate(218 168)"/>
                    <path stroke="#1A2E35" stroke-width="1.082" d="M2.064 363.514c.129-.082.265-.155.41-.22l15.702-7.005c1.6-.714 3.475.004 4.19 1.6.715 1.6-.006 3.47-1.603 4.189l-15.7 7.003c-1.602.715-3.48-.002-4.194-1.6-.649-1.456-.113-3.137 1.195-3.967z" transform="translate(-461 -166) translate(461 166) translate(218 168)"/>
                    <path fill="#FFF" d="M422.102 282.073c-2.217-3.49-1.7-7.784 1.155-9.591 2.853-1.81 6.964-.448 9.18 3.04 2.217 3.49 1.7 7.783-1.155 9.592-2.855 1.81-6.965.446-9.18-3.041" transform="translate(-461 -166) translate(461 166) translate(218 168)"/>
                    <path stroke="#1A2E35" stroke-linecap="round" stroke-linejoin="round" stroke-width="1.082" d="M422.102 282.073c-2.217-3.49-1.7-7.784 1.155-9.591 2.853-1.81 6.964-.448 9.18 3.04 2.217 3.49 1.7 7.783-1.155 9.592-2.855 1.81-6.965.446-9.18-3.041z" transform="translate(-461 -166) translate(461 166) translate(218 168)"/>
                    <path fill="#FFF" d="M408.503 283.275c.129-.081.265-.156.41-.22l15.701-7.004c1.6-.715 3.478.004 4.192 1.6.715 1.597-.008 3.47-1.602 4.187l-15.701 7.003c-1.603.717-3.48-.002-4.193-1.597-.65-1.457-.115-3.14 1.193-3.97" transform="translate(-461 -166) translate(461 166) translate(218 168)"/>
                    <path stroke="#1A2E35" stroke-width="1.082" d="M408.503 283.275c.129-.081.265-.156.41-.22l15.701-7.004c1.6-.715 3.478.004 4.192 1.6.715 1.597-.008 3.47-1.602 4.187l-15.701 7.003c-1.603.717-3.48-.002-4.193-1.597-.65-1.457-.115-3.14 1.193-3.97z" transform="translate(-461 -166) translate(461 166) translate(218 168)"/>
                    <path fill="#FFF" d="M118.796 377.308c-3.702 0-6.702-1.773-6.702-3.962s3-3.962 6.702-3.962 6.702 1.773 6.702 3.962-3 3.962-6.702 3.962m0-11.62c-7.157 0-12.959 3.427-12.959 7.658 0 4.229 5.802 7.659 12.959 7.659s12.959-3.43 12.959-7.659c0-4.23-5.802-7.659-12.959-7.659" transform="translate(-461 -166) translate(461 166) translate(218 168)"/>
                    <path stroke="#1A2E35" stroke-width="1.082" d="M118.796 377.308c-3.702 0-6.702-1.773-6.702-3.962s3-3.962 6.702-3.962 6.702 1.773 6.702 3.962-3 3.962-6.702 3.962zm0-11.62c-7.157 0-12.959 3.427-12.959 7.658 0 4.229 5.802 7.659 12.959 7.659s12.959-3.43 12.959-7.659c0-4.23-5.802-7.659-12.959-7.659z" transform="translate(-461 -166) translate(461 166) translate(218 168)"/>
                    <path fill="#FFF" d="M229.152 376.986h-4.99l-3.113-3.211 1.112-4.003 4.494-1.783 4.498 1.783 1.11 4.003-3.111 3.211zm6.36-10.075l-8.857-3.51-8.854 3.51-2.188 7.884 6.128 6.325h9.832l6.128-6.325-2.188-7.884z" transform="translate(-461 -166) translate(461 166) translate(218 168)"/>
                    <path stroke="#1A2E35" stroke-linecap="round" stroke-linejoin="round" stroke-width="1.082" d="M229.152 376.986h-4.99l-3.113-3.211 1.112-4.003 4.494-1.783 4.498 1.783 1.11 4.003-3.111 3.211zm6.36-10.075l-8.857-3.51-8.854 3.51-2.188 7.884 6.128 6.325h9.832l6.128-6.325-2.188-7.884z" transform="translate(-461 -166) translate(461 166) translate(218 168)"/>
                    <path fill="#FFF" d="M396.933 262.565h-4.99l-3.114-3.211 1.112-4.003 4.496-1.782 4.498 1.782 1.11 4.003-3.112 3.211zm6.362-10.076l-8.858-3.51-8.854 3.51-2.188 7.884 6.128 6.326h9.83l6.13-6.326-2.188-7.884z" transform="translate(-461 -166) translate(461 166) translate(218 168)"/>
                    <path stroke="#1A2E35" stroke-linecap="round" stroke-linejoin="round" stroke-width="1.082" d="M396.933 262.565h-4.99l-3.114-3.211 1.112-4.003 4.496-1.782 4.498 1.782 1.11 4.003-3.112 3.211zm6.362-10.076l-8.858-3.51-8.854 3.51-2.188 7.884 6.128 6.326h9.83l6.13-6.326-2.188-7.884z" transform="translate(-461 -166) translate(461 166) translate(218 168)"/>
                    <path fill="#FFF" d="M294.705 384.899c-.242 0-.49-.041-.728-.131-.294-.111-1.812-.745-2.92-2.479-.976-1.526-1.81-4.225-.231-8.427 1.198-3.188 3.651-5.421 6.91-6.294 3.88-1.033 8.477.015 11.712 2.678.904.741 1.031 2.076.287 2.973-.739.9-2.071 1.03-2.977.289-2.184-1.793-5.373-2.542-7.927-1.858-1.346.362-3.14 1.293-4.044 3.697-1.585 4.218.325 5.307.723 5.484 1.047.459 1.567 1.682 1.137 2.742-.335.82-1.112 1.326-1.942 1.326" transform="translate(-461 -166) translate(461 166) translate(218 168)"/>
                    <path stroke="#1A2E35" stroke-linecap="round" stroke-linejoin="round" stroke-width="1.082" d="M294.705 384.899c-.242 0-.49-.041-.728-.131-.294-.111-1.812-.745-2.92-2.479-.976-1.526-1.81-4.225-.231-8.427 1.198-3.188 3.651-5.421 6.91-6.294 3.88-1.033 8.477.015 11.712 2.678.904.741 1.031 2.076.287 2.973-.739.9-2.071 1.03-2.977.289-2.184-1.793-5.373-2.542-7.927-1.858-1.346.362-3.14 1.293-4.044 3.697-1.585 4.218.325 5.307.723 5.484 1.047.459 1.567 1.682 1.137 2.742-.335.82-1.112 1.326-1.942 1.326z" transform="translate(-461 -166) translate(461 166) translate(218 168)"/>
                    <path fill="#FFF" d="M338.43 392.677c-.65 0-1.314-.102-1.968-.315l-34.42-11.185c-3.33-1.082-5.155-4.659-4.07-7.99 1.085-3.325 4.667-5.15 7.999-4.064l34.422 11.187c3.332 1.081 5.154 4.656 4.07 7.988-.872 2.676-3.36 4.38-6.034 4.38" transform="translate(-461 -166) translate(461 166) translate(218 168)"/>
                    <path stroke="#1A2E35" stroke-linecap="round" stroke-linejoin="round" stroke-width="1.082" d="M338.43 392.677c-.65 0-1.314-.102-1.968-.315l-34.42-11.185c-3.33-1.082-5.155-4.659-4.07-7.99 1.085-3.325 4.667-5.15 7.999-4.064l34.422 11.187c3.332 1.081 5.154 4.656 4.07 7.988-.872 2.676-3.36 4.38-6.034 4.38zM301.001 380.88s1.367-8.73 12.292-9.003M308.378 382.79s1.366-8.732 12.292-9.004M314.933 385.245s1.367-8.731 12.292-9.004M321.763 387.153s1.367-8.73 12.292-9.002M328.592 389.61s1.366-8.73 12.292-9.003" transform="translate(-461 -166) translate(461 166) translate(218 168)"/>
                    <path fill="#FFF" d="M338.413 392.539c-.242 0-.49-.041-.73-.133-.292-.11-1.809-.745-2.92-2.478-.973-1.526-1.807-4.226-.23-8.427 1.2-3.187 3.653-5.422 6.91-6.294 3.882-1.034 8.479.014 11.714 2.68.904.739 1.031 2.073.287 2.972-.739.9-2.072 1.028-2.977.287-2.185-1.793-5.373-2.542-7.927-1.856-1.347.36-3.14 1.292-4.044 3.697-1.585 4.216.325 5.307.723 5.483 1.047.458 1.567 1.683 1.137 2.742-.336.82-1.112 1.327-1.943 1.327" transform="translate(-461 -166) translate(461 166) translate(218 168)"/>
                    <path stroke="#1A2E35" stroke-linecap="round" stroke-linejoin="round" stroke-width="1.082" d="M338.413 392.539c-.242 0-.49-.041-.73-.133-.292-.11-1.809-.745-2.92-2.478-.973-1.526-1.807-4.226-.23-8.427 1.2-3.187 3.653-5.422 6.91-6.294 3.882-1.034 8.479.014 11.714 2.68.904.739 1.031 2.073.287 2.972-.739.9-2.072 1.028-2.977.287-2.185-1.793-5.373-2.542-7.927-1.856-1.347.36-3.14 1.292-4.044 3.697-1.585 4.216.325 5.307.723 5.483 1.047.458 1.567 1.683 1.137 2.742-.336.82-1.112 1.327-1.943 1.327z" transform="translate(-461 -166) translate(461 166) translate(218 168)"/>
                </g>
            </g>
        </g>
    </g>
</svg>
